<?xml version="1.0" standalone="no"?><!DOCTYPE svg PUBLIC "-//W3C//DTD SVG 1.1//EN" "http://www.w3.org/Graphics/SVG/1.1/DTD/svg11.dtd"><svg t="1680927744556" class="icon" viewBox="0 0 1024 1024" version="1.1" xmlns="http://www.w3.org/2000/svg" p-id="39026" xmlns:xlink="http://www.w3.org/1999/xlink" width="200" height="200"><path d="M23.718633 954.181818l11.636363-58.181818c6.981818-34.909091 34.909091-65.163636 69.818182-72.145455L349.536815 768l162.90909 116.363636 162.909091-116.363636 244.363637 55.854545c34.909091 9.309091 62.836364 37.236364 69.818182 72.145455L1001.173178 954.181818c-218.763636 62.836364-758.690909 62.836364-977.454545 0z" fill="#5F7B93" p-id="39027"></path><path d="M768.445905 349.090909H258.773178c0 6.981818-2.327273 16.290909-2.327273 23.272727h-23.272727v46.545455c0 25.6 20.945455 46.545455 46.545455 46.545454v86.109091c0 48.872727 25.6 93.090909 65.163636 118.690909l86.109091 53.527273c23.272727 13.963636 48.872727 20.945455 76.8 20.945455h11.636364c27.927273 0 53.527273-6.981818 76.8-20.945455l86.109091-53.527273c41.890909-25.6 65.163636-69.818182 65.163636-118.690909V465.454545c25.6 0 46.545455-20.945455 46.545454-46.545454v-46.545455h-23.272727c-2.327273-6.981818-2.327273-16.290909-2.327273-23.272727z" fill="#EFC9AE" p-id="39028"></path><path d="M791.718633 349.090909h-46.545455c0 6.981818 2.327273 16.290909 2.327273 23.272727 0 13.963636 9.309091 23.272727 23.272727 23.272728v23.272727c0 13.963636-9.309091 23.272727-23.272727 23.272727s-23.272727 9.309091-23.272727 23.272727v86.109091c0 39.563636-20.945455 76.8-53.527273 97.745455L582.264087 702.836364c-18.618182 11.636364-41.890909 18.618182-62.836363 18.618181h-11.636364c-23.272727 0-44.218182-6.981818-62.836364-18.618181l-86.109091-53.527273c-34.909091-20.945455-55.854545-58.181818-55.854545-97.745455V465.454545c0-13.963636-9.309091-23.272727-23.272727-23.272727s-23.272727-9.309091-23.272728-23.272727v-23.272727c13.963636 0 23.272727-9.309091 23.272728-23.272728 0-6.981818 0-16.290909 2.327272-23.272727h-46.545454c-13.963636 0-23.272727 9.309091-23.272727 23.272727v46.545455c0 30.254545 18.618182 55.854545 46.545454 65.163636v65.163637c0 55.854545 27.927273 107.054545 76.8 137.309091l86.109091 53.527272c25.6 16.290909 58.181818 25.6 88.436364 25.6h11.636363c30.254545 0 62.836364-9.309091 88.436364-25.6l86.109091-53.527272c48.872727-30.254545 76.8-81.454545 76.8-137.309091v-65.163637c27.927273-9.309091 46.545455-34.909091 46.545454-65.163636v-46.545455c-4.654545-13.963636-13.963636-23.272727-27.927272-23.272727z" fill="#0B3A5B" p-id="39029"></path><path d="M1024.445905 949.527273l-11.636363-58.181818c-9.309091-44.218182-44.218182-79.127273-88.436364-90.763637L682.336815 744.727273c-6.981818-2.327273-13.963636 0-18.618182 4.654545L512.445905 856.436364l-148.945454-107.054546c-4.654545-4.654545-11.636364-4.654545-18.618182-4.654545L100.518633 800.581818c-44.218182 9.309091-79.127273 46.545455-88.436364 90.763637L0.445905 949.527273c-2.327273 11.636364 4.654545 23.272727 16.29091 27.927272 111.709091 32.581818 302.545455 46.545455 495.70909 46.545455 190.836364 0 384-16.290909 493.381819-46.545455 13.963636-4.654545 20.945455-16.290909 18.618181-27.927272zM58.627724 900.654545c4.654545-27.927273 25.6-48.872727 53.527272-53.527272l235.054546-53.527273 146.618182 104.727273c-4.654545 2.327273-4.654545 6.981818-4.654546 9.309091v69.818181c-167.563636 0-332.8-13.963636-437.527273-39.563636l6.981819-37.236364zM535.718633 977.454545v-69.818181c0-2.327273 0-6.981818-2.327273-9.309091l146.618182-104.727273 232.727273 53.527273c25.6 6.981818 46.545455 27.927273 53.527272 53.527272l6.981818 34.909091C868.518633 963.490909 703.282269 977.454545 535.718633 977.454545z" fill="#0B3A5B" p-id="39030"></path><path d="M512.445905 651.636364c-32.581818 0-62.836364-9.309091-83.781818-27.927273-9.309091-6.981818-11.636364-23.272727-4.654545-32.581818 6.981818-9.309091 23.272727-11.636364 32.581818-4.654546 13.963636 11.636364 32.581818 18.618182 53.527273 18.618182 20.945455 0 41.890909-6.981818 55.854545-18.618182 9.309091-6.981818 25.6-6.981818 32.581818 4.654546 6.981818 9.309091 6.981818 25.6-4.654545 32.581818-18.618182 18.618182-48.872727 27.927273-81.454546 27.927273z" fill="#0F395A" p-id="39031"></path><path d="M745.173178 372.363636s-465.454545-6.981818-465.454545 0c0 13.963636-9.309091 23.272727-23.272728 23.272728h349.09091c25.6 0 46.545455 20.945455 46.545454 46.545454v216.436364l16.290909-9.309091c34.909091-20.945455 53.527273-58.181818 53.527273-97.745455V465.454545c0-11.636364 9.309091-23.272727 23.272727-23.272727s23.272727-9.309091 23.272727-23.272727v-23.272727c-11.636364 0-23.272727-9.309091-23.272727-23.272728z" fill="#E2B698" p-id="39032"></path><path d="M419.354996 442.181818m-69.818181 0a69.818182 69.818182 0 1 0 139.636363 0 69.818182 69.818182 0 1 0-139.636363 0Z" fill="#5F7B93" p-id="39033"></path><path d="M605.536815 442.181818m-69.818182 0a69.818182 69.818182 0 1 0 139.636363 0 69.818182 69.818182 0 1 0-139.636363 0Z" fill="#5F7B93" p-id="39034"></path><path d="M745.173178 279.272727H279.718633V230.4c0-60.509091 11.636364-118.690909 32.581818-174.545455 6.981818-18.618182 25.6-32.581818 46.545454-32.581818 6.981818 0 16.290909 2.327273 23.272728 4.654546l39.563636 20.945454c30.254545 13.963636 60.509091 20.945455 90.763636 20.945455 30.254545 0 60.509091-6.981818 88.436364-20.945455l39.563636-20.945454c6.981818-4.654545 13.963636-4.654545 23.272728-4.654546 20.945455 0 39.563636 11.636364 46.545454 32.581818 23.272727 55.854545 32.581818 114.036364 32.581818 174.545455V279.272727zM163.354996 325.818182h698.181819c6.981818 0 11.636364-4.654545 11.636363-11.636364s-4.654545-11.636364-11.636363-11.636363H163.354996c-6.981818 0-11.636364 4.654545-11.636363 11.636363s4.654545 11.636364 11.636363 11.636364z" fill="#5F7B93" p-id="39035"></path><path d="M861.536815 256h-93.09091V230.4c0-62.836364-11.636364-125.672727-34.90909-183.854545-11.636364-27.927273-37.236364-46.545455-69.818182-46.545455-11.636364 0-23.272727 2.327273-32.581818 6.981818l-39.563637 20.945455c-48.872727 23.272727-107.054545 23.272727-155.927273 0L396.082269 6.981818c-11.636364-4.654545-23.272727-6.981818-34.909091-6.981818-30.254545 0-58.181818 18.618182-69.818182 46.545455-23.272727 58.181818-34.909091 121.018182-34.909091 183.854545V256H163.354996c-32.581818 0-58.181818 25.6-58.181818 58.181818S130.773178 372.363636 163.354996 372.363636h195.490909c-18.618182 16.290909-32.581818 41.890909-32.581818 69.818182 0 51.2 41.890909 93.090909 93.090909 93.090909s93.090909-41.890909 93.090909-93.090909c0 51.2 41.890909 93.090909 93.09091 93.090909s93.090909-41.890909 93.090909-93.090909c0-27.927273-11.636364-53.527273-32.581819-69.818182H861.536815c32.581818 0 58.181818-25.6 58.181818-58.181818S894.118633 256 861.536815 256zM302.99136 230.4c0-58.181818 11.636364-114.036364 32.581818-167.563636 4.654545-13.963636 23.272727-20.945455 37.236364-13.963637l41.890909 20.945455c60.509091 30.254545 137.309091 30.254545 197.818182 0l39.563636-20.945455c13.963636-6.981818 32.581818 0 37.236364 13.963637C710.264087 116.363636 721.900451 172.218182 721.900451 230.4V256H302.99136V230.4zM419.354996 512c-39.563636 0-69.818182-30.254545-69.818181-69.818182s30.254545-69.818182 69.818181-69.818182 69.818182 30.254545 69.818182 69.818182-30.254545 69.818182-69.818182 69.818182z m256-69.818182c0 39.563636-30.254545 69.818182-69.818181 69.818182s-69.818182-30.254545-69.818182-69.818182 30.254545-69.818182 69.818182-69.818182 69.818182 30.254545 69.818181 69.818182z m186.181819-116.363636H163.354996c-6.981818 0-11.636364-4.654545-11.636363-11.636364s4.654545-11.636364 11.636363-11.636363h698.181819c6.981818 0 11.636364 4.654545 11.636363 11.636363s-4.654545 11.636364-11.636363 11.636364z" fill="#0B3A5B" p-id="39036"></path><path d="M689.318633 62.836364c-4.654545-13.963636-23.272727-20.945455-37.236364-13.963637l-13.963636 6.981818c2.327273 2.327273 4.654545 4.654545 4.654545 6.981819C663.718633 116.363636 675.354996 172.218182 675.354996 230.4V256h46.545455V230.4c0-58.181818-11.636364-114.036364-32.581818-167.563636z" fill="#4A6B84" p-id="39037"></path><path d="M719.573178 186.181818H305.318633c-2.327273 13.963636-2.327273 30.254545-2.327273 44.218182V256h418.909091V230.4c0-13.963636 0-30.254545-2.327273-44.218182z" fill="#70B7E5" p-id="39038"></path><path d="M419.354996 372.363636c-39.563636 0-69.818182 30.254545-69.818181 69.818182 0 6.981818 2.327273 13.963636 2.327272 20.945455l86.109091-86.109091c-4.654545-2.327273-11.636364-4.654545-18.618182-4.654546zM605.536815 372.363636c-39.563636 0-69.818182 30.254545-69.818182 69.818182 0 6.981818 2.327273 13.963636 2.327272 20.945455l86.109091-86.109091c-4.654545-2.327273-11.636364-4.654545-18.618181-4.654546zM456.59136 381.672727l-95.418182 95.418182c2.327273 4.654545 6.981818 9.309091 9.309091 13.963636l97.745455-97.745454c-2.327273-4.654545-6.981818-6.981818-11.636364-11.636364zM642.773178 381.672727l-95.418182 95.418182c2.327273 4.654545 6.981818 9.309091 9.309091 13.963636l97.745455-97.745454c-2.327273-4.654545-6.981818-6.981818-11.636364-11.636364z" fill="#7592A5" p-id="39039"></path><path d="M719.573178 186.181818h-46.545454c0 4.654545 0 13.963636 2.327272 23.272727 0 13.963636-9.309091 23.272727-23.272727 23.272728H302.99136v23.272727h418.909091V230.4c0-13.963636 0-30.254545-2.327273-44.218182z" fill="#4C9CD6" p-id="39040"></path><path d="M512.445905 907.636364v-102.4c0-51.2 27.927273-97.745455 72.145455-123.345455L768.445905 581.818182v186.181818l-256 139.636364z" fill="#5F7B93" p-id="39041"></path><path d="M512.445905 930.909091c-4.654545 0-9.309091 0-11.636363-2.327273-6.981818-4.654545-11.636364-11.636364-11.636364-20.945454v-102.4c0-60.509091 32.581818-114.036364 83.781818-141.963637l183.854546-100.072727c6.981818-4.654545 16.290909-4.654545 23.272727 0 6.981818 4.654545 11.636364 11.636364 11.636364 20.945455v186.181818c0 9.309091-4.654545 16.290909-11.636364 20.945454l-256 139.636364H512.445905z m232.727273-309.527273l-148.945454 81.454546C558.99136 721.454545 535.718633 761.018182 535.718633 805.236364v65.163636l209.454545-114.036364v-134.981818z" fill="#0B3A5B" p-id="39042"></path><path d="M721.900451 633.018182v76.8c0 16.290909-9.309091 32.581818-23.272727 41.890909l-162.909091 88.436364v27.927272l209.454545-114.036363v-132.654546l-23.272727 11.636364z" fill="#4A6B84" p-id="39043"></path><path d="M512.445905 907.636364v-102.4c0-51.2-27.927273-97.745455-72.145454-123.345455L256.445905 581.818182v186.181818l256 139.636364z" fill="#5F7B93" p-id="39044"></path><path d="M512.445905 930.909091c-4.654545 0-6.981818 0-11.636363-2.327273l-256-139.636363c-6.981818-4.654545-11.636364-11.636364-11.636364-20.945455v-186.181818c0-9.309091 4.654545-16.290909 11.636364-20.945455 6.981818-4.654545 16.290909-4.654545 23.272727 0l183.854546 100.072728c51.2 27.927273 83.781818 83.781818 83.781818 141.963636V907.636364c0 9.309091-4.654545 16.290909-11.636364 20.945454-2.327273 2.327273-6.981818 2.327273-11.636364 2.327273z m-232.727272-176.872727l209.454545 114.036363v-65.163636c0-41.890909-23.272727-81.454545-60.509091-102.4L279.718633 621.381818v132.654546z" fill="#0B3A5B" p-id="39045"></path><path d="M279.718633 754.036364l209.454545 114.036363V837.818182l-209.454545-114.036364z" fill="#4A6B84" p-id="39046"></path><path d="M454.264087 779.636364m-11.636363 0a11.636364 11.636364 0 1 0 23.272727 0 11.636364 11.636364 0 1 0-23.272727 0Z" fill="#0B3A5B" p-id="39047"></path><path d="M570.627724 779.636364m-11.636364 0a11.636364 11.636364 0 1 0 23.272727 0 11.636364 11.636364 0 1 0-23.272727 0Z" fill="#0B3A5B" p-id="39048"></path></svg>