<?xml version="1.0" standalone="no"?><!DOCTYPE svg PUBLIC "-//W3C//DTD SVG 1.1//EN" "http://www.w3.org/Graphics/SVG/1.1/DTD/svg11.dtd"><svg t="1680930021568" class="icon" viewBox="0 0 1024 1024" version="1.1" xmlns="http://www.w3.org/2000/svg" p-id="45291" xmlns:xlink="http://www.w3.org/1999/xlink" width="200" height="200"><path d="M876.764 316.39h-133.158V361h117.826v461.43H162.578V361h117.778v-44.608H147.246c-14.376 0-26.066 11.644-26.066 26.018v493.582c0 14.422 11.692 26.066 26.066 26.066h729.52c14.326 0 26.018-11.644 26.018-26.066V342.408c-0.002-14.374-11.694-26.018-26.02-26.018z" fill="#DFDFDF" p-id="45292"></path><path d="M0 879.356v33.512c0 43.838 35.666 79.5 79.5 79.5h864.994c43.84 0 79.506-35.664 79.506-79.5v-33.512H0z m1009.624 33.512c0 35.912-29.216 65.126-65.13 65.126H79.5c-35.91 0-65.126-29.214-65.126-65.126v-19.138h995.25v19.138z" fill="#4A555F" p-id="45293"></path><path d="M31.644 911v1.368c0 26.706 21.65 48.356 48.356 48.356h864c26.706 0 48.356-21.65 48.356-48.356v-1.368H31.644z" fill="#DFDFDF" p-id="45294"></path><path d="M420.948 879.356v19.784c0 23.046 18.746 41.792 41.79 41.792h98.522c23.046 0 41.792-18.748 41.792-41.792v-19.784h-182.104z m167.728 19.784c0 15.118-12.296 27.418-27.416 27.418h-98.522c-15.118 0-27.416-12.3-27.416-27.418v-5.41h153.354v5.41z" fill="#4A555F" p-id="45295"></path><path d="M876.766 284.766h-140.35v83.42h117.83v447.056H169.812V368.186h117.73v-83.42H147.244c-31.81 0-57.692 25.858-57.692 57.642v493.582c0 31.81 25.882 57.69 57.692 57.69h729.522c31.81 0 57.686-25.88 57.686-57.69V342.408c0-31.784-25.876-57.642-57.686-57.642z m43.312 551.224c0 23.886-19.428 43.316-43.312 43.316H147.244c-23.884 0-43.316-19.43-43.316-43.316V342.408c0-23.858 19.434-43.266 43.316-43.266h125.924v54.67H155.436v475.806H868.62V353.81h-117.83V299.14h125.976c23.884 0 43.312 19.41 43.312 43.266v493.584z" fill="#4A555F" p-id="45296"></path><path d="M743.606 385.484v55.63L511.98 574.848l-231.624-133.734v-55.63H187.064v412.46h649.882v-412.46z" fill="#71CCE0" p-id="45297"></path><path d="M511.992 31.63L273.182 169.506v275.758l238.812 137.878 238.812-137.876V169.508L511.992 31.63z m224.438 405.334l-224.438 129.58-224.436-129.582V177.806l224.436-129.578 224.438 129.582v259.154z" fill="#4A555F" p-id="45298"></path><path d="M511.98 67.61L304.314 187.496v239.77L511.98 547.2l207.668-119.934V187.496L511.98 67.61z m118.018 347.008l-131.816 71.586v-53.09h-78.486v-78.248h-40.392l40.392-75.946v-42.788c0-58.074 47.102-105.128 105.176-105.128 58.074 0 105.126 47.054 105.126 105.128v178.486z" fill="#FFD452" p-id="45299"></path><path d="M524.862 123.798c-61.944 0-112.336 50.394-112.336 112.338v40.968l-45.192 84.928h45.192v78.29h78.49v57.974l146.18-79.412v-182.748c0-61.944-50.39-112.338-112.334-112.338z m97.96 286.536l-117.432 63.792v-48.18H426.9v-78.29h-35.638l35.638-66.968v-44.554c0-54.018 43.944-97.962 97.962-97.962s97.96 43.946 97.96 97.962v174.2z" fill="#4A555F" p-id="45300"></path><path d="M487.486 201.966h73.392v73.392h-73.392z" fill="#F58E6F" p-id="45301"></path><path d="M496.794 177.328h14.374v24.638h-14.374zM516.996 177.328h14.376v24.638h-14.376zM537.196 177.328h14.374v24.638h-14.374zM496.794 275.358h14.374v24.636h-14.374zM516.996 275.358h14.376v24.636h-14.376zM537.196 275.358h14.374v24.636h-14.374zM560.878 211.274h24.642v14.374h-24.642zM560.878 231.474h24.642v14.374h-24.642zM560.878 251.674h24.642v14.376h-24.642zM462.852 211.274h24.636v14.374h-24.636zM462.852 231.474h24.636v14.374h-24.636zM462.852 251.674h24.636v14.376h-24.636z" fill="#4A555F" p-id="45302"></path><path d="M480.3 194.778v87.766h87.764V194.778H480.3z m73.39 73.392h-59.016v-59.018h59.016v59.018zM377.314 638.686h14.374v-14.376h-14.374v14.376z m28.75 0h14.374v-14.376h-14.374v14.376z m86.248 0h14.374v-14.376h-14.374v14.376z m-28.75 0h14.374v-14.376h-14.374v14.376z m-28.75 0h14.374v-14.376h-14.374v14.376z m-143.746 0h14.374v-14.376h-14.374v14.376z m28.748 0h14.374v-14.376h-14.374v14.376z m28.75 0h14.374v-14.376h-14.374v14.376z m373.744-14.376v14.376h14.374v-14.376h-14.374z m-86.248 14.376h14.374v-14.376h-14.374v14.376z m28.75 0h14.374v-14.376h-14.374v14.376z m28.748 0h14.376v-14.376h-14.376v14.376z m-86.248 0h14.374v-14.376h-14.374v14.376z m-57.498 0h14.374v-14.376h-14.374v14.376z m28.748 0h14.374v-14.376h-14.374v14.376z m-57.498 0h14.374v-14.376h-14.374v14.376zM291.066 678.988h445.252v14.376H291.066zM291.066 733.668h445.252v14.374H291.066z" fill="#4A555F" p-id="45303"></path></svg>