<?xml version="1.0" standalone="no"?><!DOCTYPE svg PUBLIC "-//W3C//DTD SVG 1.1//EN" "http://www.w3.org/Graphics/SVG/1.1/DTD/svg11.dtd"><svg t="1680929798040" class="icon" viewBox="0 0 1024 1024" version="1.1" xmlns="http://www.w3.org/2000/svg" p-id="1555" xmlns:xlink="http://www.w3.org/1999/xlink" width="200" height="200"><path d="M981.508 1023.882H42.458c-11.778 0-21.338-9.56-21.338-21.34 0-11.778 9.56-21.338 21.338-21.338h939.048c11.81 0 21.372 9.56 21.372 21.338 0 11.78-9.56 21.34-21.37 21.34zM191.864 192.87h42.678v74.92H191.864zM789.428 196.432h42.678v74.904h-42.678zM640.024 192.87h42.742v74.92h-42.742zM341.266 196.432h42.678v74.904h-42.678zM490.668 192.87h42.678v74.92h-42.678z" fill="#434A54" p-id="1556"></path><path d="M106.508 0.118h811.016v213.42H106.508z" fill="#ED5564" p-id="1557"></path><path d="M682.766 128.166h-341.5c-11.78 0-21.338-9.544-21.338-21.338 0-11.78 9.558-21.34 21.338-21.34h341.5c11.746 0 21.306 9.56 21.306 21.34 0 11.794-9.56 21.338-21.306 21.338z" fill="#434A54" p-id="1558"></path><path d="M63.798 363.612H960.2v617.592H63.798z" fill="#FC6E51" p-id="1559"></path><path d="M21.122 256.886H1002.88v169.414H21.122z" fill="#E6E9ED" p-id="1560"></path><path d="M426.372 767.754h171.226v213.452h-171.226z" fill="#434A54" p-id="1561"></path><path d="M234.542 511.672h128.064v128.048h-128.064zM447.958 511.672h128.08v128.048h-128.08zM661.394 511.672h128.034v128.048h-128.034z" fill="#FFCE54" p-id="1562"></path></svg>