<?xml version="1.0" standalone="no"?><!DOCTYPE svg PUBLIC "-//W3C//DTD SVG 1.1//EN" "http://www.w3.org/Graphics/SVG/1.1/DTD/svg11.dtd"><svg t="1680927800692" class="icon" viewBox="0 0 1024 1024" version="1.1" xmlns="http://www.w3.org/2000/svg" p-id="39809" xmlns:xlink="http://www.w3.org/1999/xlink" width="200" height="200"><path d="M512 512m-488.727273 0a488.727273 488.727273 0 1 0 977.454546 0 488.727273 488.727273 0 1 0-977.454546 0Z" fill="#D3E2EB" p-id="39810"></path><path d="M512 1024C230.4 1024 0 793.6 0 512S230.4 0 512 0s512 230.4 512 512-230.4 512-512 512z m0-977.454545C256 46.545455 46.545455 256 46.545455 512s209.454545 465.454545 465.454545 465.454545 465.454545-209.454545 465.454545-465.454545S768 46.545455 512 46.545455z" fill="#0B3A5B" p-id="39811"></path><path d="M512 977.454545c256 0 465.454545-209.454545 465.454545-465.454545 0-65.163636-13.963636-128-37.236363-183.854545L328.145455 940.218182c55.854545 23.272727 118.690909 37.236364 183.854545 37.236363zM830.836364 174.545455L174.545455 830.836364c30.254545 30.254545 62.836364 58.181818 100.072727 81.454545l637.672727-637.672727c-23.272727-37.236364-48.872727-72.145455-81.454545-100.072727z" fill="#FFFFFF" p-id="39812"></path><path d="M512 837.818182c-179.2 0-325.818182-146.618182-325.818182-325.818182S332.8 186.181818 512 186.181818s325.818182 146.618182 325.818182 325.818182-146.618182 325.818182-325.818182 325.818182z" fill="#F5B445" p-id="39813"></path><path d="M512 186.181818c179.2 0 325.818182 146.618182 325.818182 325.818182s-146.618182 325.818182-325.818182 325.818182S186.181818 691.2 186.181818 512 332.8 186.181818 512 186.181818m0-23.272727C318.836364 162.909091 162.909091 318.836364 162.909091 512s155.927273 349.090909 349.090909 349.090909 349.090909-155.927273 349.090909-349.090909S705.163636 162.909091 512 162.909091z" fill="#0B3A5B" p-id="39814"></path><path d="M209.454545 535.272727c0-179.2 146.618182-325.818182 325.818182-325.818182 83.781818 0 160.581818 32.581818 218.763637 83.781819C693.527273 228.072727 607.418182 186.181818 512 186.181818 332.8 186.181818 186.181818 332.8 186.181818 512c0 95.418182 41.890909 181.527273 107.054546 242.036364C242.036364 695.854545 209.454545 619.054545 209.454545 535.272727z" fill="#EAA239" p-id="39815"></path><path d="M512 837.818182c179.2 0 325.818182-146.618182 325.818182-325.818182 0-25.6-2.327273-51.2-9.309091-74.472727L437.527273 828.509091c23.272727 6.981818 48.872727 9.309091 74.472727 9.309091zM733.090909 272.290909L272.290909 733.090909c30.254545 32.581818 65.163636 58.181818 104.727273 76.8l430.545454-430.545454c-16.290909-41.890909-44.218182-76.8-74.472727-107.054546z" fill="#FFD167" p-id="39816"></path><path d="M653.963636 477.090909c11.636364-16.290909 20.945455-34.909091 20.945455-58.181818 0-41.890909-27.927273-76.8-67.490909-88.436364H605.090909c-23.272727-9.309091-23.272727-20.945455-23.272727-27.927272v-23.272728c0-13.963636-9.309091-23.272727-23.272727-23.272727s-23.272727 9.309091-23.272728 23.272727v23.272728c0 13.963636-9.309091 23.272727-23.272727 23.272727s-23.272727-9.309091-23.272727-23.272727v-23.272728c0-13.963636-9.309091-23.272727-23.272728-23.272727s-23.272727 9.309091-23.272727 23.272727v23.272728c0 13.963636-9.309091 23.272727-23.272727 23.272727h-69.818182v46.545454h23.272727c13.963636 0 23.272727 9.309091 23.272728 23.272728v232.727272c0 13.963636-9.309091 23.272727-23.272728 23.272728h-23.272727v46.545454h69.818182c13.963636 0 23.272727 9.309091 23.272727 23.272727v23.272728c0 13.963636 9.309091 23.272727 23.272727 23.272727s23.272727-9.309091 23.272728-23.272727v-23.272728c0-13.963636 9.309091-23.272727 23.272727-23.272727s23.272727 9.309091 23.272727 23.272727v23.272728c0 13.963636 9.309091 23.272727 23.272728 23.272727s23.272727-9.309091 23.272727-23.272727v-23.272728c0-13.963636 9.309091-23.272727 23.272727-23.272727 65.163636 0 116.363636-51.2 116.363636-116.363636 0-46.545455-27.927273-86.109091-67.490909-104.727273zM535.272727 372.363636c25.6 0 46.545455 20.945455 46.545455 46.545455s-20.945455 46.545455-46.545455 46.545454h-46.545454v-93.090909h46.545454z m-46.545454 279.272728v-139.636364h69.818182c39.563636 0 69.818182 30.254545 69.818181 69.818182s-30.254545 69.818182-69.818181 69.818182h-69.818182z" fill="#0B3A5B" p-id="39817"></path><path d="M505.976967 138.84347a23.272727 23.272727 0 1 0 12.046066-44.959667 23.272727 23.272727 0 1 0-12.046066 44.959667Z" fill="#82A7C4" p-id="39818"></path><path d="M505.954487 930.133447a23.272727 23.272727 0 1 0 12.046066-44.959667 23.272727 23.272727 0 1 0-12.046066 44.959667Z" fill="#82A7C4" p-id="39819"></path><path d="M291.834491 175.896498a23.272727 23.272727 0 1 0 44.959667-12.046065 23.272727 23.272727 0 1 0-44.959667 12.046065Z" fill="#82A7C4" p-id="39820"></path><path d="M687.189358 860.163992a23.272727 23.272727 0 1 0 44.959667-12.046065 23.272727 23.272727 0 1 0-44.959667 12.046065Z" fill="#82A7C4" p-id="39821"></path><path d="M153.278109 330.259907a23.272727 23.272727 0 1 0 32.912032-32.913181 23.272727 23.272727 0 1 0-32.912032 32.913181Z" fill="#82A7C4" p-id="39822"></path><path d="M837.803043 726.636817a23.272727 23.272727 0 1 0 32.912032-32.913181 23.272727 23.272727 0 1 0-32.912032 32.913181Z" fill="#82A7C4" p-id="39823"></path><path d="M110.340604 534.479833a23.272727 23.272727 0 1 0 12.046065-44.959666 23.272727 23.272727 0 1 0-12.046065 44.959666Z" fill="#82A7C4" p-id="39824"></path><path d="M901.613331 534.479833a23.272727 23.272727 0 1 0 12.046065-44.959666 23.272727 23.272727 0 1 0-12.046065 44.959666Z" fill="#82A7C4" p-id="39825"></path><path d="M147.375563 715.711086a23.272727 23.272727 0 1 0 44.959667-12.046065 23.272727 23.272727 0 1 0-44.959667 12.046065Z" fill="#82A7C4" p-id="39826"></path><path d="M831.64908 320.355427a23.272727 23.272727 0 1 0 44.959667-12.046066 23.272727 23.272727 0 1 0-44.959667 12.046066Z" fill="#82A7C4" p-id="39827"></path><path d="M297.347301 870.722466a23.272727 23.272727 0 1 0 32.912032-32.913181 23.272727 23.272727 0 1 0-32.912032 32.913181Z" fill="#82A7C4" p-id="39828"></path><path d="M693.724211 186.197532a23.272727 23.272727 0 1 0 32.912032-32.913181 23.272727 23.272727 0 1 0-32.912032 32.913181Z" fill="#82A7C4" p-id="39829"></path><path d="M409.6 130.327273m-23.272727 0a23.272727 23.272727 0 1 0 46.545454 0 23.272727 23.272727 0 1 0-46.545454 0Z" fill="#82A7C4" p-id="39830"></path><path d="M614.4 893.672727m-23.272727 0a23.272727 23.272727 0 1 0 46.545454 0 23.272727 23.272727 0 1 0-46.545454 0Z" fill="#82A7C4" p-id="39831"></path><path d="M212.736632 244.045277a23.272727 23.272727 0 1 0 40.309546-23.272727 23.272727 23.272727 0 1 0-40.309546 23.272727Z" fill="#82A7C4" p-id="39832"></path><path d="M770.921195 803.198777a23.272727 23.272727 0 1 0 40.309546-23.272727 23.272727 23.272727 0 1 0-40.309546 23.272727Z" fill="#82A7C4" p-id="39833"></path><path d="M118.446545 429.331523a23.272727 23.272727 0 1 0 23.272728-40.309546 23.272727 23.272727 0 1 0-23.272728 40.309546Z" fill="#82A7C4" p-id="39834"></path><path d="M882.260572 634.98966a23.272727 23.272727 0 1 0 23.272728-40.309546 23.272727 23.272727 0 1 0-23.272728 40.309546Z" fill="#82A7C4" p-id="39835"></path><path d="M130.327273 614.4m-23.272728 0a23.272727 23.272727 0 1 0 46.545455 0 23.272727 23.272727 0 1 0-46.545455 0Z" fill="#82A7C4" p-id="39836"></path><path d="M893.672727 409.6m-23.272727 0a23.272727 23.272727 0 1 0 46.545455 0 23.272727 23.272727 0 1 0-46.545455 0Z" fill="#82A7C4" p-id="39837"></path><path d="M212.256423 802.706932a23.272727 23.272727 0 1 0 40.309546-23.272728 23.272727 23.272727 0 1 0-40.309546 23.272728Z" fill="#82A7C4" p-id="39838"></path><path d="M771.413041 244.534005a23.272727 23.272727 0 1 0 40.309546-23.272728 23.272727 23.272727 0 1 0-40.309546 23.272728Z" fill="#82A7C4" p-id="39839"></path><path d="M397.520231 914.0835a23.272727 23.272727 0 1 0 23.272728-40.309546 23.272727 23.272727 0 1 0-23.272728 40.309546Z" fill="#82A7C4" p-id="39840"></path><path d="M603.166732 150.249318a23.272727 23.272727 0 1 0 23.272727-40.309546 23.272727 23.272727 0 1 0-23.272727 40.309546Z" fill="#82A7C4" p-id="39841"></path></svg>