<svg xmlns="http://www.w3.org/2000/svg" xmlns:xlink="http://www.w3.org/1999/xlink" fill="none" version="1.1" width="32" height="32" viewBox="0 0 32 32"><g style="mix-blend-mode:passthrough"><path d="M0,32L29,32C30.6569,32,32,30.6569,32,29L32,0L0,32ZM18.6405,21.4611L21.1132,23.9338L26.574,18.4607C26.6523,18.3905,26.7401,18.3553,26.8376,18.3553C26.9351,18.3553,27.0211,18.3925,27.0956,18.4667C27.1701,18.541,27.2092,18.6288,27.213,18.7303C27.2167,18.8318,27.1835,18.9217,27.1132,19L21.1132,25L18.1132,22C18.0117,21.8907,17.9785,21.7677,18.0135,21.631C18.0485,21.4942,18.1363,21.4063,18.2771,21.3673C18.4178,21.3283,18.539,21.3596,18.6405,21.4611Z" fill-rule="evenodd" fill="#177AE8" fill-opacity="1"/></g></svg>