<?xml version="1.0" standalone="no"?><!DOCTYPE svg PUBLIC "-//W3C//DTD SVG 1.1//EN" "http://www.w3.org/Graphics/SVG/1.1/DTD/svg11.dtd"><svg t="1680927760870" class="icon" viewBox="0 0 1024 1024" version="1.1" xmlns="http://www.w3.org/2000/svg" p-id="39186" xmlns:xlink="http://www.w3.org/1999/xlink" width="200" height="200"><path d="M942.545455 768c-6.981818 0-11.636364-4.654545-11.636364-11.636364v-23.272727c0-6.981818 4.654545-11.636364 11.636364-11.636364s11.636364 4.654545 11.636363 11.636364v23.272727c0 6.981818-4.654545 11.636364-11.636363 11.636364zM197.818182 861.090909c-6.981818 0-11.636364-4.654545-11.636364-11.636364v-23.272727c0-6.981818 4.654545-11.636364 11.636364-11.636363s11.636364 4.654545 11.636363 11.636363v23.272727c0 6.981818-4.654545 11.636364-11.636363 11.636364zM942.545455 674.909091c-6.981818 0-11.636364-4.654545-11.636364-11.636364v-69.818182c0-6.981818 4.654545-11.636364 11.636364-11.636363s11.636364 4.654545 11.636363 11.636363v69.818182c0 6.981818-4.654545 11.636364-11.636363 11.636364zM756.363636 791.272727c-6.981818 0-11.636364-4.654545-11.636363-11.636363v-116.363637c0-6.981818 4.654545-11.636364 11.636363-11.636363s11.636364 4.654545 11.636364 11.636363v116.363637c0 6.981818-4.654545 11.636364-11.636364 11.636363zM453.818182 977.454545c-6.981818 0-11.636364-4.654545-11.636364-11.636363v-116.363637c0-6.981818 4.654545-11.636364 11.636364-11.636363s11.636364 4.654545 11.636363 11.636363v116.363637c0 6.981818-4.654545 11.636364-11.636363 11.636363zM616.727273 907.636364c-6.981818 0-11.636364-4.654545-11.636364-11.636364v-69.818182c0-6.981818 4.654545-11.636364 11.636364-11.636363s11.636364 4.654545 11.636363 11.636363v69.818182c0 6.981818-4.654545 11.636364-11.636363 11.636364zM128 954.181818c-6.981818 0-11.636364-4.654545-11.636364-11.636363v-69.818182c0-6.981818 4.654545-11.636364 11.636364-11.636364s11.636364 4.654545 11.636364 11.636364v69.818182c0 6.981818-4.654545 11.636364-11.636364 11.636363zM290.909091 837.818182c-6.981818 0-11.636364-4.654545-11.636364-11.636364v-116.363636c0-6.981818 4.654545-11.636364 11.636364-11.636364s11.636364 4.654545 11.636364 11.636364v116.363636c0 6.981818-4.654545 11.636364-11.636364 11.636364z" fill="#0B3A5B" p-id="39187"></path><path d="M837.818182 209.454545c-9.309091 0-18.618182 0-27.927273 2.327273C788.945455 104.727273 695.854545 23.272727 581.818182 23.272727c-41.890909 0-81.454545 11.636364-116.363637 30.254546-37.236364 20.945455-69.818182 53.527273-90.763636 93.090909C349.090909 128 316.509091 116.363636 279.272727 116.363636c-90.763636 0-162.909091 72.145455-162.909091 162.909091 0 9.309091 0 16.290909 2.327273 25.6C65.163636 314.181818 23.272727 360.727273 23.272727 418.909091c0 65.163636 51.2 116.363636 116.363637 116.363636h698.181818c90.763636 0 162.909091-72.145455 162.909091-162.909091s-72.145455-162.909091-162.909091-162.909091z" fill="#FFFFFF" p-id="39188"></path><path d="M721.454545 228.072727c18.618182-13.963636 39.563636-25.6 60.509091-32.581818-23.272727-76.8-88.436364-132.654545-169.890909-146.618182C674.909091 83.781818 719.127273 151.272727 721.454545 228.072727zM909.963636 253.672727c13.963636 20.945455 20.945455 46.545455 20.945455 72.145455 0 46.545455-23.272727 88.436364-58.181818 114.036363-23.272727 16.290909-51.2 25.6-81.454546 25.6H276.945455c-25.6 0-44.218182-20.945455-44.218182-46.545454 0-46.545455-32.581818-83.781818-76.8-90.763636 18.618182 16.290909 30.254545 39.563636 30.254545 67.490909s-11.636364 53.527273-32.581818 69.818181c-16.290909 13.963636-37.236364 23.272727-60.509091 23.272728-4.654545 0-11.636364 0-16.290909-2.327273 13.963636 13.963636 34.909091 23.272727 55.854545 23.272727H837.818182c30.254545 0 58.181818-9.309091 81.454545-25.6C954.181818 460.8 977.454545 418.909091 977.454545 372.363636c0-51.2-27.927273-95.418182-67.490909-118.690909z" fill="#DCE4EE" p-id="39189"></path><path d="M837.818182 558.545455c102.4 0 186.181818-83.781818 186.181818-186.181819s-83.781818-186.181818-186.181818-186.181818h-9.309091C798.254545 76.8 698.181818 0 581.818182 0c-44.218182 0-88.436364 11.636364-128 34.909091-34.909091 18.618182-65.163636 46.545455-86.109091 81.454545-27.927273-13.963636-58.181818-23.272727-88.436364-23.272727-102.4 0-186.181818 83.781818-186.181818 186.181818v6.981818c-55.854545 18.618182-93.090909 72.145455-93.090909 132.654546 0 69.818182 51.2 125.672727 116.363636 137.309091v65.163636c0 9.309091-4.654545 18.618182-9.309091 25.6l-41.890909 41.890909c-11.636364 9.309091-18.618182 25.6-18.618181 39.563637v41.890909c-13.963636 4.654545-23.272727 18.618182-23.272728 32.581818 0 18.618182 16.290909 34.909091 34.909091 34.909091S93.090909 821.527273 93.090909 802.909091c0-16.290909-9.309091-27.927273-23.272727-32.581818v-41.890909c0-9.309091 4.654545-18.618182 9.309091-25.6l41.890909-41.890909c11.636364-9.309091 18.618182-25.6 18.618182-39.563637V558.545455h46.545454v141.963636c-13.963636 4.654545-23.272727 18.618182-23.272727 32.581818 0 18.618182 16.290909 34.909091 34.909091 34.909091s34.909091-16.290909 34.909091-34.909091c0-16.290909-9.309091-27.927273-23.272728-32.581818V558.545455h581.818182v16.290909c0 16.290909 6.981818 30.254545 16.290909 41.890909l41.890909 41.890909c6.981818 6.981818 9.309091 16.290909 9.309091 25.6v53.527273c0 9.309091-4.654545 18.618182-9.309091 25.6l-18.618181 18.618181c-9.309091 9.309091-16.290909 25.6-16.290909 39.563637v18.618182c-13.963636 4.654545-23.272727 18.618182-23.272728 32.581818 0 18.618182 16.290909 34.909091 34.909091 34.909091s34.909091-16.290909 34.909091-34.909091c0-16.290909-9.309091-27.927273-23.272727-32.581818v-18.618182c0-9.309091 4.654545-18.618182 9.309091-25.6l18.618182-18.618182c11.636364-11.636364 16.290909-25.6 16.290909-41.890909v-53.527273c0-16.290909-6.981818-30.254545-16.290909-41.890909l-41.89091-41.890909c-6.981818-6.981818-9.309091-16.290909-9.30909-25.6V558.545455h23.272727zM58.181818 814.545455c-6.981818 0-11.636364-4.654545-11.636363-11.636364s4.654545-11.636364 11.636363-11.636364 11.636364 4.654545 11.636364 11.636364-4.654545 11.636364-11.636364 11.636364z m768 69.818181c-6.981818 0-11.636364-4.654545-11.636363-11.636363s4.654545-11.636364 11.636363-11.636364 11.636364 4.654545 11.636364 11.636364-4.654545 11.636364-11.636364 11.636363z m-628.363636-139.636363c-6.981818 0-11.636364-4.654545-11.636364-11.636364s4.654545-11.636364 11.636364-11.636364 11.636364 4.654545 11.636363 11.636364-4.654545 11.636364-11.636363 11.636364zM139.636364 512c-51.2 0-93.090909-41.890909-93.090909-93.090909 0-44.218182 32.581818-83.781818 76.8-90.763636 4.654545-2.327273 11.636364-2.327273 16.290909-2.327273 37.236364 0 69.818182 20.945455 86.109091 55.854545 4.654545 11.636364 18.618182 16.290909 30.254545 11.636364 11.636364-4.654545 16.290909-18.618182 11.636364-30.254546-23.272727-51.2-72.145455-83.781818-128-83.781818 0-76.8 62.836364-139.636364 139.636363-139.636363 27.927273 0 55.854545 9.309091 81.454546 25.6 18.618182 13.963636 34.909091 32.581818 46.545454 53.527272 2.327273 9.309091 11.636364 13.963636 18.618182 13.963637 2.327273 0 6.981818 0 9.309091-2.327273 11.636364-4.654545 16.290909-18.618182 11.636364-30.254545-9.309091-20.945455-25.6-39.563636-41.890909-55.854546 18.618182-27.927273 41.890909-51.2 72.145454-69.818182C509.672727 55.854545 544.581818 46.545455 581.818182 46.545455c93.090909 0 174.545455 60.509091 200.145454 148.945454-41.890909 13.963636-79.127273 41.890909-104.727272 81.454546-6.981818 11.636364-2.327273 25.6 6.981818 32.581818 4.654545 2.327273 6.981818 2.327273 11.636363 2.327272 6.981818 0 16.290909-4.654545 20.945455-11.636363 20.945455-34.909091 55.854545-58.181818 97.745455-65.163637 2.327273 0 6.981818 0 9.30909-2.327272h13.963637c76.8 0 139.636364 62.836364 139.636363 139.636363s-62.836364 139.636364-139.636363 139.636364H139.636364z" fill="#0B3A5B" p-id="39190"></path><path d="M512 512m-209.454545 0a209.454545 209.454545 0 1 0 418.90909 0 209.454545 209.454545 0 1 0-418.90909 0Z" fill="#F5B445" p-id="39191"></path><path d="M721.454545 956.509091v-100.072727c0-16.290909-6.981818-30.254545-16.290909-41.890909l-65.163636-65.163637c-6.981818-6.981818-9.309091-16.290909-9.309091-25.6v-11.636363c69.818182-39.563636 116.363636-116.363636 116.363636-200.145455 0-128-104.727273-232.727273-232.727272-232.727273s-232.727273 104.727273-232.727273 232.727273c0 104.727273 67.490909 190.836364 162.909091 221.090909-2.327273 6.981818-4.654545 11.636364-9.309091 16.290909L346.763636 837.818182c-11.636364 11.636364-16.290909 25.6-16.290909 41.890909v53.527273c-13.963636 4.654545-23.272727 18.618182-23.272727 32.581818 0 18.618182 16.290909 34.909091 34.909091 34.909091s34.909091-16.290909 34.909091-34.909091c0-16.290909-9.309091-27.927273-23.272727-32.581818v-53.527273c0-9.309091 4.654545-18.618182 9.30909-25.6l88.436364-88.436364c6.981818-6.981818 11.636364-16.290909 13.963636-27.927272 16.290909 2.327273 32.581818 4.654545 48.872728 4.654545 6.981818 0 16.290909 0 23.272727-2.327273v165.236364c-13.963636 4.654545-23.272727 18.618182-23.272727 32.581818 0 18.618182 16.290909 34.909091 34.909091 34.909091s34.909091-16.290909 34.909091-34.909091c0-16.290909-9.309091-27.927273-23.272728-32.581818v-169.890909c16.290909-2.327273 32.581818-9.309091 46.545455-13.963637 0 16.290909 6.981818 30.254545 16.290909 41.89091l65.163636 65.163636c6.981818 6.981818 9.309091 16.290909 9.309091 25.6V954.181818c-13.963636 4.654545-23.272727 18.618182-23.272727 32.581818 0 18.618182 16.290909 34.909091 34.909091 34.909091s34.909091-16.290909 34.909091-34.909091c0-13.963636-9.309091-25.6-23.272728-30.254545z m-384 20.945454c-6.981818 0-11.636364-4.654545-11.636363-11.636363s4.654545-11.636364 11.636363-11.636364 11.636364 4.654545 11.636364 11.636364-4.654545 11.636364-11.636364 11.636363z m209.454546-23.272727c-6.981818 0-11.636364-4.654545-11.636364-11.636363s4.654545-11.636364 11.636364-11.636364 11.636364 4.654545 11.636364 11.636364-4.654545 11.636364-11.636364 11.636363zM325.818182 512c0-102.4 83.781818-186.181818 186.181818-186.181818s186.181818 83.781818 186.181818 186.181818-83.781818 186.181818-186.181818 186.181818-186.181818-83.781818-186.181818-186.181818z m384 488.727273c-6.981818 0-11.636364-4.654545-11.636364-11.636364s4.654545-11.636364 11.636364-11.636364 11.636364 4.654545 11.636363 11.636364-4.654545 11.636364-11.636363 11.636364z" fill="#0B3A5B" p-id="39192"></path><path d="M565.527273 335.127273l-232.727273 232.727272c13.963636 41.890909 41.890909 79.127273 79.127273 102.4l256-256c-23.272727-39.563636-58.181818-67.490909-102.4-79.127272zM512 698.181818c102.4 0 186.181818-83.781818 186.181818-186.181818 0-13.963636-2.327273-30.254545-4.654545-44.218182l-223.418182 223.418182c11.636364 4.654545 27.927273 6.981818 41.890909 6.981818z" fill="#FFCB5B" p-id="39193"></path><path d="M595.781818 500.363636c4.654545-11.636364 9.309091-23.272727 9.309091-34.909091 0-39.563636-30.254545-69.818182-69.818182-69.818181 0-13.963636-9.309091-23.272727-23.272727-23.272728s-23.272727 9.309091-23.272727 23.272728h-46.545455c-13.963636 0-23.272727 9.309091-23.272727 23.272727s9.309091 23.272727 23.272727 23.272727v139.636364c-13.963636 0-23.272727 9.309091-23.272727 23.272727s9.309091 23.272727 23.272727 23.272727h46.545455c0 13.963636 9.309091 23.272727 23.272727 23.272728s23.272727-9.309091 23.272727-23.272728h23.272728c39.563636 0 69.818182-30.254545 69.818181-69.818181 0-25.6-13.963636-46.545455-32.581818-58.181819zM535.272727 442.181818c13.963636 0 23.272727 9.309091 23.272728 23.272727s-9.309091 23.272727-23.272728 23.272728h-46.545454v-46.545455h46.545454z m23.272728 139.636364h-69.818182v-46.545455h69.818182c13.963636 0 23.272727 9.309091 23.272727 23.272728s-9.309091 23.272727-23.272727 23.272727z" fill="#0B3A5B" p-id="39194"></path></svg>