<?xml version="1.0" standalone="no"?><!DOCTYPE svg PUBLIC "-//W3C//DTD SVG 1.1//EN" "http://www.w3.org/Graphics/SVG/1.1/DTD/svg11.dtd"><svg t="1680927809158" class="icon" viewBox="0 0 1024 1024" version="1.1" xmlns="http://www.w3.org/2000/svg" p-id="39979" xmlns:xlink="http://www.w3.org/1999/xlink" width="200" height="200"><path d="M372.363636 768h488.727273v69.818182H372.363636z" fill="#F5B445" p-id="39980"></path><path d="M372.363636 768h488.727273v23.272727H372.363636z" fill="#FFCB5B" p-id="39981"></path><path d="M372.363636 768v69.818182h146.618182c23.272727-20.945455 44.218182-44.218182 60.509091-69.818182H372.363636z" fill="#E99C35" p-id="39982"></path><path d="M579.490909 768H372.363636v23.272727h190.836364c6.981818-6.981818 11.636364-16.290909 16.290909-23.272727z" fill="#F5B445" p-id="39983"></path><path d="M884.363636 721.454545H349.090909c-13.963636 0-23.272727 9.309091-23.272727 23.272728v116.363636c0 13.963636 9.309091 23.272727 23.272727 23.272727h535.272727c13.963636 0 23.272727-9.309091 23.272728-23.272727v-116.363636c0-13.963636-9.309091-23.272727-23.272728-23.272728z m-23.272727 116.363637h-46.545454v-34.909091c0-6.981818-4.654545-11.636364-11.636364-11.636364s-11.636364 4.654545-11.636364 11.636364V837.818182h-69.818182v-34.909091c0-6.981818-4.654545-11.636364-11.636363-11.636364s-11.636364 4.654545-11.636364 11.636364V837.818182h-69.818182v-34.909091c0-6.981818-4.654545-11.636364-11.636363-11.636364s-11.636364 4.654545-11.636364 11.636364V837.818182h-69.818182v-34.909091c0-6.981818-4.654545-11.636364-11.636363-11.636364s-11.636364 4.654545-11.636364 11.636364V837.818182h-69.818182v-34.909091c0-6.981818-4.654545-11.636364-11.636363-11.636364s-11.636364 4.654545-11.636364 11.636364V837.818182h-46.545455v-69.818182h488.727273v69.818182z" fill="#0B3A5B" p-id="39984"></path><path d="M488.727273 651.636364h488.727272v69.818181H488.727273z" fill="#F5B445" p-id="39985"></path><path d="M488.727273 651.636364h488.727272v23.272727H488.727273z" fill="#FFCB5B" p-id="39986"></path><path d="M623.709091 651.636364H535.272727v69.818181h69.818182c9.309091-20.945455 16.290909-46.545455 18.618182-69.818181z" fill="#E99C35" p-id="39987"></path><path d="M619.054545 674.909091c2.327273-6.981818 4.654545-16.290909 4.654546-23.272727H535.272727v23.272727h83.781818z" fill="#F5B445" p-id="39988"></path><path d="M1000.727273 605.090909H465.454545c-13.963636 0-23.272727 9.309091-23.272727 23.272727v116.363637c0 13.963636 9.309091 23.272727 23.272727 23.272727h535.272728c13.963636 0 23.272727-9.309091 23.272727-23.272727v-116.363637c0-13.963636-9.309091-23.272727-23.272727-23.272727z m-23.272728 116.363636h-46.545454v-34.90909c0-6.981818-4.654545-11.636364-11.636364-11.636364s-11.636364 4.654545-11.636363 11.636364V721.454545h-69.818182v-34.90909c0-6.981818-4.654545-11.636364-11.636364-11.636364s-11.636364 4.654545-11.636363 11.636364V721.454545h-69.818182v-34.90909c0-6.981818-4.654545-11.636364-11.636364-11.636364s-11.636364 4.654545-11.636364 11.636364V721.454545h-69.818181v-34.90909c0-6.981818-4.654545-11.636364-11.636364-11.636364s-11.636364 4.654545-11.636364 11.636364V721.454545h-69.818181v-34.90909c0-6.981818-4.654545-11.636364-11.636364-11.636364s-11.636364 4.654545-11.636364 11.636364V721.454545h-46.545454v-69.818181h488.727272v69.818181z" fill="#0B3A5B" p-id="39989"></path><path d="M418.909091 535.272727h488.727273v69.818182H418.909091z" fill="#F5B445" p-id="39990"></path><path d="M418.909091 535.272727h488.727273v23.272728H418.909091z" fill="#FFCB5B" p-id="39991"></path><path d="M512 535.272727v69.818182h116.363636c0-23.272727-2.327273-46.545455-9.309091-69.818182H512z" fill="#E99C35" p-id="39992"></path><path d="M623.709091 558.545455c-2.327273-6.981818-2.327273-16.290909-4.654546-23.272728H512v23.272728h111.709091z" fill="#F5B445" p-id="39993"></path><path d="M930.909091 488.727273H395.636364c-13.963636 0-23.272727 9.309091-23.272728 23.272727v116.363636c0 13.963636 9.309091 23.272727 23.272728 23.272728h535.272727c13.963636 0 23.272727-9.309091 23.272727-23.272728v-116.363636c0-13.963636-9.309091-23.272727-23.272727-23.272727z m-23.272727 116.363636h-46.545455v-34.909091c0-6.981818-4.654545-11.636364-11.636364-11.636363s-11.636364 4.654545-11.636363 11.636363V605.090909h-69.818182v-34.909091c0-6.981818-4.654545-11.636364-11.636364-11.636363s-11.636364 4.654545-11.636363 11.636363V605.090909h-69.818182v-34.909091c0-6.981818-4.654545-11.636364-11.636364-11.636363s-11.636364 4.654545-11.636363 11.636363V605.090909h-69.818182v-34.909091c0-6.981818-4.654545-11.636364-11.636364-11.636363s-11.636364 4.654545-11.636363 11.636363V605.090909h-69.818182v-34.909091c0-6.981818-4.654545-11.636364-11.636364-11.636363s-11.636364 4.654545-11.636364 11.636363V605.090909h-46.545454v-69.818182h488.727273v69.818182z" fill="#0B3A5B" p-id="39994"></path><path d="M465.454545 418.909091h488.727273v69.818182H465.454545z" fill="#F5B445" p-id="39995"></path><path d="M977.454545 372.363636H442.181818c-13.963636 0-23.272727 9.309091-23.272727 23.272728v116.363636c0 13.963636 9.309091 23.272727 23.272727 23.272727h535.272727c13.963636 0 23.272727-9.309091 23.272728-23.272727v-116.363636c0-13.963636-9.309091-23.272727-23.272728-23.272728z m-23.272727 116.363637h-46.545454v-34.909091c0-6.981818-4.654545-11.636364-11.636364-11.636364s-11.636364 4.654545-11.636364 11.636364V488.727273h-69.818181v-34.909091c0-6.981818-4.654545-11.636364-11.636364-11.636364s-11.636364 4.654545-11.636364 11.636364V488.727273h-69.818182v-34.909091c0-6.981818-4.654545-11.636364-11.636363-11.636364s-11.636364 4.654545-11.636364 11.636364V488.727273h-69.818182v-34.909091c0-6.981818-4.654545-11.636364-11.636363-11.636364s-11.636364 4.654545-11.636364 11.636364V488.727273h-69.818182v-34.909091c0-6.981818-4.654545-11.636364-11.636363-11.636364s-11.636364 4.654545-11.636364 11.636364V488.727273h-46.545455v-69.818182h488.727273v69.818182z" fill="#0B3A5B" p-id="39996"></path><path d="M465.454545 418.909091h488.727273v23.272727H465.454545z" fill="#FFCB5B" p-id="39997"></path><path d="M563.2 418.909091H465.454545v69.818182h139.636364c-11.636364-25.6-25.6-48.872727-41.890909-69.818182z" fill="#E99C35" p-id="39998"></path><path d="M563.2 418.909091H465.454545v23.272727h114.036364c-4.654545-6.981818-9.309091-16.290909-16.290909-23.272727z" fill="#F5B445" p-id="39999"></path><path d="M442.181818 186.181818h488.727273v69.818182H442.181818z" fill="#F5B445" p-id="40000"></path><path d="M954.181818 139.636364H418.909091c-13.963636 0-23.272727 9.309091-23.272727 23.272727v116.363636c0 13.963636 9.309091 23.272727 23.272727 23.272728h535.272727c13.963636 0 23.272727-9.309091 23.272727-23.272728V162.909091c0-13.963636-9.309091-23.272727-23.272727-23.272727z m-23.272727 116.363636h-46.545455V221.090909c0-6.981818-4.654545-11.636364-11.636363-11.636364s-11.636364 4.654545-11.636364 11.636364V256h-69.818182V221.090909c0-6.981818-4.654545-11.636364-11.636363-11.636364s-11.636364 4.654545-11.636364 11.636364V256h-69.818182V221.090909c0-6.981818-4.654545-11.636364-11.636363-11.636364s-11.636364 4.654545-11.636364 11.636364V256h-69.818182V221.090909c0-6.981818-4.654545-11.636364-11.636364-11.636364s-11.636364 4.654545-11.636363 11.636364V256h-69.818182V221.090909c0-6.981818-4.654545-11.636364-11.636364-11.636364s-11.636364 4.654545-11.636363 11.636364V256h-46.545455V186.181818h488.727273v69.818182z" fill="#0B3A5B" p-id="40001"></path><path d="M442.181818 186.181818h488.727273v23.272727H442.181818z" fill="#FFCB5B" p-id="40002"></path><path d="M372.363636 302.545455h488.727273v69.818181H372.363636z" fill="#F5B445" p-id="40003"></path><path d="M884.363636 256H349.090909c-13.963636 0-23.272727 9.309091-23.272727 23.272727v116.363637c0 13.963636 9.309091 23.272727 23.272727 23.272727h535.272727c13.963636 0 23.272727-9.309091 23.272728-23.272727v-116.363637c0-13.963636-9.309091-23.272727-23.272728-23.272727z m-23.272727 116.363636h-46.545454v-34.909091c0-6.981818-4.654545-11.636364-11.636364-11.636363s-11.636364 4.654545-11.636364 11.636363V372.363636h-69.818182v-34.909091c0-6.981818-4.654545-11.636364-11.636363-11.636363s-11.636364 4.654545-11.636364 11.636363V372.363636h-69.818182v-34.909091c0-6.981818-4.654545-11.636364-11.636363-11.636363s-11.636364 4.654545-11.636364 11.636363V372.363636h-69.818182v-34.909091c0-6.981818-4.654545-11.636364-11.636363-11.636363s-11.636364 4.654545-11.636364 11.636363V372.363636h-69.818182v-34.909091c0-6.981818-4.654545-11.636364-11.636363-11.636363s-11.636364 4.654545-11.636364 11.636363V372.363636h-46.545455v-69.818181h488.727273v69.818181z" fill="#0B3A5B" p-id="40004"></path><path d="M372.363636 302.545455h488.727273v23.272727H372.363636z" fill="#FFCB5B" p-id="40005"></path><path d="M302.545455 581.818182m-256 0a256 256 0 1 0 512 0 256 256 0 1 0-512 0Z" fill="#F5B445" p-id="40006"></path><path d="M302.545455 884.363636C134.981818 884.363636 0 749.381818 0 581.818182s134.981818-302.545455 302.545455-302.545455 302.545455 134.981818 302.545454 302.545455-134.981818 302.545455-302.545454 302.545454z m0-558.545454C160.581818 325.818182 46.545455 439.854545 46.545455 581.818182s114.036364 256 256 256 256-114.036364 256-256-114.036364-256-256-256z" fill="#0B3A5B" p-id="40007"></path><path d="M153.6 788.945455l356.072727-356.072728c-25.6-34.909091-60.509091-62.836364-100.072727-81.454545L69.818182 691.2c18.618182 39.563636 48.872727 72.145455 83.781818 97.745455zM302.545455 837.818182c141.963636 0 256-114.036364 256-256 0-34.909091-6.981818-67.490909-18.618182-97.745455L204.8 819.2c30.254545 11.636364 62.836364 18.618182 97.745455 18.618182z" fill="#FFCB5B" p-id="40008"></path><path d="M302.545455 581.818182m-186.181819 0a186.181818 186.181818 0 1 0 372.363637 0 186.181818 186.181818 0 1 0-372.363637 0Z" fill="#FFCB5B" p-id="40009"></path><path d="M302.545455 395.636364c102.4 0 186.181818 83.781818 186.181818 186.181818s-83.781818 186.181818-186.181818 186.181818-186.181818-83.781818-186.181819-186.181818 83.781818-186.181818 186.181819-186.181818m0-23.272728c-116.363636 0-209.454545 93.090909-209.454546 209.454546s93.090909 209.454545 209.454546 209.454545 209.454545-93.090909 209.454545-209.454545-93.090909-209.454545-209.454545-209.454546z" fill="#0B3A5B" p-id="40010"></path><path d="M139.636364 605.090909c0-102.4 83.781818-186.181818 186.181818-186.181818 46.545455 0 86.109091 16.290909 118.690909 44.218182-32.581818-41.890909-83.781818-67.490909-141.963636-67.490909-102.4 0-186.181818 83.781818-186.181819 186.181818 0 58.181818 25.6 109.381818 67.490909 141.963636C155.927273 691.2 139.636364 651.636364 139.636364 605.090909z" fill="#F6B545" p-id="40011"></path><path d="M356.072727 404.945455l-232.727272 232.727272c13.963636 41.890909 41.890909 79.127273 79.127272 102.4l256-256c-23.272727-39.563636-58.181818-67.490909-102.4-79.127272z" fill="#FFE27A" p-id="40012"></path><path d="M342.109091 418.909091c39.563636 2.327273 74.472727 18.618182 104.727273 41.890909-23.272727-27.927273-53.527273-46.545455-88.436364-58.181818l-16.290909 16.290909zM183.854545 723.781818c-23.272727-27.927273-39.563636-65.163636-41.890909-104.727273l-16.290909 16.29091c9.309091 34.909091 30.254545 67.490909 58.181818 88.436363z" fill="#FFCB5B" p-id="40013"></path><path d="M302.545455 768c102.4 0 186.181818-83.781818 186.181818-186.181818 0-13.963636-2.327273-30.254545-4.654546-44.218182l-223.418182 223.418182c11.636364 4.654545 27.927273 6.981818 41.89091 6.981818z" fill="#FFE27A" p-id="40014"></path><path d="M386.327273 570.181818c4.654545-11.636364 9.309091-23.272727 9.309091-34.909091 0-39.563636-30.254545-69.818182-69.818182-69.818182 0-13.963636-9.309091-23.272727-23.272727-23.272727s-23.272727 9.309091-23.272728 23.272727h-46.545454c-13.963636 0-23.272727 9.309091-23.272728 23.272728s9.309091 23.272727 23.272728 23.272727v139.636364c-13.963636 0-23.272727 9.309091-23.272728 23.272727s9.309091 23.272727 23.272728 23.272727h46.545454c0 13.963636 9.309091 23.272727 23.272728 23.272727s23.272727-9.309091 23.272727-23.272727h23.272727c39.563636 0 69.818182-30.254545 69.818182-69.818182 0-25.6-13.963636-46.545455-32.581818-58.181818zM325.818182 512c13.963636 0 23.272727 9.309091 23.272727 23.272727s-9.309091 23.272727-23.272727 23.272728h-46.545455v-46.545455h46.545455z m23.272727 139.636364h-69.818182v-46.545455h69.818182c13.963636 0 23.272727 9.309091 23.272727 23.272727s-9.309091 23.272727-23.272727 23.272728z" fill="#0B3A5B" p-id="40015"></path></svg>