<?xml version="1.0" standalone="no"?><!DOCTYPE svg PUBLIC "-//W3C//DTD SVG 1.1//EN" "http://www.w3.org/Graphics/SVG/1.1/DTD/svg11.dtd"><svg t="1680930386032" class="icon" viewBox="0 0 1024 1024" version="1.1" xmlns="http://www.w3.org/2000/svg" p-id="16786" xmlns:xlink="http://www.w3.org/1999/xlink" width="200" height="200"><path d="M971.4432 218.5472V93.2096H456.5504V491.008h514.8928z" fill="#999998" p-id="16787"></path><path d="M456.5504 491.008v339.456h514.8928V491.008z" fill="#919190" p-id="16788"></path><path d="M927.36 176.4096h-125.3376V51.072H412.4672V491.008h514.8928z" fill="#FEFEFE" p-id="16789"></path><path d="M412.4672 491.008h514.8928v297.3184H412.4672z" fill="#E5E5DF" p-id="16790"></path><path d="M802.0224 176.4096h125.3376l-125.3376-125.3376zM505.344 223.6672h329.1136v26.3424H505.344zM505.344 320.2304h329.1136v26.3424H505.344zM461.2608 416.768h329.1136v26.3424H461.2608z" fill="#DDDDDD" p-id="16791"></path><path d="M254.4128 15.8976A15.8976 15.8976 0 0 0 238.4896 0h-155.136a15.8976 15.8976 0 0 0-15.8976 15.8976V256l186.9568-186.9568V15.8976zM160.9216 111.104a36.4544 36.4544 0 1 1 0-72.9088 36.4544 36.4544 0 0 1 0 72.9088z" fill="#EF7E3F" p-id="16792"></path><path d="M67.456 256v235.008h186.9568V69.0432z" fill="#E06A2F" p-id="16793"></path><path d="M67.456 624.5376c0 8.8064 7.1168 15.9232 15.8976 15.9232h155.136a15.8976 15.8976 0 0 0 15.8976-15.9232V491.008H67.456v133.5296z" fill="#E2692D" p-id="16794"></path><path d="M160.9216 115.0976c22.2976 0 40.448-18.1248 40.448-40.448 0-22.2976-18.1248-40.448-40.448-40.448-22.2976 0-40.448 18.1504-40.448 40.448 0 22.2976 18.1504 40.448 40.448 40.448z m0-72.9344a32.512 32.512 0 1 1-32.4864 32.4864c0-17.92 14.592-32.4864 32.4864-32.4864zM100.608 154.4704v68.3776L168.96 154.4704z" fill="#F0EFE7" p-id="16795"></path><path d="M100.608 222.848V491.008h125.952V154.4704H168.96zM100.608 491.008h125.9776v83.8144H100.608z" fill="#E2E0D7" p-id="16796"></path><path d="M100.608 195.584v7.9616h19.3024l7.9616-7.9616z" fill="#DBD8C8" p-id="16797"></path><path d="M119.9104 203.5456H226.56V195.584H127.872z" fill="#C6C1AB" p-id="16798"></path><path d="M422.5536 54.0416a15.8976 15.8976 0 0 0-18.9184-12.16l-151.6032 33.024a15.9232 15.9232 0 0 0-12.16 18.944l86.5024 397.1584h191.36L422.5536 54.0416z m-71.0912 112.9216a36.48 36.48 0 1 1-15.5136-71.296 36.48 36.48 0 0 1 15.5136 71.296z" fill="#3B97F6" p-id="16799"></path><path d="M517.7344 491.008h-191.36l43.008 197.5296a15.9232 15.9232 0 0 0 18.944 12.16l151.6032-33.024a15.9232 15.9232 0 0 0 12.16-18.944l-34.3552-157.7216z" fill="#278DD8" p-id="16800"></path><path d="M352.3328 170.8544a40.4992 40.4992 0 0 1-48.128-30.8992 40.4992 40.4992 0 0 1 30.8992-48.128 40.448 40.448 0 0 1 17.2288 79.0272z m-15.5392-71.2448a32.512 32.512 0 0 0 13.824 63.488 32.512 32.512 0 0 0-13.824-63.488z" fill="#F0EFE7" p-id="16801"></path><path d="M360.32 491.008l30.8992 141.9008 123.0592-26.8288-25.0624-115.072z" fill="#E2E0D7" p-id="16802"></path><path d="M424.832 195.3792l-123.0848 26.8032 58.5728 268.8256h128.896z" fill="#F0EFE7" p-id="16803"></path><path d="M310.528 262.3488l123.0848-26.8032 1.6896 7.7824-123.1104 26.8032z" fill="#DBD8C8" p-id="16804"></path><path d="M461.2608 513.3056h329.1136v26.3424H461.2608zM461.2608 609.8688h329.1136v26.3424H461.2608z" fill="#DDDDDD" p-id="16805"></path><path d="M466.688 502.8352H43.904v15.488h936.192v-15.488h-421.12zM43.904 518.3232v478.976c0 14.6944 12.032 26.7008 26.7008 26.7008h882.7904c14.6688 0 26.6752-12.0064 26.6752-26.6752v-478.976H43.904z" fill="#FFD38E" p-id="16806"></path><path d="M43.904 518.3232v478.976c0 14.6944 12.032 26.7008 26.7008 26.7008h882.7904c14.6688 0 26.6752-12.0064 26.6752-26.6752v-478.976H43.904z" fill="#EFB86F" p-id="16807"></path><path d="M653.2864 766.0032a6.2208 6.2208 0 0 1-6.2208 6.2208H376.9344a6.2208 6.2208 0 0 1-6.2208-6.2208v-99.584c0-3.4304 2.7904-6.2208 6.2208-6.2208h270.1312c3.4304 0 6.2208 2.7904 6.2208 6.2208v99.584z" fill="#EF7E3F" p-id="16808"></path></svg>