<?xml version="1.0" standalone="no"?><!DOCTYPE svg PUBLIC "-//W3C//DTD SVG 1.1//EN" "http://www.w3.org/Graphics/SVG/1.1/DTD/svg11.dtd"><svg t="1680927785901" class="icon" viewBox="0 0 1024 1024" version="1.1" xmlns="http://www.w3.org/2000/svg" p-id="39659" xmlns:xlink="http://www.w3.org/1999/xlink" width="200" height="200"><path d="M779.636364 139.636364c-6.981818 0-11.636364-4.654545-11.636364-11.636364v-69.818182c0-6.981818 4.654545-11.636364 11.636364-11.636363s11.636364 4.654545 11.636363 11.636363v69.818182c0 6.981818-4.654545 11.636364-11.636363 11.636364zM896 1000.727273c-6.981818 0-11.636364-4.654545-11.636364-11.636364v-46.545454c0-6.981818 4.654545-11.636364 11.636364-11.636364s11.636364 4.654545 11.636364 11.636364v46.545454c0 6.981818-4.654545 11.636364-11.636364 11.636364zM896 139.636364c-6.981818 0-11.636364-4.654545-11.636364-11.636364v-46.545455c0-6.981818 4.654545-11.636364 11.636364-11.636363s11.636364 4.654545 11.636364 11.636363v46.545455c0 6.981818-4.654545 11.636364-11.636364 11.636364zM989.090909 837.818182c-6.981818 0-11.636364-4.654545-11.636364-11.636364v-116.363636c0-6.981818 4.654545-11.636364 11.636364-11.636364s11.636364 4.654545 11.636364 11.636364v116.363636c0 6.981818-4.654545 11.636364-11.636364 11.636364zM989.090909 349.090909c-6.981818 0-11.636364-4.654545-11.636364-11.636364v-69.818181c0-6.981818 4.654545-11.636364 11.636364-11.636364s11.636364 4.654545 11.636364 11.636364v69.818181c0 6.981818-4.654545 11.636364-11.636364 11.636364z" fill="#0B3A5B" p-id="39660"></path><path d="M139.636364 139.636364H69.818182c-25.6 0-46.545455 20.945455-46.545455 46.545454v744.727273c0 25.6 20.945455 46.545455 46.545455 46.545454h139.636363V302.545455l158.254546-162.909091H139.636364z" fill="#D5E3EE" p-id="39661"></path><path d="M367.709091 116.363636H69.818182C30.254545 116.363636 0 146.618182 0 186.181818v744.727273c0 39.563636 30.254545 69.818182 69.818182 69.818182h139.636363c13.963636 0 23.272727-9.309091 23.272728-23.272728s-9.309091-23.272727-23.272728-23.272727H139.636364c-13.963636 0-23.272727-9.309091-23.272728-23.272727V186.181818c0-13.963636 9.309091-23.272727 23.272728-23.272727h228.072727c13.963636 0 23.272727-9.309091 23.272727-23.272727s-9.309091-23.272727-23.272727-23.272728zM74.472727 954.181818H69.818182c-13.963636 0-23.272727-9.309091-23.272727-23.272727V186.181818c0-13.963636 9.309091-23.272727 23.272727-23.272727h4.654545c-2.327273 6.981818-4.654545 13.963636-4.654545 23.272727v744.727273c0 9.309091 2.327273 16.290909 4.654545 23.272727z" fill="#0B3A5B" p-id="39662"></path><path d="M209.454545 977.454545h465.454546c25.6 0 46.545455-20.945455 46.545454-46.545454V186.181818c0-25.6-20.945455-46.545455-46.545454-46.545454H367.709091c-11.636364 0-23.272727 4.654545-32.581818 13.963636l-158.254546 158.254545c-9.309091 9.309091-13.963636 20.945455-13.963636 32.581819V930.909091c0 25.6 20.945455 46.545455 46.545454 46.545454z" fill="#EDF1F9" p-id="39663"></path><path d="M332.8 372.363636h-11.636364L186.181818 349.090909l162.909091-23.272727 23.272727-139.636364 20.945455 109.381818c0 4.654545 2.327273 9.309091 2.327273 11.636364 0 37.236364-27.927273 65.163636-62.836364 65.163636z" fill="#B0C4D8" p-id="39664"></path><path d="M674.909091 116.363636h-46.545455V93.090909c0-39.563636-30.254545-69.818182-69.818181-69.818182s-69.818182 30.254545-69.818182 69.818182v23.272727h-121.018182c-18.618182 0-37.236364 6.981818-48.872727 20.945455l-158.254546 158.254545c-13.963636 13.963636-20.945455 30.254545-20.945454 48.872728V930.909091c0 39.563636 30.254545 69.818182 69.818181 69.818182h465.454546c39.563636 0 69.818182-30.254545 69.818182-69.818182V186.181818c0-39.563636-30.254545-69.818182-69.818182-69.818182z m-139.636364-23.272727c0-13.963636 9.309091-23.272727 23.272728-23.272727s23.272727 9.309091 23.272727 23.272727v23.272727h-46.545455V93.090909z m-209.454545 102.4V279.272727c0 13.963636-9.309091 23.272727-23.272727 23.272728H218.763636L325.818182 195.490909zM698.181818 930.909091c0 13.963636-9.309091 23.272727-23.272727 23.272727H209.454545c-13.963636 0-23.272727-9.309091-23.272727-23.272727V372.363636c0-13.963636 9.309091-23.272727 23.272727-23.272727h93.09091c39.563636 0 69.818182-30.254545 69.818181-69.818182V186.181818c0-13.963636 9.309091-23.272727 23.272728-23.272727h186.181818v139.636364c0 13.963636-9.309091 23.272727-23.272727 23.272727s-23.272727-9.309091-23.272728-23.272727v-69.818182c0-13.963636-9.309091-23.272727-23.272727-23.272728s-23.272727 9.309091-23.272727 23.272728v69.818182c0 39.563636 30.254545 69.818182 69.818182 69.818181s69.818182-30.254545 69.818181-69.818181V162.909091h46.545455c13.963636 0 23.272727 9.309091 23.272727 23.272727v744.727273z" fill="#0B3A5B" p-id="39665"></path><path d="M256 477.090909c0-6.981818 4.654545-11.636364 11.636364-11.636364h139.636363c6.981818 0 11.636364 4.654545 11.636364 11.636364s-4.654545 11.636364-11.636364 11.636364h-139.636363c-6.981818 0-11.636364-4.654545-11.636364-11.636364zM395.636364 616.727273c0-6.981818 4.654545-11.636364 11.636363-11.636364h139.636364c6.981818 0 11.636364 4.654545 11.636364 11.636364s-4.654545 11.636364-11.636364 11.636363h-139.636364c-6.981818 0-11.636364-4.654545-11.636363-11.636363zM465.454545 523.636364c0-6.981818 4.654545-11.636364 11.636364-11.636364h139.636364c6.981818 0 11.636364 4.654545 11.636363 11.636364s-4.654545 11.636364-11.636363 11.636363h-139.636364c-6.981818 0-11.636364-4.654545-11.636364-11.636363zM256 756.363636c0-6.981818 4.654545-11.636364 11.636364-11.636363h139.636363c6.981818 0 11.636364 4.654545 11.636364 11.636363s-4.654545 11.636364-11.636364 11.636364h-139.636363c-6.981818 0-11.636364-4.654545-11.636364-11.636364zM256 616.727273c0-6.981818 4.654545-11.636364 11.636364-11.636364h93.090909c6.981818 0 11.636364 4.654545 11.636363 11.636364s-4.654545 11.636364-11.636363 11.636363h-93.090909c-6.981818 0-11.636364-4.654545-11.636364-11.636363zM256 709.818182c0-6.981818 4.654545-11.636364 11.636364-11.636364h93.090909c6.981818 0 11.636364 4.654545 11.636363 11.636364s-4.654545 11.636364-11.636363 11.636363h-93.090909c-6.981818 0-11.636364-4.654545-11.636364-11.636363zM442.181818 756.363636c0-6.981818 4.654545-11.636364 11.636364-11.636363h93.090909c6.981818 0 11.636364 4.654545 11.636364 11.636363s-4.654545 11.636364-11.636364 11.636364h-93.090909c-6.981818 0-11.636364-4.654545-11.636364-11.636364zM256 523.636364c0-6.981818 4.654545-11.636364 11.636364-11.636364h162.909091c6.981818 0 11.636364 4.654545 11.636363 11.636364s-4.654545 11.636364-11.636363 11.636363h-162.909091c-6.981818 0-11.636364-4.654545-11.636364-11.636363zM349.090909 570.181818c0-6.981818 4.654545-11.636364 11.636364-11.636363h162.909091c6.981818 0 11.636364 4.654545 11.636363 11.636363s-4.654545 11.636364-11.636363 11.636364h-162.909091c-6.981818 0-11.636364-4.654545-11.636364-11.636364zM256 663.272727c0-6.981818 4.654545-11.636364 11.636364-11.636363h162.909091c6.981818 0 11.636364 4.654545 11.636363 11.636363s-4.654545 11.636364-11.636363 11.636364h-162.909091c-6.981818 0-11.636364-4.654545-11.636364-11.636364zM442.181818 477.090909c0-6.981818 4.654545-11.636364 11.636364-11.636364h69.818182c6.981818 0 11.636364 4.654545 11.636363 11.636364s-4.654545 11.636364-11.636363 11.636364h-69.818182c-6.981818 0-11.636364-4.654545-11.636364-11.636364zM372.363636 407.272727c0-6.981818 4.654545-11.636364 11.636364-11.636363h116.363636c6.981818 0 11.636364 4.654545 11.636364 11.636363s-4.654545 11.636364-11.636364 11.636364h-116.363636c-6.981818 0-11.636364-4.654545-11.636364-11.636364zM256 570.181818c0-6.981818 4.654545-11.636364 11.636364-11.636363h46.545454c6.981818 0 11.636364 4.654545 11.636364 11.636363s-4.654545 11.636364-11.636364 11.636364h-46.545454c-6.981818 0-11.636364-4.654545-11.636364-11.636364zM465.454545 709.818182c0-6.981818 4.654545-11.636364 11.636364-11.636364h46.545455c6.981818 0 11.636364 4.654545 11.636363 11.636364s-4.654545 11.636364-11.636363 11.636363h-46.545455c-6.981818 0-11.636364-4.654545-11.636364-11.636363zM558.545455 663.272727c0-6.981818 4.654545-11.636364 11.636363-11.636363h23.272727c6.981818 0 11.636364 4.654545 11.636364 11.636363s-4.654545 11.636364-11.636364 11.636364h-23.272727c-6.981818 0-11.636364-4.654545-11.636363-11.636364zM349.090909 872.727273c0-6.981818 4.654545-11.636364 11.636364-11.636364h23.272727c6.981818 0 11.636364 4.654545 11.636364 11.636364s-4.654545 11.636364-11.636364 11.636363h-23.272727c-6.981818 0-11.636364-4.654545-11.636364-11.636363zM395.636364 709.818182c0-6.981818 4.654545-11.636364 11.636363-11.636364h23.272728c6.981818 0 11.636364 4.654545 11.636363 11.636364s-4.654545 11.636364-11.636363 11.636363h-23.272728c-6.981818 0-11.636364-4.654545-11.636363-11.636363zM558.545455 570.181818c0-6.981818 4.654545-11.636364 11.636363-11.636363h46.545455c6.981818 0 11.636364 4.654545 11.636363 11.636363s-4.654545 11.636364-11.636363 11.636364h-46.545455c-6.981818 0-11.636364-4.654545-11.636363-11.636364zM256 872.727273c0-6.981818 4.654545-11.636364 11.636364-11.636364h46.545454c6.981818 0 11.636364 4.654545 11.636364 11.636364s-4.654545 11.636364-11.636364 11.636363h-46.545454c-6.981818 0-11.636364-4.654545-11.636364-11.636363zM465.454545 663.272727c0-6.981818 4.654545-11.636364 11.636364-11.636363h46.545455c6.981818 0 11.636364 4.654545 11.636363 11.636363s-4.654545 11.636364-11.636363 11.636364h-46.545455c-6.981818 0-11.636364-4.654545-11.636364-11.636364z" fill="#577280" p-id="39666"></path><path d="M558.545455 907.636364c-51.2 0-93.090909-41.890909-93.09091-93.090909s41.890909-93.090909 93.09091-93.09091 93.090909 41.890909 93.090909 93.09091-41.890909 93.090909-93.090909 93.090909z m0-139.636364c-25.6 0-46.545455 20.945455-46.545455 46.545455s20.945455 46.545455 46.545455 46.545454 46.545455-20.945455 46.545454-46.545454-20.945455-46.545455-46.545454-46.545455z" fill="#F16B56" p-id="39667"></path><path d="M558.545455 814.545455m-23.272728 0a23.272727 23.272727 0 1 0 46.545455 0 23.272727 23.272727 0 1 0-46.545455 0Z" fill="#F16B56" p-id="39668"></path><path d="M814.545455 535.272727m-186.181819 0a186.181818 186.181818 0 1 0 372.363637 0 186.181818 186.181818 0 1 0-372.363637 0Z" fill="#FFCB5B" p-id="39669"></path><path d="M1024 535.272727c0-72.145455-37.236364-137.309091-93.090909-174.545454v-97.745455c0-9.309091 4.654545-18.618182 9.309091-25.6l41.890909-41.890909c11.636364-9.309091 18.618182-25.6 18.618182-39.563636V114.036364c13.963636-4.654545 23.272727-18.618182 23.272727-32.581819 0-18.618182-16.290909-34.909091-34.909091-34.90909S954.181818 62.836364 954.181818 81.454545c0 16.290909 9.309091 27.927273 23.272727 32.581819v41.890909c0 9.309091-4.654545 18.618182-9.30909 25.6l-41.89091 41.890909c-11.636364 9.309091-18.618182 25.6-18.618181 39.563636v83.781818c-13.963636-6.981818-30.254545-13.963636-46.545455-16.290909V230.4c13.963636-4.654545 23.272727-18.618182 23.272727-32.581818 0-18.618182-16.290909-34.909091-34.909091-34.909091S814.545455 179.2 814.545455 197.818182c0 16.290909 9.309091 27.927273 23.272727 32.581818v97.745455c-6.981818 0-16.290909-2.327273-23.272727-2.327273-116.363636 0-209.454545 93.090909-209.454546 209.454545s93.090909 209.454545 209.454546 209.454546v141.963636c-13.963636 4.654545-23.272727 18.618182-23.272728 32.581818 0 18.618182 16.290909 34.909091 34.909091 34.909091s34.909091-16.290909 34.909091-34.909091c0-16.290909-9.309091-27.927273-23.272727-32.581818v-144.290909c16.290909-2.327273 32.581818-4.654545 46.545454-11.636364v51.2c0 16.290909 6.981818 30.254545 16.290909 41.890909l41.89091 41.89091c6.981818 6.981818 9.309091 16.290909 9.30909 25.6v41.890909c-13.963636 4.654545-23.272727 18.618182-23.272727 32.581818 0 18.618182 16.290909 34.909091 34.909091 34.909091s34.909091-16.290909 34.909091-34.909091c0-16.290909-9.309091-27.927273-23.272727-32.581818v-41.890909c0-16.290909-6.981818-30.254545-16.290909-41.89091l-41.890909-41.890909c-6.981818-6.981818-9.309091-16.290909-9.309091-25.6V721.454545c69.818182-32.581818 116.363636-104.727273 116.363636-186.181818zM989.090909 69.818182c6.981818 0 11.636364 4.654545 11.636364 11.636363s-4.654545 11.636364-11.636364 11.636364-11.636364-4.654545-11.636364-11.636364 4.654545-11.636364 11.636364-11.636363z m-139.636364 116.363636c6.981818 0 11.636364 4.654545 11.636364 11.636364s-4.654545 11.636364-11.636364 11.636363-11.636364-4.654545-11.636363-11.636363 4.654545-11.636364 11.636363-11.636364z m-23.272727 744.727273c-6.981818 0-11.636364-4.654545-11.636363-11.636364s4.654545-11.636364 11.636363-11.636363 11.636364 4.654545 11.636364 11.636363-4.654545 11.636364-11.636364 11.636364z m139.636364 46.545454c-6.981818 0-11.636364-4.654545-11.636364-11.636363s4.654545-11.636364 11.636364-11.636364 11.636364 4.654545 11.636363 11.636364-4.654545 11.636364-11.636363 11.636363zM651.636364 535.272727c0-90.763636 72.145455-162.909091 162.909091-162.909091s162.909091 72.145455 162.90909 162.909091-72.145455 162.909091-162.90909 162.909091-162.909091-72.145455-162.909091-162.909091z" fill="#0B3A5B" p-id="39670"></path><path d="M884.363636 512v-46.545455c0-39.563636-30.254545-69.818182-69.818181-69.818181s-69.818182 30.254545-69.818182 69.818181v46.545455c-13.963636 0-23.272727 9.309091-23.272728 23.272727v93.090909c0 13.963636 9.309091 23.272727 23.272728 23.272728h139.636363c13.963636 0 23.272727-9.309091 23.272728-23.272728v-93.090909c0-13.963636-9.309091-23.272727-23.272728-23.272727z m-69.818181 93.090909c-13.963636 0-23.272727-9.309091-23.272728-23.272727s9.309091-23.272727 23.272728-23.272727 23.272727 9.309091 23.272727 23.272727-9.309091 23.272727-23.272727 23.272727z m23.272727-93.090909h-46.545455v-46.545455c0-13.963636 9.309091-23.272727 23.272728-23.272727s23.272727 9.309091 23.272727 23.272727v46.545455z" fill="#0B3A5B" p-id="39671"></path></svg>