<?xml version="1.0" standalone="no"?><!DOCTYPE svg PUBLIC "-//W3C//DTD SVG 1.1//EN" "http://www.w3.org/Graphics/SVG/1.1/DTD/svg11.dtd"><svg t="1681227202886" class="icon" viewBox="0 0 1024 1024" version="1.1" xmlns="http://www.w3.org/2000/svg" p-id="7523" xmlns:xlink="http://www.w3.org/1999/xlink" width="200" height="200"><path d="M517.1712 510.72m-460.8 0a460.8 460.8 0 1 0 921.6 0 460.8 460.8 0 1 0-921.6 0Z" fill="#434341" p-id="7524"></path><path d="M599.808 633.1392A3.6352 3.6352 0 0 0 593.92 629.76c-12.4416 10.7008-39.4752 30.4128-69.9904 30.4128a203.264 203.264 0 0 1-75.5712-17.408 3.584 3.584 0 0 0-4.8128 4.5056c5.4784 14.9504 23.7568 46.08 80.5888 46.08s71.7824-40.704 75.6736-60.2112z" fill="#FBD180" p-id="7525"></path><path d="M792.1664 409.9584a282.5728 282.5728 0 0 0-549.9392 0 53.6576 53.6576 0 0 0-44.1856 52.8384v97.28a53.6576 53.6576 0 0 0 96.6144 32.1536 233.4208 233.4208 0 0 0 128 128.4608 3.6864 3.6864 0 0 0 3.6352-6.4c-39.168-29.5936-77.2608-77.2608-74.6496-150.3744 0-15.8208 15.8208-41.472 48.0768-46.08s179.2-1.9968 197.632-79.7184c3.9424-21.0944 2.0992-36.7616 15.36-25.9072 5.9392 5.12 51.6096 56.832 57.7536 141.1584 3.6864 50.7392-3.2768 105.984-40.96 146.5344a3.6864 3.6864 0 0 0 4.5056 5.7344 232.5504 232.5504 0 0 0 100.8128-121.6 54.1696 54.1696 0 0 0 29.0304 26.2144 196.5056 196.5056 0 0 1-52.6848 94.1568c-38.9632 38.0416-94.976 58.9824-166.656 62.4128a44.0832 44.0832 0 1 0 0.512 34.4064c80.8448-3.7376 144.7424-27.904 190.1568-72.192a232.0896 232.0896 0 0 0 63.744-117.76 53.7088 53.7088 0 0 0 37.5296-51.2v-97.28a53.6064 53.6064 0 0 0-44.288-52.8384z m-55.9616 25.9584a236.0832 236.0832 0 0 0-443.5456-7.8336A53.6576 53.6576 0 0 0 276.48 415.0784a248.2688 248.2688 0 0 1 481.7408 0 53.8624 53.8624 0 0 0-22.016 20.8384z" fill="#FBD180" p-id="7526"></path></svg>