<?xml version="1.0" standalone="no"?><!DOCTYPE svg PUBLIC "-//W3C//DTD SVG 1.1//EN" "http://www.w3.org/Graphics/SVG/1.1/DTD/svg11.dtd"><svg t="1680927817907" class="icon" viewBox="0 0 1024 1024" version="1.1" xmlns="http://www.w3.org/2000/svg" p-id="40153" xmlns:xlink="http://www.w3.org/1999/xlink" width="200" height="200"><path d="M872.727273 954.181818c-6.981818 0-11.636364-4.654545-11.636364-11.636363v-69.818182c0-6.981818 4.654545-11.636364 11.636364-11.636364s11.636364 4.654545 11.636363 11.636364v69.818182c0 6.981818-4.654545 11.636364-11.636363 11.636363zM989.090909 628.363636c-6.981818 0-11.636364-4.654545-11.636364-11.636363v-69.818182c0-6.981818 4.654545-11.636364 11.636364-11.636364s11.636364 4.654545 11.636364 11.636364v69.818182c0 6.981818-4.654545 11.636364-11.636364 11.636363zM558.545455 942.545455c0-6.981818 4.654545-11.636364 11.636363-11.636364h69.818182c6.981818 0 11.636364 4.654545 11.636364 11.636364s-4.654545 11.636364-11.636364 11.636363h-69.818182c-6.981818 0-11.636364-4.654545-11.636363-11.636363zM628.363636 896c0-6.981818 4.654545-11.636364 11.636364-11.636364h69.818182c6.981818 0 11.636364 4.654545 11.636363 11.636364s-4.654545 11.636364-11.636363 11.636364h-69.818182c-6.981818 0-11.636364-4.654545-11.636364-11.636364zM349.090909 81.454545c0-6.981818 4.654545-11.636364 11.636364-11.636363h69.818182c6.981818 0 11.636364 4.654545 11.636363 11.636363s-4.654545 11.636364-11.636363 11.636364h-69.818182c-6.981818 0-11.636364-4.654545-11.636364-11.636364zM58.181818 139.636364c-6.981818 0-11.636364-4.654545-11.636363-11.636364v-69.818182c0-6.981818 4.654545-11.636364 11.636363-11.636363s11.636364 4.654545 11.636364 11.636363v69.818182c0 6.981818-4.654545 11.636364-11.636364 11.636364zM942.545455 1000.727273c-6.981818 0-11.636364-4.654545-11.636364-11.636364v-139.636364c0-6.981818 4.654545-11.636364 11.636364-11.636363s11.636364 4.654545 11.636363 11.636363v139.636364c0 6.981818-4.654545 11.636364-11.636363 11.636364zM104.727273 372.363636c-6.981818 0-11.636364-4.654545-11.636364-11.636363v-139.636364c0-6.981818 4.654545-11.636364 11.636364-11.636364s11.636364 4.654545 11.636363 11.636364v139.636364c0 6.981818-4.654545 11.636364-11.636363 11.636363zM360.727273 162.909091h-46.545455c-6.981818 0-11.636364-4.654545-11.636363-11.636364s4.654545-11.636364 11.636363-11.636363h46.545455c6.981818 0 11.636364 4.654545 11.636363 11.636363s-4.654545 11.636364-11.636363 11.636364zM34.909091 465.454545c-6.981818 0-11.636364-4.654545-11.636364-11.636363v-116.363637c0-6.981818 4.654545-11.636364 11.636364-11.636363s11.636364 4.654545 11.636364 11.636363v116.363637c0 6.981818-4.654545 11.636364-11.636364 11.636363zM942.545455 628.363636c6.981818 0 11.636364 4.654545 11.636363 11.636364v116.363636c0 6.981818-4.654545 11.636364-11.636363 11.636364s-11.636364-4.654545-11.636364-11.636364v-116.363636c0-6.981818 4.654545-11.636364 11.636364-11.636364zM151.272727 0c6.981818 0 11.636364 4.654545 11.636364 11.636364v116.363636c0 6.981818-4.654545 11.636364-11.636364 11.636364S139.636364 134.981818 139.636364 128v-116.363636c0-6.981818 4.654545-11.636364 11.636363-11.636364z" fill="#0B3A5B" p-id="40154"></path><path d="M279.272727 744.727273m-256 0a256 256 0 1 0 512 0 256 256 0 1 0-512 0Z" fill="#B0C4D9" p-id="40155"></path><path d="M279.272727 1024C125.672727 1024 0 898.327273 0 744.727273s125.672727-279.272727 279.272727-279.272728 279.272727 125.672727 279.272728 279.272728-125.672727 279.272727-279.272728 279.272727z m0-512C151.272727 512 46.545455 616.727273 46.545455 744.727273s104.727273 232.727273 232.727272 232.727272 232.727273-104.727273 232.727273-232.727272-104.727273-232.727273-232.727273-232.727273z" fill="#0B3A5B" p-id="40156"></path><path d="M279.272727 744.727273m-186.181818 0a186.181818 186.181818 0 1 0 372.363636 0 186.181818 186.181818 0 1 0-372.363636 0Z" fill="#D5E3EF" p-id="40157"></path><path d="M279.272727 558.545455c102.4 0 186.181818 83.781818 186.181818 186.181818s-83.781818 186.181818-186.181818 186.181818-186.181818-83.781818-186.181818-186.181818 83.781818-186.181818 186.181818-186.181818m0-23.272728c-116.363636 0-209.454545 93.090909-209.454545 209.454546s93.090909 209.454545 209.454545 209.454545 209.454545-93.090909 209.454546-209.454545-93.090909-209.454545-209.454546-209.454546z" fill="#0B3A5B" p-id="40158"></path><path d="M332.8 567.854545l-232.727273 232.727273c13.963636 41.890909 41.890909 79.127273 79.127273 102.4l256-256c-23.272727-39.563636-58.181818-67.490909-102.4-79.127273zM279.272727 930.909091c102.4 0 186.181818-83.781818 186.181818-186.181818 0-13.963636-2.327273-30.254545-4.654545-44.218182l-223.418182 223.418182c11.636364 4.654545 27.927273 6.981818 41.890909 6.981818z" fill="#ECF0F9" p-id="40159"></path><path d="M363.054545 733.090909c4.654545-11.636364 9.309091-23.272727 9.309091-34.909091 0-39.563636-30.254545-69.818182-69.818181-69.818182 0-13.963636-9.309091-23.272727-23.272728-23.272727s-23.272727 9.309091-23.272727 23.272727H209.454545c-13.963636 0-23.272727 9.309091-23.272727 23.272728s9.309091 23.272727 23.272727 23.272727v139.636364c-13.963636 0-23.272727 9.309091-23.272727 23.272727s9.309091 23.272727 23.272727 23.272727h46.545455c0 13.963636 9.309091 23.272727 23.272727 23.272727s23.272727-9.309091 23.272728-23.272727h23.272727c39.563636 0 69.818182-30.254545 69.818182-69.818182 0-25.6-13.963636-46.545455-32.581819-58.181818zM302.545455 674.909091c13.963636 0 23.272727 9.309091 23.272727 23.272727s-9.309091 23.272727-23.272727 23.272727h-46.545455v-46.545454h46.545455z m23.272727 139.636364h-69.818182v-46.545455h69.818182c13.963636 0 23.272727 9.309091 23.272727 23.272727s-9.309091 23.272727-23.272727 23.272728z" fill="#0B3A5B" p-id="40160"></path><path d="M744.727273 279.272727m-256 0a256 256 0 1 0 512 0 256 256 0 1 0-512 0Z" fill="#3BB54A" p-id="40161"></path><path d="M744.727273 558.545455c-153.6 0-279.272727-125.672727-279.272728-279.272728S591.127273 0 744.727273 0s279.272727 125.672727 279.272727 279.272727-125.672727 279.272727-279.272727 279.272728z m0-512c-128 0-232.727273 104.727273-232.727273 232.727272s104.727273 232.727273 232.727273 232.727273 232.727273-104.727273 232.727272-232.727273S872.727273 46.545455 744.727273 46.545455z" fill="#0B3A5B" p-id="40162"></path><path d="M744.727273 279.272727m-186.181818 0a186.181818 186.181818 0 1 0 372.363636 0 186.181818 186.181818 0 1 0-372.363636 0Z" fill="#89C763" p-id="40163"></path><path d="M744.727273 93.090909c102.4 0 186.181818 83.781818 186.181818 186.181818s-83.781818 186.181818-186.181818 186.181818-186.181818-83.781818-186.181818-186.181818 83.781818-186.181818 186.181818-186.181818m0-23.272727c-116.363636 0-209.454545 93.090909-209.454546 209.454545s93.090909 209.454545 209.454546 209.454546 209.454545-93.090909 209.454545-209.454546-93.090909-209.454545-209.454545-209.454545z" fill="#0B3A5B" p-id="40164"></path><path d="M798.254545 102.4l-232.727272 232.727273c13.963636 41.890909 41.890909 79.127273 79.127272 102.4l256-256c-23.272727-39.563636-58.181818-67.490909-102.4-79.127273z" fill="#AED477" p-id="40165"></path><path d="M744.727273 465.454545c102.4 0 186.181818-83.781818 186.181818-186.181818 0-13.963636-2.327273-30.254545-4.654546-44.218182l-223.418181 223.418182c11.636364 4.654545 27.927273 6.981818 41.890909 6.981818z" fill="#AED477" p-id="40166"></path><path d="M768 256h-46.545455c-13.963636 0-23.272727-9.309091-23.272727-23.272727s9.309091-23.272727 23.272727-23.272728h69.818182c13.963636 0 23.272727-9.309091 23.272728-23.272727s-9.309091-23.272727-23.272728-23.272727h-23.272727c0-13.963636-9.309091-23.272727-23.272727-23.272727s-23.272727 9.309091-23.272728 23.272727c-39.563636 0-69.818182 30.254545-69.818181 69.818182s30.254545 69.818182 69.818181 69.818182h46.545455c13.963636 0 23.272727 9.309091 23.272727 23.272727s-9.309091 23.272727-23.272727 23.272727h-69.818182c-13.963636 0-23.272727 9.309091-23.272727 23.272727s9.309091 23.272727 23.272727 23.272728h23.272727c0 13.963636 9.309091 23.272727 23.272728 23.272727s23.272727-9.309091 23.272727-23.272727c39.563636 0 69.818182-30.254545 69.818182-69.818182s-30.254545-69.818182-69.818182-69.818182zM858.763636 712.145455l-46.545454-93.09091c-6.981818-16.290909-34.909091-16.290909-41.890909 0l-46.545455 93.09091c-4.654545 6.981818-2.327273 16.290909 0 23.272727s13.963636 9.309091 20.945455 9.309091h23.272727v209.454545c0 13.963636-9.309091 23.272727-23.272727 23.272727h-186.181818c-13.963636 0-23.272727 9.309091-23.272728 23.272728s9.309091 23.272727 23.272728 23.272727h186.181818c39.563636 0 69.818182-30.254545 69.818182-69.818182v-209.454545h23.272727c6.981818 0 16.290909-4.654545 20.945454-11.636364s2.327273-13.963636 0-20.945454zM465.454545 0h-186.181818c-39.563636 0-69.818182 30.254545-69.818182 69.818182v209.454545H186.181818c-6.981818 0-16.290909 4.654545-20.945454 11.636364s-4.654545 16.290909 0 23.272727l46.545454 93.090909c4.654545 6.981818 11.636364 11.636364 20.945455 11.636364s16.290909-4.654545 20.945454-13.963636l46.545455-93.09091c4.654545-6.981818 2.327273-16.290909 0-23.272727s-13.963636-9.309091-20.945455-9.309091h-23.272727V69.818182c0-13.963636 9.309091-23.272727 23.272727-23.272727h186.181818c13.963636 0 23.272727-9.309091 23.272728-23.272728s-9.309091-23.272727-23.272728-23.272727z" fill="#0B3A5B" p-id="40167"></path></svg>