<?xml version="1.0" standalone="no"?><!DOCTYPE svg PUBLIC "-//W3C//DTD SVG 1.1//EN" "http://www.w3.org/Graphics/SVG/1.1/DTD/svg11.dtd"><svg t="1680927841193" class="icon" viewBox="0 0 1026 1024" version="1.1" xmlns="http://www.w3.org/2000/svg" p-id="40603" xmlns:xlink="http://www.w3.org/1999/xlink" width="200.390625" height="200"><path d="M371.519274 536.380952L23.219955 884.680272v116.099773h116.099773l46.439909-46.439909 23.219955-69.659864h46.439909l23.219955-69.659864h46.439909l23.219955-69.659864h46.439909l92.879819-92.879818z" fill="#F5B445" p-id="40604"></path><path d="M394.739229 420.281179l-30.185941 30.185941c-9.287982 9.287982-16.253968 25.54195-16.253968 39.473923 0 13.931973 6.965986 30.185941 16.253968 39.473923l130.031746 130.031746c11.609977 11.609977 25.54195 16.253968 39.473923 16.253968 13.931973 0 30.185941-6.965986 39.473923-16.253968L603.718821 629.260771l-208.979592-208.979592z" fill="#F5B445" p-id="40605"></path><path d="M390.095238 457.433107c27.863946 81.269841 88.235828 148.60771 167.183674 185.759637l30.185941-30.185941 16.253968 16.253968-192.725624-192.725624-20.897959 20.89796z" fill="#F8A247" p-id="40606"></path><path d="M696.598639 327.401361m-301.85941 0a301.85941 301.85941 0 1 0 603.718821 0 301.85941 301.85941 0 1 0-603.718821 0Z" fill="#F5B445" p-id="40607"></path><path d="M940.408163 745.360544c-6.965986 0-11.609977-4.643991-11.609977-11.609977v-116.099773c0-6.965986 4.643991-11.609977 11.609977-11.609978s11.609977 4.643991 11.609978 11.609978v116.099773c0 6.965986-4.643991 11.609977-11.609978 11.609977zM46.439909 199.69161c0-6.965986 4.643991-11.609977 11.609978-11.609977h116.099773c6.965986 0 11.609977 4.643991 11.609977 11.609977s-4.643991 11.609977-11.609977 11.609977h-116.099773c-6.965986 0-11.609977-4.643991-11.609978-11.609977zM684.988662 965.950113c-6.965986 0-11.609977-4.643991-11.609977-11.609977v-116.099773c0-6.965986 4.643991-11.609977 11.609977-11.609978s11.609977 4.643991 11.609977 11.609978v116.099773c0 6.965986-4.643991 11.609977-11.609977 11.609977zM847.528345 896.290249c-6.965986 0-11.609977-4.643991-11.609978-11.609977v-69.659864c0-6.965986 4.643991-11.609977 11.609978-11.609977s11.609977 4.643991 11.609977 11.609977v69.659864c0 6.965986-4.643991 11.609977-11.609977 11.609977zM150.929705 373.84127h-69.659864c-6.965986 0-11.609977-4.643991-11.609977-11.609977s4.643991-11.609977 11.609977-11.609978h69.659864c6.965986 0 11.609977 4.643991 11.609978 11.609978s-4.643991 11.609977-11.609978 11.609977zM267.029478 513.160998h-46.439909c-6.965986 0-11.609977-4.643991-11.609977-11.609978s4.643991-11.609977 11.609977-11.609977h46.439909c6.965986 0 11.609977 4.643991 11.609978 11.609977s-4.643991 11.609977-11.609978 11.609978zM499.229025 873.070295c-6.965986 0-11.609977-4.643991-11.609977-11.609978v-116.099773c0-6.965986 4.643991-11.609977 11.609977-11.609977s11.609977 4.643991 11.609977 11.609977v116.099773c0 6.965986-4.643991 11.609977-11.609977 11.609978zM69.659864 571.210884c0-6.965986 4.643991-11.609977 11.609977-11.609977h116.099774c6.965986 0 11.609977 4.643991 11.609977 11.609977s-4.643991 11.609977-11.609977 11.609978h-116.099774c-6.965986 0-11.609977-4.643991-11.609977-11.609978z" fill="#0B3A5B" p-id="40608"></path><path d="M952.018141 933.442177v-99.845805c0-16.253968-6.965986-30.185941-16.253969-41.795918l-65.015873-65.015874c-6.965986-6.965986-9.287982-16.253968-9.287982-25.54195V606.040816c97.52381-55.727891 162.539683-160.217687 162.539683-280.961451 0-178.793651-146.285714-325.079365-325.079365-325.079365-76.62585 0-146.285714 25.54195-199.69161 69.659864H394.739229c-6.965986 0-11.609977 4.643991-11.609977 11.609977s4.643991 13.931973 11.609977 13.931973h74.303855c-20.897959 20.897959-39.473923 44.117914-53.405896 69.659864h-83.591837c-9.287982 0-18.575964-4.643991-25.54195-9.287982l-41.795918-41.795918C255.419501 102.1678 239.165533 95.201814 225.23356 95.201814h-18.575964c-4.643991-13.931973-16.253968-23.219955-32.507936-23.219955C155.573696 71.981859 139.319728 88.235828 139.319728 106.811791S155.573696 141.641723 174.14966 141.641723c16.253968 0 27.863946-9.287982 32.507936-23.219954h18.575964c9.287982 0 18.575964 4.643991 25.54195 9.287982l41.795919 41.795918c9.287982 11.609977 25.54195 18.575964 39.473922 18.575964h69.659864c-11.609977 20.897959-18.575964 44.117914-23.219954 69.659864H229.877551c-4.643991-13.931973-18.575964-23.219955-32.507936-23.219955-18.575964 0-34.829932 16.253968-34.829932 34.829932S178.793651 304.181406 197.369615 304.181406c16.253968 0 27.863946-9.287982 32.507936-23.219955h146.285714c-2.321995 16.253968-4.643991 30.185941-4.643991 46.43991h-74.303854c-16.253968 0-30.185941 6.965986-41.795919 16.253968l-111.455782 111.455782c-6.965986 6.965986-13.931973 11.609977-23.219955 11.609977H67.337868c-4.643991-13.931973-18.575964-23.219955-32.507936-23.219954-18.575964 0-34.829932 16.253968-34.829932 34.829932S16.253968 513.160998 34.829932 513.160998c16.253968 0 27.863946-9.287982 32.507936-23.219955h53.405896c16.253968 0 30.185941-6.965986 41.795919-16.253968l111.455782-111.455782c6.965986-6.965986 16.253968-9.287982 25.54195-9.287982h74.303855c2.321995 16.253968 4.643991 34.829932 6.965986 51.0839L348.29932 434.213152c-13.931973 13.931973-23.219955 34.829932-23.219955 55.727891 0 16.253968 4.643991 32.507937 13.931973 46.439909L6.965986 868.426304c-4.643991 4.643991-6.965986 9.287982-6.965986 16.253968v116.099773c0 13.931973 9.287982 23.219955 23.219955 23.219955h116.099773c6.965986 0 11.609977-2.321995 16.253968-6.965986l46.439909-46.43991c2.321995-2.321995 4.643991-4.643991 4.643991-9.287982l18.575964-53.405895H255.419501c9.287982 0 18.575964-6.965986 20.897959-16.253968l18.575964-53.405896H325.079365c9.287982 0 18.575964-6.965986 20.897959-16.253968l18.575964-53.405896H394.739229c6.965986 0 11.609977-2.321995 16.253968-6.965987l76.625851-76.62585c13.931973 9.287982 27.863946 13.931973 46.439909 13.931973 20.897959 0 41.795918-9.287982 55.727891-23.219955l32.507937-32.507936c16.253968 4.643991 34.829932 6.965986 51.0839 6.965986v51.0839c0 9.287982-4.643991 18.575964-9.287982 25.54195L575.854875 815.020408c-11.609977 11.609977-16.253968 25.54195-16.253968 41.795919v53.405895c-13.931973 4.643991-23.219955 18.575964-23.219955 32.507937 0 18.575964 16.253968 34.829932 34.829932 34.829932s34.829932-16.253968 34.829932-34.829932c0-16.253968-9.287982-27.863946-23.219954-32.507937v-53.405895c0-9.287982 4.643991-18.575964 9.287982-25.541951l88.235827-88.235827c11.609977-11.609977 16.253968-25.54195 16.253968-41.795919V652.480726c23.219955 0 46.439909-2.321995 69.659864-6.965987v241.487529c-13.931973 4.643991-23.219955 18.575964-23.219954 32.507936 0 18.575964 16.253968 34.829932 34.829932 34.829932s34.829932-16.253968 34.829932-34.829932c0-16.253968-9.287982-27.863946-23.219955-32.507936V638.548753c16.253968-4.643991 32.507937-11.609977 46.439909-18.575964v81.269841c0 16.253968 6.965986 30.185941 16.253969 41.795919l65.015873 65.015873c6.965986 6.965986 9.287982 16.253968 9.287981 25.54195v99.845805c-13.931973 4.643991-23.219955 18.575964-23.219954 32.507936 0 18.575964 16.253968 34.829932 34.829932 34.829932s34.829932-16.253968 34.829932-34.829932c2.321995-16.253968-6.965986-27.863946-20.897959-32.507936zM174.14966 118.421769c-6.965986 0-11.609977-4.643991-11.609977-11.609978s4.643991-11.609977 11.609977-11.609977 11.609977 4.643991 11.609977 11.609977-4.643991 11.609977-11.609977 11.609978z m23.219955 162.539682c-6.965986 0-11.609977-4.643991-11.609978-11.609977s4.643991-11.609977 11.609978-11.609977 11.609977 4.643991 11.609977 11.609977-4.643991 11.609977-11.609977 11.609977z m-162.539683 208.979592c-6.965986 0-11.609977-4.643991-11.609977-11.609977s4.643991-11.609977 11.609977-11.609978 11.609977 4.643991 11.609977 11.609978-4.643991 11.609977-11.609977 11.609977z m534.058957 464.399093c-6.965986 0-11.609977-4.643991-11.609977-11.609977s4.643991-11.609977 11.609977-11.609978 11.609977 4.643991 11.609977 11.609978-4.643991 11.609977-11.609977 11.609977z m208.979592-23.219955c-6.965986 0-11.609977-4.643991-11.609978-11.609977s4.643991-11.609977 11.609978-11.609977 11.609977 4.643991 11.609977 11.609977-4.643991 11.609977-11.609977 11.609977z m-392.417234-208.979591H348.29932c-9.287982 0-18.575964 6.965986-20.897959 16.253968l-18.575964 53.405896H278.639456c-9.287982 0-18.575964 6.965986-20.897959 16.253968l-18.575964 53.405895H208.979592c-9.287982 0-18.575964 6.965986-20.897959 16.253969l-20.89796 65.015873L130.031746 977.560091H46.439909v-83.591837l325.079365-325.079365 20.89796 20.897959L118.421769 863.782313c-4.643991 4.643991-4.643991 11.609977 0 16.253968 2.321995 4.643991 6.965986 4.643991 9.287982 4.643991s6.965986 0 9.287981-2.321995l273.995465-273.995465 44.117914 44.117914-69.659864 69.659864z m171.827665-78.947846c-6.965986 6.965986-13.931973 9.287982-23.219955 9.287982s-16.253968-2.321995-23.219955-9.287982L380.807256 513.160998c-6.965986-6.965986-9.287982-13.931973-9.287982-23.219955s2.321995-16.253968 9.287982-23.219955l16.253968-16.253968c32.507937 78.947846 97.52381 143.963719 176.471656 176.471656l-16.253968 16.253968zM417.959184 327.401361c0-153.251701 125.387755-278.639456 278.639455-278.639456s278.639456 125.387755 278.639456 278.639456-125.387755 278.639456-278.639456 278.639455-278.639456-125.387755-278.639455-278.639455z m522.448979 650.15873c-6.965986 0-11.609977-4.643991-11.609977-11.609978s4.643991-11.609977 11.609977-11.609977 11.609977 4.643991 11.609978 11.609977-4.643991 11.609977-11.609978 11.609978z" fill="#0B3A5B" p-id="40609"></path><path d="M545.668934 561.922902L931.120181 176.471655c-23.219955-37.151927-55.727891-67.337868-90.557823-88.235827L457.433107 471.365079c23.219955 37.151927 53.405896 67.337868 88.235827 90.557823zM601.396825 587.464853c30.185941 11.609977 62.693878 18.575964 95.201814 18.575963 153.251701 0 278.639456-125.387755 278.639456-278.639455 0-34.829932-6.965986-67.337868-18.575963-95.201815L601.396825 587.464853z" fill="#FFCB5B" p-id="40610"></path><path d="M696.598639 118.421769c116.099773 0 208.979592 92.879819 208.979592 208.979592s-92.879819 208.979592-208.979592 208.979591-208.979592-92.879819-208.979591-208.979591 92.879819-208.979592 208.979591-208.979592m0-23.219955c-127.709751 0-232.199546 104.489796-232.199546 232.199547s104.489796 232.199546 232.199546 232.199546 232.199546-104.489796 232.199547-232.199546S824.30839 95.201814 696.598639 95.201814z" fill="#0B3A5B" p-id="40611"></path><path d="M696.598639 536.380952c-116.099773 0-208.979592-92.879819-208.979591-208.979591s92.879819-208.979592 208.979591-208.979592 208.979592 92.879819 208.979592 208.979592-92.879819 208.979592-208.979592 208.979591z" fill="#FFCB5B" p-id="40612"></path><path d="M696.598639 536.380952c-116.099773 0-208.979592-92.879819-208.979591-208.979591s92.879819-208.979592 208.979591-208.979592 208.979592 92.879819 208.979592 208.979592-92.879819 208.979592-208.979592 208.979591z" fill="#FFCB5B" p-id="40613"></path><path d="M510.839002 350.621315c0-116.099773 92.879819-208.979592 208.979592-208.979592 51.0839 0 99.845805 18.575964 134.675737 51.083901C817.342404 146.285714 759.292517 118.421769 696.598639 118.421769c-116.099773 0-208.979592 92.879819-208.979591 208.979592 0 62.693878 27.863946 120.743764 74.303854 157.895691-32.507937-34.829932-51.0839-83.591837-51.0839-134.675737z" fill="#F5AE44" p-id="40614"></path><path d="M789.478458 139.319728l-278.639456 278.639456c18.575964 39.473923 51.0839 71.981859 88.235828 92.879818L880.036281 227.555556C859.138322 190.403628 826.630385 160.217687 789.478458 139.319728z" fill="#FFE27A" p-id="40615"></path><path d="M854.494331 192.725624c-18.575964-23.219955-39.473923-39.473923-65.015873-53.405896l-9.287982 9.287982c27.863946 9.287982 53.405896 23.219955 74.303855 44.117914zM561.922902 485.297052c-18.575964-23.219955-32.507937-48.761905-41.795918-76.62585l-11.609977 11.609977c13.931973 25.54195 30.185941 46.439909 53.405895 65.015873z" fill="#FFCB5B" p-id="40616"></path><path d="M696.598639 536.380952c116.099773 0 208.979592-92.879819 208.979592-208.979591 0-13.931973-2.321995-27.863946-4.643991-39.473923L657.124717 531.736961c11.609977 2.321995 25.54195 4.643991 39.473922 4.643991z" fill="#FFE27A" p-id="40617"></path><path d="M780.190476 315.791383c4.643991-11.609977 9.287982-23.219955 9.287982-34.829932 0-39.473923-30.185941-69.659864-69.659864-69.659864 0-13.931973-9.287982-23.219955-23.219955-23.219954s-23.219955 9.287982-23.219954 23.219954h-46.439909c-13.931973 0-23.219955 9.287982-23.219955 23.219955s9.287982 23.219955 23.219955 23.219955v139.319727c-13.931973 0-23.219955 9.287982-23.219955 23.219955s9.287982 23.219955 23.219955 23.219955h46.439909c0 13.931973 9.287982 23.219955 23.219954 23.219954s23.219955-9.287982 23.219955-23.219954h23.219955c39.473923 0 69.659864-30.185941 69.659864-69.659864 0-25.54195-13.931973-46.439909-32.507937-58.049887zM719.818594 257.741497c13.931973 0 23.219955 9.287982 23.219955 23.219954s-9.287982 23.219955-23.219955 23.219955h-46.439909v-46.439909h46.439909z m23.219955 139.319727h-69.659864v-46.439909h69.659864c13.931973 0 23.219955 9.287982 23.219954 23.219955s-9.287982 23.219955-23.219954 23.219954z" fill="#0B3A5B" p-id="40618"></path></svg>