<?xml version="1.0" standalone="no"?><!DOCTYPE svg PUBLIC "-//W3C//DTD SVG 1.1//EN" "http://www.w3.org/Graphics/SVG/1.1/DTD/svg11.dtd"><svg t="1680788630032" class="icon" viewBox="0 0 1024 1024" version="1.1" xmlns="http://www.w3.org/2000/svg" p-id="4032" xmlns:xlink="http://www.w3.org/1999/xlink" width="200" height="200"><path d="M0 0m184.32 0l655.36 0q184.32 0 184.32 184.32l0 655.36q0 184.32-184.32 184.32l-655.36 0q-184.32 0-184.32-184.32l0-655.36q0-184.32 184.32-184.32Z" fill="#FF6734" p-id="4033"></path><path d="M716.8 225.28a81.92 81.92 0 1 0 81.92 81.92 82.01216 82.01216 0 0 0-81.92-81.92m0-71.68a153.6 153.6 0 1 1-153.6 153.6 153.6 153.6 0 0 1 153.6-153.6z" fill="#FFFFFF" p-id="4034"></path><path d="M450.56 163.84a112.64 112.64 0 1 0 112.64 112.64 112.76288 112.76288 0 0 0-112.64-112.64m0-71.68a184.32 184.32 0 1 1-184.32 184.32 184.32 184.32 0 0 1 184.32-184.32z" fill="#FFFFFF" p-id="4035"></path><path d="M532.48 563.2a81.92 81.92 0 0 0-81.92 81.92v92.16a81.92 81.92 0 0 0 81.92 81.92h194.56a81.92 81.92 0 0 0 81.92-81.92v-92.16a81.92 81.92 0 0 0-81.92-81.92h-194.56m0-71.68h194.56a153.77408 153.77408 0 0 1 153.6 153.6v92.16a153.77408 153.77408 0 0 1-153.6 153.6h-194.56a153.77408 153.77408 0 0 1-153.6-153.6v-92.16a153.77408 153.77408 0 0 1 153.6-153.6z" fill="#FFFFFF" p-id="4036"></path><path d="M373.44256 691.2a20.28544 20.28544 0 0 0-10.32192-17.77664l-117.44256-67.11296a20.48 20.48 0 0 0-30.63808 17.77664v134.22592a20.48 20.48 0 0 0 30.63808 17.77664l117.44256-67.11296a20.28544 20.28544 0 0 0 10.32192-17.77664m71.68 0a92.3648 92.3648 0 0 1-46.4384 80.01536l-117.44256 67.11296A92.16 92.16 0 0 1 143.36 758.31296v-134.22592a92.16 92.16 0 0 1 137.8816-80.01536l117.44256 67.11296a92.3648 92.3648 0 0 1 46.4384 80.01536z" fill="#FFFFFF" p-id="4037"></path></svg>