<?xml version="1.0" standalone="no"?><!DOCTYPE svg PUBLIC "-//W3C//DTD SVG 1.1//EN" "http://www.w3.org/Graphics/SVG/1.1/DTD/svg11.dtd"><svg t="1680927834379" class="icon" viewBox="0 0 1024 1024" version="1.1" xmlns="http://www.w3.org/2000/svg" p-id="40457" xmlns:xlink="http://www.w3.org/1999/xlink" width="200" height="200"><path d="M791.272727 930.909091H232.727273c-25.6 0-46.545455-20.945455-46.545455-46.545455V512c0-25.6 20.945455-46.545455 46.545455-46.545455h558.545454c25.6 0 46.545455 20.945455 46.545455 46.545455v372.363636c0 25.6-20.945455 46.545455-46.545455 46.545455z" fill="#4C9CD6" p-id="40458"></path><path d="M791.272727 488.727273v372.363636c0 13.963636-9.309091 23.272727-23.272727 23.272727H209.454545c0 13.963636 9.309091 23.272727 23.272728 23.272728h558.545454c13.963636 0 23.272727-9.309091 23.272728-23.272728V512c0-13.963636-9.309091-23.272727-23.272728-23.272727z" fill="#3689C9" p-id="40459"></path><path d="M512 23.272727c-128 0-232.727273 104.727273-232.727273 232.727273v162.909091h93.090909v-162.909091c0-76.8 62.836364-139.636364 139.636364-139.636364s139.636364 62.836364 139.636364 139.636364v162.909091h93.090909v-162.909091c0-128-104.727273-232.727273-232.727273-232.727273z" fill="#D3E2EB" p-id="40460"></path><path d="M523.636364 46.545455H512c-116.363636 0-209.454545 93.090909-209.454545 209.454545v162.909091h23.272727v-162.909091c0-111.709091 88.436364-202.472727 197.818182-209.454545zM535.272727 93.090909h-11.636363c83.781818 6.981818 151.272727 76.8 151.272727 162.909091v162.909091h23.272727v-162.909091c0-90.763636-72.145455-162.909091-162.909091-162.909091z" fill="#FFFFFF" p-id="40461"></path><path d="M721.454545 1000.727273H302.545455c-25.6 0-46.545455-20.945455-46.545455-46.545455v-23.272727h512v23.272727c0 25.6-20.945455 46.545455-46.545455 46.545455z" fill="#676A75" p-id="40462"></path><path d="M651.636364 977.454545h69.818181c13.963636 0 23.272727-9.309091 23.272728-23.272727h-93.090909v23.272727z" fill="#585B67" p-id="40463"></path><path d="M595.781818 686.545455c4.654545-11.636364 9.309091-23.272727 9.309091-34.909091 0-39.563636-30.254545-69.818182-69.818182-69.818182 0-13.963636-9.309091-23.272727-23.272727-23.272727s-23.272727 9.309091-23.272727 23.272727h-46.545455c-13.963636 0-23.272727 9.309091-23.272727 23.272727s9.309091 23.272727 23.272727 23.272727v139.636364c-13.963636 0-23.272727 9.309091-23.272727 23.272727s9.309091 23.272727 23.272727 23.272728h46.545455c0 13.963636 9.309091 23.272727 23.272727 23.272727s23.272727-9.309091 23.272727-23.272727h23.272728c39.563636 0 69.818182-30.254545 69.818181-69.818182 0-25.6-13.963636-46.545455-32.581818-58.181818zM535.272727 628.363636c13.963636 0 23.272727 9.309091 23.272728 23.272728s-9.309091 23.272727-23.272728 23.272727h-46.545454v-46.545455h46.545454z m23.272728 139.636364h-69.818182v-46.545455h69.818182c13.963636 0 23.272727 9.309091 23.272727 23.272728s-9.309091 23.272727-23.272727 23.272727z" fill="#0B3A5B" p-id="40464"></path><path d="M791.272727 442.181818c0-13.963636-9.309091-23.272727-23.272727-23.272727v-162.909091c0-141.963636-114.036364-256-256-256S256 114.036364 256 256v162.909091c-13.963636 0-23.272727 9.309091-23.272727 23.272727-39.563636 0-69.818182 30.254545-69.818182 69.818182v372.363636c0 39.563636 30.254545 69.818182 69.818182 69.818182 0 39.563636 30.254545 69.818182 69.818182 69.818182h418.90909c39.563636 0 69.818182-30.254545 69.818182-69.818182 39.563636 0 69.818182-30.254545 69.818182-69.818182V512c0-39.563636-30.254545-69.818182-69.818182-69.818182z m-488.727272-186.181818c0-116.363636 93.090909-209.454545 209.454545-209.454545s209.454545 93.090909 209.454545 209.454545v162.909091h-46.545454v-162.909091c0-90.763636-72.145455-162.909091-162.909091-162.909091s-162.909091 72.145455-162.909091 162.909091v162.909091h-46.545454v-162.909091z m302.545454 186.181818h-186.181818c0-13.963636-9.309091-23.272727-23.272727-23.272727v-162.909091c0-65.163636 51.2-116.363636 116.363636-116.363636s116.363636 51.2 116.363636 116.363636v162.909091c-13.963636 0-23.272727 9.309091-23.272727 23.272727z m116.363636 535.272727H302.545455c-13.963636 0-23.272727-9.309091-23.272728-23.272727h465.454546c0 13.963636-9.309091 23.272727-23.272728 23.272727z m93.09091-442.181818h-104.727273c-6.981818 0-11.636364 4.654545-11.636364 11.636364s4.654545 11.636364 11.636364 11.636364H814.545455v69.818181h-104.727273c-6.981818 0-11.636364 4.654545-11.636364 11.636364s4.654545 11.636364 11.636364 11.636364H814.545455v69.818181h-104.727273c-6.981818 0-11.636364 4.654545-11.636364 11.636364s4.654545 11.636364 11.636364 11.636364H814.545455v69.818182h-104.727273c-6.981818 0-11.636364 4.654545-11.636364 11.636363s4.654545 11.636364 11.636364 11.636364H814.545455v46.545454c0 13.963636-9.309091 23.272727-23.272728 23.272728H232.727273c-13.963636 0-23.272727-9.309091-23.272728-23.272728v-46.545454h104.727273c6.981818 0 11.636364-4.654545 11.636364-11.636364s-4.654545-11.636364-11.636364-11.636363H209.454545v-69.818182h104.727273c6.981818 0 11.636364-4.654545 11.636364-11.636364s-4.654545-11.636364-11.636364-11.636364H209.454545v-69.818181h104.727273c6.981818 0 11.636364-4.654545 11.636364-11.636364s-4.654545-11.636364-11.636364-11.636364H209.454545v-69.818181h104.727273c6.981818 0 11.636364-4.654545 11.636364-11.636364s-4.654545-11.636364-11.636364-11.636364H209.454545v-23.272727c0-13.963636 9.309091-23.272727 23.272728-23.272727h558.545454c13.963636 0 23.272727 9.309091 23.272728 23.272727v23.272727z" fill="#0B3A5B" p-id="40465"></path></svg>