<?xml version="1.0" standalone="no"?><!DOCTYPE svg PUBLIC "-//W3C//DTD SVG 1.1//EN" "http://www.w3.org/Graphics/SVG/1.1/DTD/svg11.dtd"><svg t="1680789013134" class="icon" viewBox="0 0 1024 1024" version="1.1" xmlns="http://www.w3.org/2000/svg" p-id="7919" xmlns:xlink="http://www.w3.org/1999/xlink" width="200" height="200"><path d="M0 0m184.318157 0l655.353446 0q184.318157 0 184.318157 184.318157l0 655.353446q0 184.318157-184.318157 184.318157l-655.353446 0q-184.318157 0-184.318157-184.318157l0-655.353446q0-184.318157 184.318157-184.318157Z" fill="#FFFFFF" p-id="7920"></path><path d="M475.356526 749.099709a40.95959 40.95959 0 0 1 73.266468 0l107.815882 215.611284a40.95959 40.95959 0 0 1-36.638354 59.278767h-215.611284a40.95959 40.95959 0 0 1-36.638354-59.278767z" fill="#B4CDE6" p-id="7921"></path><path d="M116.325237 833.04639h251.461165L231.247608 1023.98976H184.318157a185.270467 185.270467 0 0 1-178.174218-137.03031z" fill="#C9E4FF" p-id="7922"></path><path d="M338.664133 717.161468h113.345427l-73.286947 99.173409h-227.796762z" fill="#EEEEEE" p-id="7923"></path><path d="M0 853.085869l283.645164-136.538794H0z" fill="#EEEEEE" p-id="7924"></path><path d="M907.654283 833.04639h-251.430445L792.742153 1023.98976H839.671603a185.270467 185.270467 0 0 0 178.174219-137.03031z" fill="#CBFFCB" p-id="7925"></path><path d="M685.346107 717.161468H572.00068l73.327907 99.173409h227.755802z" fill="#EEEEEE" p-id="7926"></path><path d="M1024.02048 853.085869l-283.645164-136.538794h283.645164z" fill="#EEEEEE" p-id="7927"></path><path d="M481.275187 757.752422a30.719693 20.479795 0 1 0 61.439386 0 30.719693 20.479795 0 1 0-61.439386 0Z" fill="#ADBDCE" p-id="7928"></path><path d="M511.104009 135.647924a226.04574 226.04574 0 0 1 226.168618 225.277747c0 174.078259-218.109819 232.98839-218.109819 390.682813a7.270327 7.270327 0 1 1-14.335856 0c0-157.694423-218.109819-216.604554-218.109819-390.682813a224.519995 224.519995 0 0 1 224.386876-225.277747z" fill="#E3423A" p-id="7929"></path><path d="M465.915341 255.99744h35.839641v215.03785h-35.839641z" fill="#FFFFFF" p-id="7930"></path><path d="M522.234778 337.916621h122.878771v133.118669h-81.919181a40.95959 40.95959 0 0 1-40.95959-40.959591v-92.159078z" fill="#FFFFFF" p-id="7931"></path><path d="M440.315597 373.756262a25.599744 25.599744 0 0 0-25.599744 25.599744v10.239898a25.599744 25.599744 0 0 0 25.599744 25.599744h25.599744v-61.439386H440.315597m0-35.839641h61.439385v133.118669h-61.439385a61.439386 61.439386 0 0 1-61.439386-61.439386v-10.239898a61.439386 61.439386 0 0 1 61.439386-61.439385z" fill="#FFFFFF" p-id="7932"></path><path d="M558.074419 327.676723h51.199488v107.518925H563.194368a5.119949 5.119949 0 0 1-5.119949-5.119949v-102.398976z" fill="#E34040" p-id="7933"></path><path d="M389.116109 962.550374h122.878771v61.439386h-122.878771a30.719693 30.719693 0 0 1-30.719693-30.719693 30.719693 30.719693 0 0 1 30.719693-30.719693z" fill="#DB3A42" p-id="7934"></path><path d="M511.99488 962.550374h122.878771a30.719693 30.719693 0 0 1 30.719693 30.719693 30.719693 30.719693 0 0 1-30.719693 30.719693h-122.878771v-61.439386z" fill="#407CEC" p-id="7935"></path></svg>