<?xml version="1.0" standalone="no"?><!DOCTYPE svg PUBLIC "-//W3C//DTD SVG 1.1//EN" "http://www.w3.org/Graphics/SVG/1.1/DTD/svg11.dtd"><svg t="1680928368311" class="icon" viewBox="0 0 1024 1024" version="1.1" xmlns="http://www.w3.org/2000/svg" p-id="24701" xmlns:xlink="http://www.w3.org/1999/xlink" width="200" height="200"><path d="M599.97 189.1s26.39-39.43-22.78-48.63c0 0-39.5 6.3-29.26 43.3l36.5 51.74 22.61 41.36 208.02 5.05 51.65-90.67s36.74-45.38-8.48-66.58c0 0-57.47 22.49-25.44 53.41 0 0-13.51 56.35-52.68 47.4 0 0-28.34 6.83-52.83-36.39 0 0 39.57-30.5-3.77-62.53 0 0-61.47-1.88-28.38 54.17 0 0 1.69 45.63-49.5 59.35-0.01 0.01-58.97-15.77-45.66-50.98z" fill="#FBD9B2" p-id="24702"></path><path d="M902.56 899.32H121.44c-23.13 0-41.87-18.75-41.87-41.87V433.94c0-23.13 18.75-41.87 41.87-41.87h781.12c23.13 0 41.87 18.75 41.87 41.87v423.51c0 23.12-18.74 41.87-41.87 41.87z" fill="#EFF7FF" p-id="24703"></path><path d="M902.56 909.79H121.44c-28.86 0-52.34-23.48-52.34-52.34V433.94c0-28.86 23.48-52.34 52.34-52.34h781.12c28.86 0 52.34 23.48 52.34 52.34v423.51c0 28.86-23.48 52.34-52.34 52.34zM121.44 402.53c-17.32 0-31.4 14.09-31.4 31.4v423.51c0 17.32 14.09 31.4 31.4 31.4h781.12c17.32 0 31.4-14.09 31.4-31.4v-423.5c0-17.32-14.09-31.4-31.4-31.4H121.44z" fill="#6F6EA9" p-id="24704"></path><path d="M79.57 463.11h864.87v68.36H79.57z" fill="#EDECED" p-id="24705"></path><path d="M954.9 541.94H69.1v-89.29h885.8v89.29zM90.03 521h843.93v-47.42H90.03V521z" fill="#6D6DAA" p-id="24706"></path><path d="M546.41 645.69H173.7c-5.75 0-10.42-4.66-10.42-10.42v-35.83c0-5.75 4.66-10.42 10.42-10.42h372.71c5.75 0 10.42 4.66 10.42 10.42v35.83c0 5.76-4.67 10.42-10.42 10.42z" fill="#FF9797" p-id="24707"></path><path d="M546.41 656.16H173.7c-11.52 0-20.88-9.37-20.88-20.88v-35.83c0-11.52 9.37-20.88 20.88-20.88h372.71c11.52 0 20.88 9.37 20.88 20.88v35.83c0 11.51-9.37 20.88-20.88 20.88z m-0.05-56.71l-372.66 0.05 0.05 35.78 372.66-0.05-0.05-35.78zM856.44 815.35h-184.6c-5.78 0-10.47-4.69-10.47-10.47s4.69-10.47 10.47-10.47h184.6c5.78 0 10.47 4.69 10.47 10.47s-4.68 10.47-10.47 10.47z" fill="#6D6DAA" p-id="24708"></path><path d="M649.79 671.33a71.19 72.85 0 1 0 142.38 0 71.19 72.85 0 1 0-142.38 0Z" fill="#96D7FF" p-id="24709"></path><path d="M720.98 754.64c-45.03 0-81.66-37.38-81.66-83.32S675.95 588 720.98 588s81.66 37.38 81.66 83.32-36.63 83.32-81.66 83.32z m0-145.7c-33.48 0-60.73 27.99-60.73 62.38 0 34.4 27.24 62.38 60.73 62.38s60.73-27.99 60.73-62.38-27.25-62.38-60.73-62.38z" fill="#6D6DAA" p-id="24710"></path><path d="M739.41 671.33a71.19 72.85 0 1 0 142.38 0 71.19 72.85 0 1 0-142.38 0Z" fill="#96D7FF" p-id="24711"></path><path d="M810.6 754.64c-45.03 0-81.66-37.38-81.66-83.32S765.57 588 810.6 588s81.66 37.38 81.66 83.32-36.63 83.32-81.66 83.32z m0-145.7c-33.48 0-60.73 27.99-60.73 62.38 0 34.4 27.24 62.38 60.73 62.38s60.73-27.99 60.73-62.38-27.24-62.38-60.73-62.38z" fill="#6D6DAA" p-id="24712"></path><path d="M208.34 706.42l17.99 37.31c0.35 0.72 1.02 1.22 1.8 1.34l40.23 5.98c1.96 0.29 2.74 2.76 1.32 4.17l-29.11 29.04c-0.56 0.56-0.82 1.37-0.69 2.16l6.87 41c0.33 2-1.71 3.52-3.47 2.58l-35.99-19.36c-0.7-0.37-1.53-0.37-2.22 0L169.08 830c-1.75 0.94-3.8-0.58-3.47-2.58l6.87-41c0.13-0.79-0.12-1.6-0.69-2.16l-29.11-29.04c-1.42-1.41-0.64-3.88 1.32-4.17l40.23-5.98c0.78-0.12 1.45-0.62 1.8-1.34l17.99-37.31c0.91-1.82 3.44-1.82 4.32 0z" fill="#FBD9B2" p-id="24713"></path><path d="M244.42 840.76c-2.08 0-4.16-0.51-6.08-1.54l-32.14-17.29-32.14 17.29c-4.34 2.33-9.53 2-13.54-0.87-4.04-2.89-6.04-7.74-5.21-12.66l6.19-36.94-26.19-26.12a12.89 12.89 0 0 1-3.15-13.22c1.54-4.66 5.49-8 10.32-8.72l35.99-5.35 16.14-33.47c2.17-4.49 6.6-7.28 11.57-7.28 4.97 0 9.4 2.79 11.57 7.28l16.14 33.47 35.99 5.35c4.83 0.72 8.79 4.06 10.32 8.72 1.54 4.68 0.34 9.75-3.15 13.22l-26.19 26.12 6.19 36.94c0.82 4.91-1.17 9.76-5.21 12.66-2.2 1.6-4.8 2.41-7.42 2.41z m-38.23-40.88c2.09 0 4.18 0.51 6.08 1.54l21.45 11.54-4.16-24.81c-0.69-4.13 0.66-8.36 3.62-11.31l17.84-17.79-24.43-3.63c-4.21-0.63-7.83-3.3-9.69-7.14l-10.71-22.2-10.71 22.2a12.852 12.852 0 0 1-9.68 7.14l-24.44 3.63 17.84 17.79c2.96 2.95 4.31 7.18 3.62 11.3l-4.16 24.82 21.46-11.54c1.9-1.03 3.99-1.54 6.07-1.54z" fill="#6D6DAA" p-id="24714"></path><path d="M374.48 706.42l17.99 37.31c0.35 0.72 1.02 1.22 1.8 1.34l40.23 5.98c1.96 0.29 2.74 2.76 1.32 4.17l-29.11 29.04c-0.56 0.56-0.82 1.37-0.69 2.16l6.87 41c0.33 2-1.71 3.52-3.47 2.58l-35.99-19.36c-0.7-0.37-1.53-0.37-2.22 0L335.22 830c-1.75 0.94-3.8-0.58-3.47-2.58l6.87-41c0.13-0.79-0.12-1.6-0.69-2.16l-29.11-29.04c-1.42-1.41-0.64-3.88 1.32-4.17l40.23-5.98c0.78-0.12 1.45-0.62 1.8-1.34l17.99-37.31c0.91-1.82 3.44-1.82 4.32 0z" fill="#FBD9B2" p-id="24715"></path><path d="M410.56 840.76c-2.08 0-4.16-0.51-6.08-1.54l-32.14-17.29-32.14 17.29c-4.34 2.33-9.53 2-13.54-0.87-4.04-2.89-6.04-7.74-5.21-12.66l6.19-36.94-26.19-26.12a12.89 12.89 0 0 1-3.15-13.22c1.54-4.66 5.49-8 10.32-8.72l35.99-5.35 16.14-33.47c2.17-4.49 6.6-7.28 11.57-7.28 4.97 0 9.4 2.79 11.57 7.28l16.14 33.47 35.99 5.35c4.83 0.72 8.79 4.06 10.32 8.72 1.54 4.68 0.34 9.75-3.15 13.22L417 788.75l6.19 36.94c0.82 4.91-1.17 9.76-5.21 12.66-2.2 1.6-4.81 2.41-7.42 2.41z m-83.05-81.71l17.84 17.79c2.96 2.95 4.31 7.18 3.62 11.3l-4.16 24.82 21.46-11.54a12.77 12.77 0 0 1 12.15 0l21.45 11.54-4.16-24.81c-0.69-4.13 0.66-8.36 3.62-11.31l17.84-17.79-24.43-3.63c-4.21-0.63-7.83-3.3-9.69-7.14l-10.71-22.2-10.71 22.2a12.852 12.852 0 0 1-9.68 7.14l-24.44 3.63z m37.54-48.09c0 0.01 0 0.01 0 0z" fill="#6D6DAA" p-id="24716"></path><path d="M540.62 706.42l17.99 37.31c0.35 0.72 1.02 1.22 1.8 1.34l40.23 5.98c1.96 0.29 2.74 2.76 1.32 4.17l-29.11 29.04c-0.56 0.56-0.82 1.37-0.69 2.16l6.87 41c0.33 2-1.71 3.52-3.47 2.58l-35.99-19.36c-0.7-0.37-1.53-0.37-2.22 0L501.36 830c-1.75 0.94-3.8-0.58-3.47-2.58l6.87-41c0.13-0.79-0.12-1.6-0.69-2.16l-29.11-29.04c-1.42-1.41-0.64-3.88 1.32-4.17l40.23-5.98c0.78-0.12 1.45-0.62 1.8-1.34l17.99-37.31c0.91-1.82 3.44-1.82 4.32 0z" fill="#FBD9B2" p-id="24717"></path><path d="M576.7 840.76c-2.07 0-4.16-0.51-6.08-1.54l-32.14-17.29-32.14 17.29c-4.34 2.34-9.53 2-13.54-0.87-4.04-2.89-6.03-7.74-5.21-12.66l6.19-36.94-26.19-26.12a12.89 12.89 0 0 1-3.15-13.22c1.53-4.66 5.49-8 10.32-8.72l35.99-5.35 16.14-33.47c2.17-4.49 6.6-7.28 11.57-7.28 4.97 0 9.4 2.79 11.57 7.28l16.14 33.47 36 5.35c4.83 0.72 8.79 4.06 10.32 8.72 1.54 4.68 0.34 9.75-3.15 13.22l-26.19 26.12 6.19 36.94c0.82 4.91-1.17 9.76-5.21 12.66-2.21 1.6-4.82 2.41-7.43 2.41z m-42.07-20.91s0.01 0 0.01 0.01l-0.01-0.01z m7.7 0l-0.01 0.01c0-0.01 0.01-0.01 0.01-0.01z m-48.68-60.8l17.84 17.79c2.96 2.95 4.31 7.18 3.62 11.31l-4.16 24.81 21.46-11.54a12.77 12.77 0 0 1 12.15 0L566 812.96l-4.16-24.81c-0.69-4.13 0.66-8.35 3.62-11.3l17.84-17.8-24.43-3.63c-4.21-0.63-7.83-3.3-9.68-7.14l-10.71-22.21-10.71 22.2a12.852 12.852 0 0 1-9.68 7.14l-24.44 3.64zM561.59 206.21c-1.94 0-3.9-0.54-5.65-1.67-3.22-2.07-6.12-4.6-8.63-7.52-9.43-10.97-12.33-26.31-7.58-40.04 3.57-10.3 10.89-18.53 20.61-23.16 9.54-4.55 20.26-5.07 30.19-1.47 20.55 7.45 31.38 30.54 24.13 51.48-2.33 6.72-6.36 12.71-11.68 17.32-4.37 3.79-10.98 3.31-14.77-1.05-3.79-4.37-3.31-10.98 1.05-14.77 2.54-2.2 4.48-5.09 5.61-8.34 3.53-10.18-1.63-21.37-11.48-24.95a18.095 18.095 0 0 0-14.05 0.69c-4.62 2.2-8.12 6.15-9.83 11.11-2.32 6.71-0.92 14.2 3.67 19.54 1.19 1.39 2.57 2.58 4.08 3.56a10.47 10.47 0 0 1 3.14 14.47c-2 3.11-5.37 4.8-8.81 4.8z" fill="#6D6DAA" p-id="24718"></path><path d="M862.74 198.3c-4.2 0-8.17-2.55-9.77-6.71-2.08-5.4 0.61-11.45 6.01-13.53 3.08-1.19 5.82-3.21 7.92-5.86 6.67-8.38 5.45-20.74-2.73-27.55-3.86-3.21-8.69-4.7-13.62-4.2-4.97 0.51-9.46 2.99-12.65 6.99-4.38 5.51-5.5 13.05-2.93 19.68 0.67 1.74 1.59 3.36 2.71 4.81 3.53 4.58 2.67 11.15-1.91 14.68-4.58 3.52-11.15 2.67-14.68-1.91-2.34-3.04-4.23-6.4-5.63-10-5.26-13.54-2.94-28.98 6.06-40.3 6.72-8.44 16.27-13.69 26.89-14.78 10.57-1.08 20.93 2.09 29.15 8.94 16.84 14.03 19.41 39.46 5.71 56.67-4.43 5.56-10.23 9.84-16.79 12.36-1.22 0.48-2.49 0.71-3.74 0.71z" fill="#6D6DAA" p-id="24719"></path><path d="M730.83 195.38c-3.37 0-6.67-1.62-8.69-4.62-3.23-4.79-1.96-11.3 2.83-14.53 2.76-1.86 4.98-4.46 6.42-7.52 4.57-9.75 0.23-21.64-9.68-26.5-4.81-2.36-10.16-2.71-15.09-0.98-4.75 1.67-8.54 5.1-10.68 9.66-2.99 6.37-2.23 14.01 1.97 19.94 1.12 1.58 2.44 2.98 3.95 4.18 4.52 3.6 5.26 10.19 1.66 14.71-3.6 4.52-10.19 5.27-14.71 1.66a41.54 41.54 0 0 1-7.98-8.45c-8.55-12.07-10.02-27.75-3.84-40.93 4.54-9.69 12.6-16.98 22.69-20.52 10.27-3.6 21.36-2.92 31.26 1.94 20.09 9.87 28.79 34.17 19.4 54.19a39.418 39.418 0 0 1-13.67 15.99 10.5 10.5 0 0 1-5.84 1.78z" fill="#6D6DAA" p-id="24720"></path><path d="M644.24 244.63c-28.23 0-50.6-24.28-58.11-48.27-1.73-5.52 1.35-11.39 6.86-13.12 5.52-1.73 11.39 1.34 13.12 6.86 5.1 16.28 20.19 33.58 38.13 33.58 22.67 0 40.42-17.54 40.42-39.92 0-5.78 4.69-10.47 10.47-10.47s10.47 4.69 10.47 10.47c0 16.58-6.43 31.99-18.11 43.41-11.51 11.26-26.87 17.46-43.25 17.46z" fill="#6D6DAA" p-id="24721"></path><path d="M778.77 240.36c-27.29 0-49.81-26.32-57.95-52.32-1.73-5.52 1.35-11.39 6.86-13.12 5.51-1.73 11.39 1.34 13.12 6.86 5.67 18.1 21.79 37.64 37.97 37.64 22.15 0 40.16-18.54 40.16-41.34 0-5.78 4.69-10.47 10.47-10.47s10.47 4.69 10.47 10.47c0 34.34-27.41 62.28-61.1 62.28z" fill="#6D6DAA" p-id="24722"></path><path d="M827.19 392.07H600.07c-13.92 0-25.21-11.29-25.21-25.21v-0.75c0-13.92 11.29-25.21 25.21-25.21h227.12c13.92 0 25.21 11.29 25.21 25.21v0.75c0 13.92-11.28 25.21-25.21 25.21z" fill="#FBD9B2" p-id="24723"></path><path d="M827.19 402.53H600.07c-19.67 0-35.68-16-35.68-35.68v-0.75c0-19.67 16-35.68 35.68-35.68h227.12c19.67 0 35.68 16.01 35.68 35.68v0.75c0 19.68-16 35.68-35.68 35.68z m-227.12-51.17c-8.13 0-14.74 6.61-14.74 14.74v0.75c0 8.13 6.61 14.74 14.74 14.74h227.12c8.13 0 14.74-6.61 14.74-14.74v-0.75c0-8.13-6.61-14.74-14.74-14.74H600.07z" fill="#6D6DAA" p-id="24724"></path><path d="M620.64 339.99l-10.15-60.35h204.1l-10.04 60.35z" fill="#EDECED" p-id="24725"></path><path d="M802.24 290.11l-6.56 39.41H629.49l-6.62-39.41h179.37m24.71-20.93H598.12l13.66 81.28h201.64l13.53-81.28z" fill="#6D6DAA" p-id="24726"></path><path d="M821.48 292.39H603.6l-50.78-92.88c-2.77-5.07-0.91-11.43 4.16-14.21 5.07-2.77 11.43-0.91 14.21 4.16l44.82 81.98h192.63l44.37-87.11c2.62-5.15 8.93-7.2 14.08-4.58s7.2 8.93 4.58 14.08l-50.19 98.56z" fill="#6D6DAA" p-id="24727"></path></svg>