<?xml version="1.0" standalone="no"?><!DOCTYPE svg PUBLIC "-//W3C//DTD SVG 1.1//EN" "http://www.w3.org/Graphics/SVG/1.1/DTD/svg11.dtd"><svg t="1680927848709" class="icon" viewBox="0 0 1024 1024" version="1.1" xmlns="http://www.w3.org/2000/svg" p-id="40756" xmlns:xlink="http://www.w3.org/1999/xlink" width="200" height="200"><path d="M442.181818 907.636364H69.818182c-25.6 0-46.545455-20.945455-46.545455-46.545455V162.909091c0-25.6 20.945455-46.545455 46.545455-46.545455h372.363636c25.6 0 46.545455 20.945455 46.545455 46.545455v698.181818c0 25.6-20.945455 46.545455-46.545455 46.545455z" fill="#676A75" p-id="40757"></path><path d="M442.181818 139.636364v698.181818c0 13.963636-9.309091 23.272727-23.272727 23.272727H46.545455c0 13.963636 9.309091 23.272727 23.272727 23.272727h372.363636c13.963636 0 23.272727-9.309091 23.272727-23.272727V162.909091c0-13.963636-9.309091-23.272727-23.272727-23.272727z" fill="#585B67" p-id="40758"></path><path d="M46.545455 232.727273h418.90909v535.272727H46.545455z" fill="#90CEF1" p-id="40759"></path><path d="M256 837.818182m-23.272727 0a23.272727 23.272727 0 1 0 46.545454 0 23.272727 23.272727 0 1 0-46.545454 0Z" fill="#0B3A5B" p-id="40760"></path><path d="M256 232.727273h69.818182L46.545455 512v-69.818182zM46.545455 232.727273h162.90909l-162.90909 162.909091z" fill="#ABE1FA" p-id="40761"></path><path d="M349.090909 488.727273H162.909091c-9.309091 0-18.618182-4.654545-20.945455-13.963637-4.654545-9.309091-2.327273-18.618182 4.654546-25.6l69.818182-69.818181c9.309091-9.309091 23.272727-9.309091 32.581818 0s9.309091 23.272727 0 32.581818L218.763636 442.181818H349.090909c13.963636 0 23.272727 9.309091 23.272727 23.272727s-9.309091 23.272727-23.272727 23.272728zM279.272727 628.363636c-6.981818 0-11.636364-2.327273-16.290909-6.981818-9.309091-9.309091-9.309091-23.272727 0-32.581818l30.254546-30.254545H162.909091c-13.963636 0-23.272727-9.309091-23.272727-23.272728s9.309091-23.272727 23.272727-23.272727h186.181818c9.309091 0 18.618182 4.654545 20.945455 13.963636 4.654545 9.309091 2.327273 18.618182-4.654546 25.6l-69.818182 69.818182c-4.654545 4.654545-9.309091 6.981818-16.290909 6.981818z" fill="#0B3A5B" p-id="40762"></path><path d="M442.181818 232.727273h23.272727v535.272727h-23.272727z" fill="#70B7E5" p-id="40763"></path><path d="M302.545455 139.636364H69.818182c-13.963636 0-23.272727 9.309091-23.272727 23.272727v46.545454h186.181818l69.818182-69.818181zM279.272727 209.454545h69.818182l69.818182-69.818181h-69.818182z" fill="#71747C" p-id="40764"></path><path d="M209.454545 174.545455c0-6.981818 4.654545-11.636364 11.636364-11.636364h69.818182c6.981818 0 11.636364 4.654545 11.636364 11.636364s-4.654545 11.636364-11.636364 11.636363h-69.818182c-6.981818 0-11.636364-4.654545-11.636364-11.636363zM986.763636 770.327273c-4.654545-4.654545-11.636364-4.654545-16.290909 0-39.563636 34.909091-86.109091 62.836364-134.981818 76.8-6.981818 2.327273-9.309091 9.309091-6.981818 13.963636 2.327273 4.654545 6.981818 9.309091 11.636364 9.309091h2.327272c53.527273-16.290909 102.4-44.218182 144.290909-81.454545 2.327273-6.981818 4.654545-13.963636 0-18.618182zM835.490909 176.872727c32.581818 9.309091 62.836364 23.272727 90.763636 41.890909 2.327273 2.327273 4.654545 2.327273 6.981819 2.327273 4.654545 0 6.981818-2.327273 9.309091-4.654545 4.654545-4.654545 2.327273-11.636364-2.327273-16.290909-30.254545-18.618182-62.836364-34.909091-95.418182-44.218182-6.981818-2.327273-11.636364 2.327273-13.963636 6.981818s-2.327273 13.963636 4.654545 13.963636z" fill="#0B3A5B" p-id="40765"></path><path d="M723.781818 162.909091c4.654545 13.963636 18.618182 23.272727 32.581818 23.272727 18.618182 0 34.909091-16.290909 34.909091-34.909091S774.981818 116.363636 756.363636 116.363636c-16.290909 0-27.927273 9.309091-32.581818 23.272728-79.127273 2.327273-151.272727 27.927273-211.781818 72.145454V162.909091c0-39.563636-30.254545-69.818182-69.818182-69.818182H69.818182C30.254545 93.090909 0 123.345455 0 162.909091v698.181818c0 39.563636 30.254545 69.818182 69.818182 69.818182h372.363636c39.563636 0 69.818182-30.254545 69.818182-69.818182v-51.2c60.509091 44.218182 132.654545 72.145455 211.781818 72.145455 4.654545 13.963636 18.618182 23.272727 32.581818 23.272727 18.618182 0 34.909091-16.290909 34.909091-34.909091s-16.290909-32.581818-34.909091-32.581818c-13.963636 0-27.927273 9.309091-32.581818 23.272727-79.127273-2.327273-153.6-32.581818-211.781818-79.127273V242.036364c58.181818-46.545455 130.327273-76.8 211.781818-79.127273z m32.581818-23.272727c6.981818 0 11.636364 4.654545 11.636364 11.636363s-4.654545 11.636364-11.636364 11.636364-11.636364-4.654545-11.636363-11.636364 4.654545-11.636364 11.636363-11.636363z m0 721.454545c6.981818 0 11.636364 4.654545 11.636364 11.636364s-4.654545 11.636364-11.636364 11.636363-11.636364-4.654545-11.636363-11.636363 4.654545-11.636364 11.636363-11.636364zM465.454545 861.090909c0 13.963636-9.309091 23.272727-23.272727 23.272727H69.818182c-13.963636 0-23.272727-9.309091-23.272727-23.272727v-69.818182h418.90909v69.818182z m0-93.090909H46.545455V232.727273h418.90909v535.272727z m0-558.545455H46.545455V162.909091c0-13.963636 9.309091-23.272727 23.272727-23.272727h372.363636c13.963636 0 23.272727 9.309091 23.272727 23.272727v46.545454z" fill="#0B3A5B" p-id="40766"></path><path d="M721.454545 512m-256 0a256 256 0 1 0 512 0 256 256 0 1 0-512 0Z" fill="#F5B445" p-id="40767"></path><path d="M721.454545 814.545455c-167.563636 0-302.545455-134.981818-302.545454-302.545455S553.890909 209.454545 721.454545 209.454545s302.545455 134.981818 302.545455 302.545455-134.981818 302.545455-302.545455 302.545455z m0-558.545455c-141.963636 0-256 114.036364-256 256s114.036364 256 256 256 256-114.036364 256-256-114.036364-256-256-256z" fill="#0B3A5B" p-id="40768"></path><path d="M572.509091 719.127273l356.072727-356.072728c-25.6-34.909091-60.509091-62.836364-100.072727-81.454545L488.727273 621.381818c18.618182 39.563636 48.872727 72.145455 83.781818 97.745455zM721.454545 768c141.963636 0 256-114.036364 256-256 0-34.909091-6.981818-67.490909-18.618181-97.745455L623.709091 749.381818c30.254545 11.636364 62.836364 18.618182 97.745454 18.618182z" fill="#FFCB5B" p-id="40769"></path><path d="M721.454545 512m-186.181818 0a186.181818 186.181818 0 1 0 372.363637 0 186.181818 186.181818 0 1 0-372.363637 0Z" fill="#FFCB5B" p-id="40770"></path><path d="M721.454545 325.818182c102.4 0 186.181818 83.781818 186.181819 186.181818s-83.781818 186.181818-186.181819 186.181818-186.181818-83.781818-186.181818-186.181818 83.781818-186.181818 186.181818-186.181818m0-23.272727c-116.363636 0-209.454545 93.090909-209.454545 209.454545s93.090909 209.454545 209.454545 209.454545 209.454545-93.090909 209.454546-209.454545-93.090909-209.454545-209.454546-209.454545z" fill="#0B3A5B" p-id="40771"></path><path d="M558.545455 535.272727c0-102.4 83.781818-186.181818 186.181818-186.181818 46.545455 0 86.109091 16.290909 118.690909 44.218182-32.581818-41.890909-83.781818-67.490909-141.963637-67.490909-102.4 0-186.181818 83.781818-186.181818 186.181818 0 58.181818 25.6 109.381818 67.490909 141.963636C574.836364 621.381818 558.545455 581.818182 558.545455 535.272727z" fill="#F6B545" p-id="40772"></path><path d="M774.981818 335.127273l-232.727273 232.727272c13.963636 41.890909 41.890909 79.127273 79.127273 102.4l256-256c-23.272727-39.563636-58.181818-67.490909-102.4-79.127272z" fill="#FFE27A" p-id="40773"></path><path d="M761.018182 349.090909c39.563636 2.327273 74.472727 18.618182 104.727273 41.890909-23.272727-27.927273-53.527273-46.545455-88.436364-58.181818l-16.290909 16.290909zM602.763636 653.963636c-23.272727-27.927273-39.563636-65.163636-41.890909-104.727272l-16.290909 16.290909c9.309091 34.909091 30.254545 67.490909 58.181818 88.436363z" fill="#FFCB5B" p-id="40774"></path><path d="M721.454545 698.181818c102.4 0 186.181818-83.781818 186.181819-186.181818 0-13.963636-2.327273-30.254545-4.654546-44.218182l-223.418182 223.418182c11.636364 4.654545 27.927273 6.981818 41.890909 6.981818z" fill="#FFE27A" p-id="40775"></path><path d="M805.236364 500.363636c4.654545-11.636364 9.309091-23.272727 9.309091-34.909091 0-39.563636-30.254545-69.818182-69.818182-69.818181 0-13.963636-9.309091-23.272727-23.272728-23.272728s-23.272727 9.309091-23.272727 23.272728h-46.545454c-13.963636 0-23.272727 9.309091-23.272728 23.272727s9.309091 23.272727 23.272728 23.272727v139.636364c-13.963636 0-23.272727 9.309091-23.272728 23.272727s9.309091 23.272727 23.272728 23.272727h46.545454c0 13.963636 9.309091 23.272727 23.272727 23.272728s23.272727-9.309091 23.272728-23.272728h23.272727c39.563636 0 69.818182-30.254545 69.818182-69.818181 0-25.6-13.963636-46.545455-32.581818-58.181819zM744.727273 442.181818c13.963636 0 23.272727 9.309091 23.272727 23.272727s-9.309091 23.272727-23.272727 23.272728h-46.545455v-46.545455h46.545455z m23.272727 139.636364h-69.818182v-46.545455h69.818182c13.963636 0 23.272727 9.309091 23.272727 23.272728s-9.309091 23.272727-23.272727 23.272727z" fill="#0B3A5B" p-id="40776"></path></svg>