<?xml version="1.0" standalone="no"?><!DOCTYPE svg PUBLIC "-//W3C//DTD SVG 1.1//EN" "http://www.w3.org/Graphics/SVG/1.1/DTD/svg11.dtd"><svg t="1680927880596" class="icon" viewBox="0 0 1024 1024" version="1.1" xmlns="http://www.w3.org/2000/svg" p-id="41227" xmlns:xlink="http://www.w3.org/1999/xlink" width="200" height="200"><path d="M512 512m-256 0a256 256 0 1 0 512 0 256 256 0 1 0-512 0Z" fill="#F5B445" p-id="41228"></path><path d="M363.054545 719.127273l356.072728-356.072728c-25.6-34.909091-60.509091-62.836364-100.072728-81.454545L279.272727 621.381818c18.618182 39.563636 48.872727 72.145455 83.781818 97.745455zM512 768c141.963636 0 256-114.036364 256-256 0-34.909091-6.981818-67.490909-18.618182-97.745455L414.254545 749.381818c30.254545 11.636364 62.836364 18.618182 97.745455 18.618182z" fill="#FFCB5B" p-id="41229"></path><path d="M512 512m-186.181818 0a186.181818 186.181818 0 1 0 372.363636 0 186.181818 186.181818 0 1 0-372.363636 0Z" fill="#FFCB5B" p-id="41230"></path><path d="M512 325.818182c102.4 0 186.181818 83.781818 186.181818 186.181818s-83.781818 186.181818-186.181818 186.181818-186.181818-83.781818-186.181818-186.181818 83.781818-186.181818 186.181818-186.181818m0-23.272727c-116.363636 0-209.454545 93.090909-209.454545 209.454545s93.090909 209.454545 209.454545 209.454545 209.454545-93.090909 209.454545-209.454545-93.090909-209.454545-209.454545-209.454545z" fill="#0B3A5B" p-id="41231"></path><path d="M349.090909 535.272727c0-102.4 83.781818-186.181818 186.181818-186.181818 46.545455 0 86.109091 16.290909 118.690909 44.218182-32.581818-41.890909-83.781818-67.490909-141.963636-67.490909-102.4 0-186.181818 83.781818-186.181818 186.181818 0 58.181818 25.6 109.381818 67.490909 141.963636C365.381818 621.381818 349.090909 581.818182 349.090909 535.272727z" fill="#F6B545" p-id="41232"></path><path d="M565.527273 335.127273l-232.727273 232.727272c13.963636 41.890909 41.890909 79.127273 79.127273 102.4l256-256c-23.272727-39.563636-58.181818-67.490909-102.4-79.127272z" fill="#FFE27A" p-id="41233"></path><path d="M551.563636 349.090909c39.563636 2.327273 74.472727 18.618182 104.727273 41.890909-23.272727-27.927273-53.527273-46.545455-88.436364-58.181818l-16.290909 16.290909zM393.309091 653.963636c-23.272727-27.927273-39.563636-65.163636-41.890909-104.727272l-16.290909 16.290909c9.309091 34.909091 30.254545 67.490909 58.181818 88.436363z" fill="#FFCB5B" p-id="41234"></path><path d="M512 698.181818c102.4 0 186.181818-83.781818 186.181818-186.181818 0-13.963636-2.327273-30.254545-4.654545-44.218182l-223.418182 223.418182c11.636364 4.654545 27.927273 6.981818 41.890909 6.981818z" fill="#FFE27A" p-id="41235"></path><path d="M595.781818 500.363636c4.654545-11.636364 9.309091-23.272727 9.309091-34.909091 0-39.563636-30.254545-69.818182-69.818182-69.818181 0-13.963636-9.309091-23.272727-23.272727-23.272728s-23.272727 9.309091-23.272727 23.272728h-46.545455c-13.963636 0-23.272727 9.309091-23.272727 23.272727s9.309091 23.272727 23.272727 23.272727v139.636364c-13.963636 0-23.272727 9.309091-23.272727 23.272727s9.309091 23.272727 23.272727 23.272727h46.545455c0 13.963636 9.309091 23.272727 23.272727 23.272728s23.272727-9.309091 23.272727-23.272728h23.272728c39.563636 0 69.818182-30.254545 69.818181-69.818181 0-25.6-13.963636-46.545455-32.581818-58.181819zM535.272727 442.181818c13.963636 0 23.272727 9.309091 23.272728 23.272727s-9.309091 23.272727-23.272728 23.272728h-46.545454v-46.545455h46.545454z m23.272728 139.636364h-69.818182v-46.545455h69.818182c13.963636 0 23.272727 9.309091 23.272727 23.272728s-9.309091 23.272727-23.272727 23.272727z" fill="#0B3A5B" p-id="41236"></path><path d="M488.727273 791.272727h46.545454v69.818182h-46.545454z" fill="#0B3A5B" p-id="41237"></path><path d="M975.127273 889.018182l-41.890909-311.854546c25.6-9.309091 44.218182-34.909091 44.218181-65.163636s-18.618182-53.527273-44.218181-65.163636l41.890909-311.854546C1003.054545 128 1024 100.072727 1024 69.818182c0-39.563636-30.254545-69.818182-69.818182-69.818182-30.254545 0-58.181818 20.945455-65.163636 48.872727L577.163636 90.763636C565.527273 65.163636 542.254545 46.545455 512 46.545455s-53.527273 18.618182-65.163636 44.218181L134.981818 48.872727C128 20.945455 100.072727 0 69.818182 0 30.254545 0 0 30.254545 0 69.818182c0 30.254545 20.945455 58.181818 48.872727 65.163636l41.890909 311.854546C65.163636 458.472727 46.545455 481.745455 46.545455 512s18.618182 53.527273 44.218181 65.163636L48.872727 889.018182C20.945455 896 0 923.927273 0 954.181818c0 39.563636 30.254545 69.818182 69.818182 69.818182 30.254545 0 58.181818-20.945455 65.163636-48.872727l311.854546-41.890909c9.309091 25.6 34.909091 44.218182 65.163636 44.218181s53.527273-18.618182 65.163636-44.218181l311.854546 41.890909c9.309091 27.927273 34.909091 48.872727 65.163636 48.872727 39.563636 0 69.818182-30.254545 69.818182-69.818182 0-30.254545-20.945455-58.181818-48.872727-65.163636zM954.181818 46.545455c13.963636 0 23.272727 9.309091 23.272727 23.272727s-9.309091 23.272727-23.272727 23.272727-23.272727-9.309091-23.272727-23.272727 9.309091-23.272727 23.272727-23.272727z m-30.254545 86.10909c2.327273 0 2.327273 2.327273 4.654545 2.327273l-41.890909 311.854546c-20.945455 6.981818-37.236364 23.272727-44.218182 41.890909H814.545455c-4.654545-65.163636-30.254545-125.672727-72.145455-172.218182l181.527273-183.854546zM930.909091 512c0 13.963636-9.309091 23.272727-23.272727 23.272727s-23.272727-9.309091-23.272728-23.272727 9.309091-23.272727 23.272728-23.272727 23.272727 9.309091 23.272727 23.272727zM512 768c-141.963636 0-256-114.036364-256-256s114.036364-256 256-256 256 114.036364 256 256-114.036364 256-256 256z m65.163636-630.690909l311.854546-41.890909c0 2.327273 2.327273 2.327273 2.327273 4.654545l-183.854546 183.854546c-46.545455-39.563636-107.054545-67.490909-172.218182-72.145455V181.527273c20.945455-6.981818 37.236364-23.272727 41.890909-44.218182zM512 93.090909c13.963636 0 23.272727 9.309091 23.272727 23.272727s-9.309091 23.272727-23.272727 23.272728-23.272727-9.309091-23.272727-23.272728 9.309091-23.272727 23.272727-23.272727z m-377.018182 2.327273l311.854546 41.890909c6.981818 20.945455 23.272727 37.236364 41.890909 44.218182V209.454545c-65.163636 4.654545-125.672727 30.254545-172.218182 72.145455L132.654545 100.072727c0-2.327273 2.327273-2.327273 2.327273-4.654545zM100.072727 132.654545l183.854546 183.854546c-39.563636 46.545455-67.490909 107.054545-72.145455 172.218182H181.527273c-6.981818-20.945455-23.272727-37.236364-44.218182-41.890909L95.418182 134.981818c2.327273 0 2.327273-2.327273 4.654545-2.327273zM69.818182 93.090909c-13.963636 0-23.272727-9.309091-23.272727-23.272727s9.309091-23.272727 23.272727-23.272727 23.272727 9.309091 23.272727 23.272727-9.309091 23.272727-23.272727 23.272727z m0 884.363636c-13.963636 0-23.272727-9.309091-23.272727-23.272727s9.309091-23.272727 23.272727-23.272727 23.272727 9.309091 23.272727 23.272727-9.309091 23.272727-23.272727 23.272727z m46.545454-488.727272c13.963636 0 23.272727 9.309091 23.272728 23.272727s-9.309091 23.272727-23.272728 23.272727-23.272727-9.309091-23.272727-23.272727 9.309091-23.272727 23.272727-23.272727z m-16.290909 402.618182c-2.327273 0-2.327273-2.327273-4.654545-2.327273l41.890909-311.854546c20.945455-6.981818 37.236364-23.272727 44.218182-41.890909H209.454545c4.654545 65.163636 30.254545 125.672727 72.145455 172.218182l-181.527273 183.854546zM512 930.909091c-13.963636 0-23.272727-9.309091-23.272727-23.272727s9.309091-23.272727 23.272727-23.272728 23.272727 9.309091 23.272727 23.272728-9.309091 23.272727-23.272727 23.272727z m377.018182-2.327273l-311.854546-41.890909c-6.981818-27.927273-34.909091-48.872727-65.163636-48.872727s-58.181818 20.945455-65.163636 48.872727L134.981818 928.581818c0-2.327273-2.327273-2.327273-2.327273-4.654545l183.854546-183.854546c53.527273 46.545455 121.018182 72.145455 195.490909 72.145455s144.290909-27.927273 195.490909-72.145455l183.854546 183.854546c0 2.327273-2.327273 2.327273-2.327273 4.654545z m34.909091-37.236363l-183.854546-183.854546c39.563636-46.545455 67.490909-107.054545 72.145455-172.218182h27.927273c6.981818 20.945455 23.272727 37.236364 44.218181 41.890909l41.890909 311.854546s0 2.327273-2.327272 2.327273zM954.181818 977.454545c-13.963636 0-23.272727-9.309091-23.272727-23.272727s9.309091-23.272727 23.272727-23.272727 23.272727 9.309091 23.272727 23.272727-9.309091 23.272727-23.272727 23.272727z" fill="#0B3A5B" p-id="41238"></path></svg>