<?xml version="1.0" standalone="no"?><!DOCTYPE svg PUBLIC "-//W3C//DTD SVG 1.1//EN" "http://www.w3.org/Graphics/SVG/1.1/DTD/svg11.dtd"><svg t="1680927873092" class="icon" viewBox="0 0 1024 1024" version="1.1" xmlns="http://www.w3.org/2000/svg" p-id="41072" xmlns:xlink="http://www.w3.org/1999/xlink" width="200" height="200"><path d="M1000.727273 674.909091v93.090909c0 25.6-20.945455 46.545455-46.545455 46.545455H69.818182c-25.6 0-46.545455-20.945455-46.545455-46.545455v-93.090909h977.454546z" fill="#ECEFF9" p-id="41073"></path><path d="M954.181818 698.181818v46.545455c0 13.963636-9.309091 23.272727-23.272727 23.272727H46.545455c0 13.963636 9.309091 23.272727 23.272727 23.272727h884.363636c13.963636 0 23.272727-9.309091 23.272727-23.272727v-69.818182h-23.272727z" fill="#CEDAE6" p-id="41074"></path><path d="M1000.727273 116.363636v558.545455H23.272727V116.363636c0-25.6 20.945455-46.545455 46.545455-46.545454h884.363636c25.6 0 46.545455 20.945455 46.545455 46.545454z" fill="#90CEF1" p-id="41075"></path><path d="M651.636364 954.181818H372.363636c25.6 0 46.545455-20.945455 46.545455-46.545454v-93.090909h186.181818v93.090909c0 25.6 20.945455 46.545455 46.545455 46.545454z" fill="#ECEFF9" p-id="41076"></path><path d="M954.181818 46.545455H69.818182C30.254545 46.545455 0 76.8 0 116.363636v651.636364c0 39.563636 30.254545 69.818182 69.818182 69.818182h325.818182v69.818182c0 13.963636-9.309091 23.272727-23.272728 23.272727h-23.272727c-13.963636 0-23.272727 9.309091-23.272727 23.272727s9.309091 23.272727 23.272727 23.272727h325.818182c13.963636 0 23.272727-9.309091 23.272727-23.272727s-9.309091-23.272727-23.272727-23.272727h-23.272727c-13.963636 0-23.272727-9.309091-23.272728-23.272727v-69.818182h325.818182c39.563636 0 69.818182-30.254545 69.818182-69.818182V116.363636c0-39.563636-30.254545-69.818182-69.818182-69.818181zM46.545455 116.363636c0-13.963636 9.309091-23.272727 23.272727-23.272727h884.363636c13.963636 0 23.272727 9.309091 23.272727 23.272727v535.272728H46.545455V116.363636z m539.927272 814.545455h-146.618182c2.327273-6.981818 4.654545-13.963636 4.654546-23.272727v-69.818182h139.636364v69.818182c-2.327273 9.309091 0 16.290909 2.327272 23.272727zM977.454545 768c0 13.963636-9.309091 23.272727-23.272727 23.272727H69.818182c-13.963636 0-23.272727-9.309091-23.272727-23.272727v-69.818182h930.90909v69.818182z" fill="#0B3A5B" p-id="41077"></path><path d="M581.818182 907.636364v-69.818182h-139.636364v23.272727h88.436364c13.963636 0 23.272727 9.309091 23.272727 23.272727v23.272728c0 9.309091 2.327273 16.290909 4.654546 23.272727h27.927272c-2.327273-6.981818-4.654545-13.963636-4.654545-23.272727z" fill="#CEDAE6" p-id="41078"></path><path d="M512 744.727273m-23.272727 0a23.272727 23.272727 0 1 0 46.545454 0 23.272727 23.272727 0 1 0-46.545454 0Z" fill="#0B3A5B" p-id="41079"></path><path d="M372.363636 93.090909h69.818182L46.545455 488.727273v-69.818182zM69.818182 93.090909h256L46.545455 372.363636V116.363636c0-13.963636 9.309091-23.272727 23.272727-23.272727z" fill="#ABE1FA" p-id="41080"></path><path d="M209.454545 290.909091c0-6.981818 4.654545-11.636364 11.636364-11.636364h116.363636c6.981818 0 11.636364 4.654545 11.636364 11.636364s-4.654545 11.636364-11.636364 11.636364h-116.363636c-6.981818 0-11.636364-4.654545-11.636364-11.636364zM442.181818 570.181818c0-6.981818 4.654545-11.636364 11.636364-11.636363h116.363636c6.981818 0 11.636364 4.654545 11.636364 11.636363s-4.654545 11.636364-11.636364 11.636364h-116.363636c-6.981818 0-11.636364-4.654545-11.636364-11.636364zM325.818182 360.727273c0-6.981818 4.654545-11.636364 11.636363-11.636364h116.363637c6.981818 0 11.636364 4.654545 11.636363 11.636364s-4.654545 11.636364-11.636363 11.636363h-116.363637c-6.981818 0-11.636364-4.654545-11.636363-11.636363zM209.454545 477.090909c0-6.981818 4.654545-11.636364 11.636364-11.636364h139.636364c6.981818 0 11.636364 4.654545 11.636363 11.636364s-4.654545 11.636364-11.636363 11.636364h-139.636364c-6.981818 0-11.636364-4.654545-11.636364-11.636364z" fill="#0B3A5B" p-id="41081"></path><path d="M418.909091 197.818182c0-6.981818 4.654545-11.636364 11.636364-11.636364h46.545454c6.981818 0 11.636364 4.654545 11.636364 11.636364s-4.654545 11.636364-11.636364 11.636363h-46.545454c-6.981818 0-11.636364-4.654545-11.636364-11.636363z" fill="#0B3A5B" p-id="41082"></path><path d="M116.363636 267.636364c0-6.981818 4.654545-11.636364 11.636364-11.636364h46.545455c6.981818 0 11.636364 4.654545 11.636363 11.636364s-4.654545 11.636364-11.636363 11.636363h-46.545455c-6.981818 0-11.636364-4.654545-11.636364-11.636363z" fill="#0B3A5B" p-id="41083"></path><path d="M616.727273 116.363636C572.509091 116.363636 535.272727 153.6 535.272727 197.818182V302.545455h-74.472727c-9.309091 0-18.618182-4.654545-25.6-9.309091l-88.436364-88.436364c-9.309091-11.636364-25.6-18.618182-39.563636-18.618182h-53.527273c-4.654545-13.963636-18.618182-23.272727-32.581818-23.272727C202.472727 162.909091 186.181818 179.2 186.181818 197.818182S202.472727 232.727273 221.090909 232.727273c16.290909 0 27.927273-9.309091 32.581818-23.272728h53.527273c9.309091 0 18.618182 4.654545 25.6 9.309091l88.436364 88.436364c11.636364 11.636364 25.6 16.290909 41.890909 16.290909H535.272727v69.818182H183.854545c-4.654545-13.963636-18.618182-23.272727-32.581818-23.272727-18.618182 2.327273-34.909091 18.618182-34.909091 37.236363S132.654545 442.181818 151.272727 442.181818c16.290909 0 27.927273-9.309091 32.581818-23.272727H535.272727v46.545454h-74.472727c-16.290909 0-30.254545 6.981818-41.890909 16.29091l-65.163636 65.163636c-6.981818 6.981818-16.290909 9.309091-25.6 9.309091H230.4c-4.654545-13.963636-18.618182-23.272727-32.581818-23.272727-18.618182 2.327273-34.909091 18.618182-34.909091 37.236363S179.2 605.090909 197.818182 605.090909c16.290909 0 27.927273-9.309091 32.581818-23.272727h100.072727c16.290909 0 30.254545-6.981818 41.890909-16.290909l65.163637-65.163637c6.981818-6.981818 16.290909-9.309091 25.6-9.309091H535.272727v58.181819c0 44.218182 37.236364 81.454545 81.454546 81.454545s81.454545-37.236364 81.454545-81.454545v-349.090909c0-46.545455-37.236364-83.781818-81.454545-83.781819z m-395.636364 93.090909c-6.981818 0-11.636364-4.654545-11.636364-11.636363s4.654545-11.636364 11.636364-11.636364 11.636364 4.654545 11.636364 11.636364-4.654545 11.636364-11.636364 11.636363z m-69.818182 209.454546c-6.981818 0-11.636364-4.654545-11.636363-11.636364s4.654545-11.636364 11.636363-11.636363 11.636364 4.654545 11.636364 11.636363-4.654545 11.636364-11.636364 11.636364z m46.545455 162.909091c-6.981818 0-11.636364-4.654545-11.636364-11.636364s4.654545-11.636364 11.636364-11.636363 11.636364 4.654545 11.636363 11.636363-4.654545 11.636364-11.636363 11.636364z" fill="#0B3A5B" p-id="41084"></path><path d="M116.363636 500.363636c0-6.981818 4.654545-11.636364 11.636364-11.636363h23.272727c6.981818 0 11.636364 4.654545 11.636364 11.636363s-4.654545 11.636364-11.636364 11.636364h-23.272727c-6.981818 0-11.636364-4.654545-11.636364-11.636364z" fill="#0B3A5B" p-id="41085"></path><path d="M698.181818 162.909091c-53.527273 0-102.4 20.945455-139.636363 53.527273v311.854545c37.236364 32.581818 86.109091 53.527273 139.636363 53.527273 116.363636 0 209.454545-93.090909 209.454546-209.454546s-93.090909-209.454545-209.454546-209.454545z" fill="#F5B445" p-id="41086"></path><path d="M698.181818 605.090909c-58.181818 0-111.709091-20.945455-155.927273-60.509091-4.654545-4.654545-6.981818-9.309091-6.981818-16.290909V216.436364c0-6.981818 2.327273-13.963636 6.981818-16.290909C586.472727 160.581818 640 139.636364 698.181818 139.636364c128 0 232.727273 104.727273 232.727273 232.727272s-104.727273 232.727273-232.727273 232.727273z m-116.363636-88.436364c32.581818 25.6 74.472727 41.890909 116.363636 41.89091 102.4 0 186.181818-83.781818 186.181818-186.181819s-83.781818-186.181818-186.181818-186.181818c-41.890909 0-83.781818 13.963636-116.363636 41.890909v288.581818z" fill="#0B3A5B" p-id="41087"></path><path d="M698.181818 558.545455c102.4 0 186.181818-83.781818 186.181818-186.181819 0-13.963636-2.327273-30.254545-4.654545-44.218181l-223.418182 223.418181c11.636364 4.654545 27.927273 6.981818 41.890909 6.981819zM751.709091 195.490909L581.818182 365.381818v151.272727c4.654545 4.654545 11.636364 9.309091 16.290909 11.636364l256-256c-23.272727-37.236364-58.181818-65.163636-102.4-76.8z" fill="#FFCB5B" p-id="41088"></path><path d="M781.963636 360.727273c4.654545-11.636364 9.309091-23.272727 9.309091-34.909091 0-39.563636-30.254545-69.818182-69.818182-69.818182 0-13.963636-9.309091-23.272727-23.272727-23.272727s-23.272727 9.309091-23.272727 23.272727h-46.545455c-13.963636 0-23.272727 9.309091-23.272727 23.272727s9.309091 23.272727 23.272727 23.272728v139.636363c-13.963636 0-23.272727 9.309091-23.272727 23.272727s9.309091 23.272727 23.272727 23.272728h46.545455c0 13.963636 9.309091 23.272727 23.272727 23.272727s23.272727-9.309091 23.272727-23.272727h23.272728c39.563636 0 69.818182-30.254545 69.818182-69.818182 0-25.6-13.963636-46.545455-32.581819-58.181818zM721.454545 302.545455c13.963636 0 23.272727 9.309091 23.272728 23.272727s-9.309091 23.272727-23.272728 23.272727h-46.545454v-46.545454h46.545454z m23.272728 139.636363h-69.818182v-46.545454h69.818182c13.963636 0 23.272727 9.309091 23.272727 23.272727s-9.309091 23.272727-23.272727 23.272727z" fill="#0B3A5B" p-id="41089"></path></svg>