<?xml version="1.0" standalone="no"?><!DOCTYPE svg PUBLIC "-//W3C//DTD SVG 1.1//EN" "http://www.w3.org/Graphics/SVG/1.1/DTD/svg11.dtd"><svg t="1680927897233" class="icon" viewBox="0 0 1024 1024" version="1.1" xmlns="http://www.w3.org/2000/svg" p-id="41524" xmlns:xlink="http://www.w3.org/1999/xlink" width="200" height="200"><path d="M951.854545 884.363636c27.927273 0 48.872727-20.945455 48.872728-48.872727 0-13.963636-4.654545-25.6-13.963637-34.909091L363.054545 176.872727c-9.309091-9.309091-20.945455-13.963636-34.90909-13.963636-27.927273 0-48.872727 20.945455-48.872728 48.872727 0 13.963636 4.654545 25.6 13.963637 34.909091l623.709091 623.709091c9.309091 9.309091 20.945455 13.963636 34.90909 13.963636z" fill="#DA8C36" p-id="41525"></path><path d="M951.854545 907.636364c-18.618182 0-37.236364-6.981818-51.2-20.945455L276.945455 262.981818c-13.963636-13.963636-20.945455-30.254545-20.945455-51.2C256 172.218182 288.581818 139.636364 328.145455 139.636364c18.618182 0 37.236364 6.981818 51.2 20.945454l623.70909 623.709091c13.963636 13.963636 20.945455 32.581818 20.945455 51.2 0 39.563636-32.581818 72.145455-72.145455 72.145455zM328.145455 186.181818c-13.963636 0-25.6 11.636364-25.6 25.6 0 6.981818 2.327273 13.963636 6.981818 18.618182l623.709091 623.709091c4.654545 4.654545 11.636364 6.981818 18.618181 6.981818 13.963636 0 25.6-11.636364 25.6-25.6 0-6.981818-2.327273-13.963636-6.981818-18.618182L346.763636 193.163636c-4.654545-4.654545-11.636364-6.981818-18.618181-6.981818z" fill="#0B3A5B" p-id="41526"></path><path d="M349.090909 232.727273l139.636364 139.636363 18.618182-18.618181 23.272727 23.272727-2.327273 2.327273c-9.309091 9.309091-9.309091 23.272727 0 32.581818l409.6 409.6c9.309091 9.309091 23.272727 9.309091 32.581818 0l2.327273-2.327273c2.327273 4.654545 4.654545 9.309091 4.654545 16.290909 0 6.981818-2.327273 13.963636-6.981818 18.618182s-11.636364 6.981818-18.618182 6.981818c-6.981818 0-13.963636-2.327273-18.618181-6.981818L493.381818 414.254545l-23.272727-23.272727-160.581818-160.581818c-4.654545-4.654545 16.290909-20.945455 39.563636 2.327273z" fill="#C97629" p-id="41527"></path><path d="M740.072727 55.854545c-114.036364 34.909091-218.763636 90.763636-307.2 167.563637L488.727273 279.272727l60.509091-60.509091c53.527273-53.527273 109.381818-100.072727 172.218181-139.636363L768 46.545455l-27.927273 9.30909zM339.781818 316.509091c-76.8 90.763636-134.981818 193.163636-167.563636 307.2L162.909091 651.636364l30.254545-46.545455c41.890909-62.836364 88.436364-118.690909 139.636364-172.218182L395.636364 372.363636l-55.854546-55.854545z" fill="#D3E2EB" p-id="41528"></path><path d="M325.981091 303.429818l93.789091-93.789091 105.332363 105.309091-93.78909 93.789091z" fill="#D3E2EB" p-id="41529"></path><path d="M788.945455 37.236364c-4.654545-9.309091-11.636364-13.963636-20.945455-13.963637h-6.981818l-27.927273 9.309091c-109.381818 32.581818-211.781818 88.436364-300.218182 160.581818-9.309091-6.981818-23.272727-6.981818-32.581818 0l-93.090909 93.090909c-9.309091 9.309091-9.309091 23.272727 0 32.581819-72.145455 88.436364-125.672727 190.836364-160.581818 300.218181L139.636364 644.654545c-2.327273 11.636364 2.327273 23.272727 11.636363 27.927273 4.654545 2.327273 9.309091 2.327273 11.636364 2.327273 6.981818 0 13.963636-4.654545 18.618182-9.309091l30.254545-46.545455c39.563636-60.509091 86.109091-116.363636 137.309091-167.563636l44.218182-44.218182 18.618182 18.618182c4.654545 4.654545 11.636364 6.981818 16.290909 6.981818s11.636364-2.327273 16.290909-6.981818l93.090909-93.090909c9.309091-9.309091 9.309091-23.272727 0-32.581818l-16.290909-20.945455 44.218182-44.218182c51.2-51.2 107.054545-97.745455 167.563636-137.30909l46.545455-30.254546c11.636364-6.981818 13.963636-20.945455 9.309091-30.254545zM318.836364 416.581818c-23.272727 23.272727-46.545455 48.872727-69.818182 76.8 25.6-51.2 55.854545-97.745455 93.090909-141.963636l20.945454 20.945454-44.218181 44.218182z m111.709091-41.890909L358.4 302.545455l60.509091-60.509091 72.145454 72.145454-60.50909 60.509091z m102.4-172.218182L488.727273 246.690909l-20.945455-20.945454c44.218182-34.909091 90.763636-67.490909 141.963637-93.09091-27.927273 20.945455-53.527273 44.218182-76.8 69.818182z" fill="#0B3A5B" p-id="41530"></path><path d="M358.539636 304.011636l23.04-23.04 72.401455 72.401455-23.04 23.04z" fill="#B0C4D8" p-id="41531"></path><path d="M69.818182 930.909091v-214.109091c0-11.636364 4.654545-23.272727 13.963636-32.581818l41.890909-41.890909c9.309091-9.309091 20.945455-13.963636 32.581818-13.963637h216.436364c11.636364 0 23.272727 4.654545 32.581818 13.963637l41.890909 41.890909c9.309091 9.309091 13.963636 20.945455 13.963637 32.581818V977.454545H116.363636c-25.6 0-46.545455-20.945455-46.545454-46.545454z" fill="#C0CED7" p-id="41532"></path><path d="M467.781818 667.927273l-41.890909-41.890909c-13.963636-13.963636-30.254545-20.945455-48.872727-20.945455H158.254545c-18.618182 0-37.236364 6.981818-48.872727 20.945455l-41.890909 41.890909c-13.963636 13.963636-20.945455 30.254545-20.945454 48.872727V930.909091c0 9.309091 2.327273 16.290909 4.654545 23.272727H23.272727c-13.963636 0-23.272727 9.309091-23.272727 23.272727s9.309091 23.272727 23.272727 23.272728h442.181818c13.963636 0 23.272727-9.309091 23.272728-23.272728V716.8c0-18.618182-6.981818-34.909091-20.945455-48.872727zM442.181818 954.181818H116.363636c-13.963636 0-23.272727-9.309091-23.272727-23.272727v-214.109091c0-6.981818 2.327273-11.636364 6.981818-16.290909l41.890909-41.890909c4.654545-4.654545 11.636364-6.981818 16.290909-6.981818H186.181818v81.454545c0 6.981818 4.654545 11.636364 11.636364 11.636364s11.636364-4.654545 11.636363-11.636364V651.636364h167.563637c6.981818 0 11.636364 2.327273 16.290909 6.981818l41.890909 41.890909c4.654545 4.654545 6.981818 9.309091 6.981818 16.290909V954.181818z" fill="#0B3A5B" p-id="41533"></path><path d="M435.2 700.509091l-41.890909-41.890909c-4.654545-4.654545-9.309091-6.981818-16.290909-6.981818h-46.545455c6.981818 0 11.636364 2.327273 16.290909 6.981818l41.890909 41.890909c4.654545 4.654545 6.981818 9.309091 6.981819 16.290909V954.181818h46.545454V716.8c0-4.654545-2.327273-11.636364-6.981818-16.290909z" fill="#8CA6BC" p-id="41534"></path><path d="M116.363636 954.181818h325.818182v-23.272727H93.090909c0 13.963636 9.309091 23.272727 23.272727 23.272727z" fill="#8CA6BC" p-id="41535"></path><path d="M162.909091 977.454545l18.618182-74.472727c2.327273-11.636364 11.636364-23.272727 20.945454-27.927273l83.781818-48.872727c11.636364-6.981818 18.618182-16.290909 20.945455-27.927273l9.309091-39.563636c4.654545-20.945455 23.272727-34.909091 44.218182-34.909091h204.8c9.309091 0 18.618182 2.327273 25.6 6.981818l37.236363 25.6c13.963636 9.309091 20.945455 23.272727 20.945455 39.563637v16.290909c0 18.618182 9.309091 34.909091 25.6 41.890909l41.890909 20.945454c16.290909 6.981818 25.6 23.272727 25.6 41.89091V977.454545H162.909091z" fill="#C0CED7" p-id="41536"></path><path d="M707.490909 891.345455l-41.890909-20.945455c-23.272727-11.636364-39.563636-34.909091-39.563636-62.836364V791.272727c0-6.981818-4.654545-13.963636-9.309091-18.618182l-37.236364-25.6c-4.654545-2.327273-9.309091-4.654545-13.963636-4.654545H535.272727c4.654545 0 9.309091 2.327273 13.963637 4.654545l37.236363 25.6c6.981818 4.654545 9.309091 11.636364 9.309091 18.618182v16.290909c0 25.6 13.963636 51.2 39.563637 62.836364l41.890909 20.945455c6.981818 4.654545 13.963636 11.636364 13.963636 20.945454V954.181818H721.454545v-41.890909c0-6.981818-4.654545-16.290909-13.963636-20.945454z" fill="#8CA6BC" p-id="41537"></path><path d="M93.090909 581.818182H23.272727c-13.963636 0-23.272727-9.309091-23.272727-23.272727s9.309091-23.272727 23.272727-23.272728h69.818182c13.963636 0 23.272727 9.309091 23.272727 23.272728s-9.309091 23.272727-23.272727 23.272727zM139.636364 512c-6.981818 0-13.963636-4.654545-18.618182-9.309091l-46.545455-69.818182c-6.981818-11.636364-4.654545-25.6 6.981818-32.581818 11.636364-6.981818 25.6-4.654545 32.581819 6.981818l46.545454 69.818182c6.981818 11.636364 4.654545 25.6-6.981818 32.581818-4.654545 0-9.309091 2.327273-13.963636 2.327273zM325.818182 581.818182c-9.309091 0-16.290909-4.654545-20.945455-13.963637-4.654545-11.636364 0-25.6 9.309091-30.254545l46.545455-23.272727c11.636364-4.654545 25.6 0 30.254545 9.309091 4.654545 11.636364 0 25.6-9.309091 30.254545l-46.545454 23.272727c-2.327273 4.654545-4.654545 4.654545-9.309091 4.654546z" fill="#0B3A5B" p-id="41538"></path><path d="M407.272727 849.454545m-11.636363 0a11.636364 11.636364 0 1 0 23.272727 0 11.636364 11.636364 0 1 0-23.272727 0Z" fill="#0B3A5B" p-id="41539"></path><path d="M477.090909 779.636364m-11.636364 0a11.636364 11.636364 0 1 0 23.272728 0 11.636364 11.636364 0 1 0-23.272728 0Z" fill="#0B3A5B" p-id="41540"></path><path d="M151.272727 733.090909m-11.636363 0a11.636364 11.636364 0 1 0 23.272727 0 11.636364 11.636364 0 1 0-23.272727 0Z" fill="#0B3A5B" p-id="41541"></path><path d="M570.181818 896m-11.636363 0a11.636364 11.636364 0 1 0 23.272727 0 11.636364 11.636364 0 1 0-23.272727 0Z" fill="#0B3A5B" p-id="41542"></path><path d="M290.909091 896m-11.636364 0a11.636364 11.636364 0 1 0 23.272728 0 11.636364 11.636364 0 1 0-23.272728 0Z" fill="#0B3A5B" p-id="41543"></path><path d="M546.909091 826.181818m-11.636364 0a11.636364 11.636364 0 1 0 23.272728 0 11.636364 11.636364 0 1 0-23.272728 0Z" fill="#0B3A5B" p-id="41544"></path><path d="M197.818182 779.636364m-11.636364 0a11.636364 11.636364 0 1 0 23.272727 0 11.636364 11.636364 0 1 0-23.272727 0Z" fill="#0B3A5B" p-id="41545"></path><path d="M267.636364 709.818182m-11.636364 0a11.636364 11.636364 0 1 0 23.272727 0 11.636364 11.636364 0 1 0-23.272727 0Z" fill="#0B3A5B" p-id="41546"></path><path d="M128 849.454545m-11.636364 0a11.636364 11.636364 0 1 0 23.272728 0 11.636364 11.636364 0 1 0-23.272728 0Z" fill="#0B3A5B" p-id="41547"></path><path d="M814.545455 954.181818h-46.545455v-41.890909c0-25.6-13.963636-51.2-39.563636-62.836364l-41.890909-20.945454c-6.981818-4.654545-13.963636-11.636364-13.963637-20.945455V791.272727c0-23.272727-11.636364-44.218182-30.254545-58.181818L605.090909 707.490909c-9.309091-4.654545-23.272727-9.309091-37.236364-9.309091h-204.8c-32.581818 0-60.509091 20.945455-67.490909 53.527273l-11.636363 39.563636c-2.327273 6.981818-4.654545 11.636364-11.636364 13.963637l-83.781818 48.872727c-16.290909 9.309091-27.927273 25.6-32.581818 41.890909L139.636364 972.8c-2.327273 6.981818 0 13.963636 4.654545 20.945455s11.636364 6.981818 18.618182 6.981818h651.636364c13.963636 0 23.272727-9.309091 23.272727-23.272728s-9.309091-23.272727-23.272727-23.272727z m-314.181819-93.090909c-6.981818 0-11.636364 4.654545-11.636363 11.636364V954.181818H193.163636l11.636364-46.545454c2.327273-6.981818 4.654545-11.636364 11.636364-13.963637l83.781818-48.872727c16.290909-9.309091 27.927273-25.6 32.581818-41.890909l9.309091-39.563636c2.327273-9.309091 11.636364-18.618182 23.272727-18.618182H395.636364v58.181818c0 6.981818 4.654545 11.636364 11.636363 11.636364s11.636364-4.654545 11.636364-11.636364V744.727273h148.945454c4.654545 0 9.309091 2.327273 13.963637 4.654545l37.236363 25.6c6.981818 4.654545 9.309091 11.636364 9.309091 18.618182v16.290909c0 25.6 13.963636 51.2 39.563637 62.836364l41.890909 20.945454c6.981818 4.654545 13.963636 11.636364 13.963636 20.945455V954.181818h-209.454545v-81.454545c-2.327273-6.981818-6.981818-11.636364-13.963637-11.636364z" fill="#0B3A5B" p-id="41548"></path><path d="M360.727273 930.909091c-6.981818 0-11.636364-4.654545-11.636364-11.636364v-23.272727c0-6.981818 4.654545-11.636364 11.636364-11.636364s11.636364 4.654545 11.636363 11.636364v23.272727c0 6.981818-4.654545 11.636364-11.636363 11.636364z" fill="#0B3A5B" p-id="41549"></path></svg>