<?xml version="1.0" standalone="no"?><!DOCTYPE svg PUBLIC "-//W3C//DTD SVG 1.1//EN" "http://www.w3.org/Graphics/SVG/1.1/DTD/svg11.dtd"><svg t="1680927888151" class="icon" viewBox="0 0 1024 1024" version="1.1" xmlns="http://www.w3.org/2000/svg" p-id="41376" xmlns:xlink="http://www.w3.org/1999/xlink" width="200" height="200"><path d="M862.813746 784.703207L512 1000.767302 161.186254 784.703207C133.307016 768.440318 117.044127 738.23781 117.044127 705.712032V94.692064l113.840222-32.525777c92.930794-25.555968 185.861587-37.172317 283.438921-37.172318 99.900603 0 197.477936 13.939619 292.732 41.818857L906.955873 94.692064v611.019968c0 32.525778-16.262889 60.405016-44.142127 78.991175z" fill="#FFCB5B" p-id="41377"></path><path d="M512 1024c-4.64654 0-9.293079 0-11.616349-2.32327L149.569905 803.289365C114.720858 782.379937 93.811429 745.207619 93.811429 705.712032V94.692064c0-11.616349 6.96981-18.586159 16.262889-23.232698l113.840222-32.525778c190.508127-53.435206 397.279142-51.111936 587.787269 2.32327L913.925682 71.459366c9.293079 4.64654 16.262889 13.939619 16.262889 23.232698v611.019968c0 39.495587-20.909429 76.667905-55.758476 99.900603l-350.813746 216.064095c-2.32327 0-6.96981 2.32327-11.616349 2.32327zM140.276826 113.278223v592.433809c0 23.232698 11.616349 46.465397 32.525778 60.405016l339.197396 209.094285 339.197396-209.094285c20.909429-13.939619 32.525778-34.849048 32.525778-60.405016V113.278223l-83.637714-23.232698c-183.538317-51.111936-378.692984-53.435206-562.231301-2.32327L140.276826 113.278223z" fill="#0B3A5B" p-id="41378"></path><path d="M512 875.31073c-2.32327 0-4.64654 0-6.96981-2.32327l-278.79238-171.921968c-2.32327-2.32327-4.64654-6.96981-4.64654-9.293079V182.976318c0-4.64654 4.64654-9.293079 9.293079-11.616349l27.879239-6.969809c83.637714-23.232698 169.598698-34.849048 255.559682-34.849048 88.284254 0 178.891778 11.616349 262.529492 37.172317l16.262889 4.64654c4.64654 2.32327 9.293079 6.96981 9.293079 11.616349v508.796095c0 4.64654-2.32327 6.96981-4.64654 9.293079l-278.79238 171.921968c-2.32327 2.32327-4.64654 2.32327-6.96981 2.32327z" fill="#D3E2EB" p-id="41379"></path><path d="M398.159778 793.996286l113.840222 69.698095 278.792381-171.921968V401.363683zM349.371111 763.793778l441.42127-441.421269v-139.396191l-16.262889-4.646539c-4.64654-2.32327-11.616349-2.32327-16.262889-4.64654L237.854159 694.095683l111.516952 69.698095z" fill="#FFFFFF" p-id="41380"></path><path d="M883.723174 113.278223c-13.939619 18.586159-23.232698 41.818857-23.232698 65.051556v506.472825c0 23.232698-11.616349 46.465397-32.525778 60.405015l-250.913143 160.305619c-27.879238 16.262889-48.788667 39.495587-65.051555 67.374826l339.197396-209.094286c20.909429-11.616349 32.525778-34.849048 32.525778-60.405016V113.278223z" fill="#F5AE44" p-id="41381"></path><path d="M281.996286 196.915937c2.32327-2.32327 6.96981-2.32327 9.293079-4.646539 162.628889-41.818857 336.874127-41.818857 499.503016 4.646539v-13.939619l-16.262889-4.646539c-167.275428-48.788667-343.843936-48.788667-511.119365-2.32327l-30.202508 6.969809v508.796095l23.232699 13.939619V238.734794c0-16.262889 9.293079-32.525778 25.555968-41.818857z" fill="#B0C4D8" p-id="41382"></path><path d="M237.854159 694.095683l13.939619 9.293079 4.64654 2.32327V675.509524zM774.529492 178.329779c-4.64654-2.32327-11.616349-2.32327-16.262889-4.64654l-11.616349 11.616349c13.939619 2.32327 30.202508 6.96981 44.142127 11.616349v-13.939619l-16.262889-4.646539z" fill="#D5E3EF" p-id="41383"></path><path d="M630.486762 431.566191c11.616349-16.262889 20.909429-34.849048 20.909428-58.081746 0-41.818857-27.879238-76.667905-67.374825-88.284254H581.698095c-23.232698-9.293079-23.232698-20.909429-23.232698-27.879238v-23.232698c0-13.939619-9.293079-23.232698-23.232699-23.232699s-23.232698 9.293079-23.232698 23.232699v23.232698c0 13.939619-9.293079 23.232698-23.232698 23.232699s-23.232698-9.293079-23.232699-23.232699v-23.232698c0-13.939619-9.293079-23.232698-23.232698-23.232699s-23.232698 9.293079-23.232699 23.232699v23.232698c0 13.939619-9.293079 23.232698-23.232698 23.232699h-69.698095v46.465396h23.232698c13.939619 0 23.232698 9.293079 23.232699 23.232699v232.326984c0 13.939619-9.293079 23.232698-23.232699 23.232698h-23.232698v46.465397h69.698095c13.939619 0 23.232698 9.293079 23.232698 23.232698v23.232699c0 13.939619 9.293079 23.232698 23.232699 23.232698s23.232698-9.293079 23.232698-23.232698v-23.232699c0-13.939619 9.293079-23.232698 23.232699-23.232698s23.232698 9.293079 23.232698 23.232698v23.232699c0 13.939619 9.293079 23.232698 23.232698 23.232698s23.232698-9.293079 23.232699-23.232698v-23.232699c0-13.939619 9.293079-23.232698 23.232698-23.232698 65.051555 0 116.163492-51.111936 116.163492-116.163492 0-46.465397-27.879238-85.960984-67.374825-104.547143zM512 327.019048c25.555968 0 46.465397 20.909429 46.465397 46.465397s-20.909429 46.465397-46.465397 46.465397h-46.465397v-92.930794h46.465397z m-46.465397 278.792381v-139.39619h69.698095c39.495587 0 69.698095 30.202508 69.698096 69.698095s-30.202508 69.698095-69.698096 69.698095h-69.698095z" fill="#0B3A5B" p-id="41384"></path><path d="M732.710635 512.880635c-6.96981 0-11.616349-4.64654-11.616349-11.616349v-116.163492c0-6.96981 4.64654-11.616349 11.616349-11.616349s11.616349 4.64654 11.616349 11.616349v116.163492c0 6.96981-4.64654 11.616349-11.616349 11.616349zM291.289365 466.415239c-6.96981 0-11.616349-4.64654-11.616349-11.61635v-69.698095c0-6.96981 4.64654-11.616349 11.616349-11.616349s11.616349 4.64654 11.616349 11.616349v69.698095c0 6.96981-4.64654 11.616349-11.616349 11.61635z" fill="#0E395A" p-id="41385"></path><path d="M797.76219 159.74362l-16.262889-4.64654C693.215047 129.541112 604.930794 117.924763 514.32327 117.924763c-88.284254 0-174.245238 11.616349-257.882952 34.849047l-30.202508 6.96981c-9.293079 4.64654-16.262889 13.939619-16.262889 23.232698v508.796095c0 6.96981 4.64654 16.262889 11.616349 20.909429l278.792381 171.921968c4.64654 2.32327 6.96981 2.32327 11.616349 2.32327s9.293079 0 11.616349-2.32327l278.792381-171.921968c6.96981-4.64654 11.616349-11.616349 11.616349-20.909429V182.976318c0-11.616349-6.96981-20.909429-16.262889-23.232698zM790.792381 691.772413l-46.465397 27.879238v-125.456571c0-6.96981-4.64654-11.616349-11.616349-11.616349s-11.616349 4.64654-11.616349 11.616349v141.71946L628.163492 791.673016v-58.081746c0-6.96981-4.64654-11.616349-11.616349-11.616349s-11.616349 4.64654-11.616349 11.616349v74.344635l-92.930794 58.081746-116.163492-74.344635v-58.081746c0-6.96981-4.64654-11.616349-11.616349-11.616349s-11.616349 4.64654-11.616349 11.616349v44.142127l-69.698096-44.142127v-188.184857c0-6.96981-4.64654-11.616349-11.616349-11.616349s-11.616349 6.96981-11.616349 13.939619v171.921968l-46.465397-27.879238V182.976318l30.202508-6.969809c4.64654-2.32327 11.616349-2.32327 16.262889-4.64654v144.04273c0 6.96981 4.64654 11.616349 11.616349 11.616349s11.616349-4.64654 11.616349-11.616349V164.39016c69.698095-16.262889 139.39619-23.232698 211.417556-23.232699 30.202508 0 60.405016 2.32327 90.607524 4.64654v53.435206c0 6.96981 4.64654 11.616349 11.616349 11.616349s11.616349-4.64654 11.616349-11.616349V148.127271c30.202508 4.64654 62.728286 9.293079 92.930794 16.262889v151.012539c0 6.96981 4.64654 11.616349 11.616349 11.616349s11.616349-4.64654 11.616349-11.616349V169.036699c9.293079 2.32327 20.909429 4.64654 30.202508 6.96981l16.262889 6.969809v508.796095z" fill="#0B3A5B" p-id="41386"></path></svg>