<?xml version="1.0" standalone="no"?><!DOCTYPE svg PUBLIC "-//W3C//DTD SVG 1.1//EN" "http://www.w3.org/Graphics/SVG/1.1/DTD/svg11.dtd"><svg t="1680925727404" class="icon" viewBox="0 0 1024 1024" version="1.1" xmlns="http://www.w3.org/2000/svg" p-id="5312" xmlns:xlink="http://www.w3.org/1999/xlink" width="200" height="200"><path d="M914.032 867.569h-799.58c-25.398 0-45.969 20.683-45.969 46.216 0 25.534 20.571 46.215 45.968 46.215h799.581C939.428 960 960 939.319 960 913.785c0-25.415-20.572-46.216-45.968-46.216z" fill="#FA8B14" p-id="5313"></path><path d="M102.73 791.32h814.175c21.38 0 38.73-17.45 38.73-38.939V102.938c0-21.495-17.35-38.938-38.73-38.938H102.73C81.35 64 64 81.443 64 102.938v649.443c0.112 21.489 17.35 38.938 38.73 38.938z m224.708-379.778l-34.129-46.91c-6.323-8.784-7.013-20.45-1.61-29.81l30.223-52.686c5.404-9.359 15.745-14.674 26.435-13.517l57.572 6.24c11.834 1.269 22.984-5.203 27.81-16.175l23.331-53.262c4.366-9.94 14.135-16.292 24.82-16.292h60.563c10.8 0 20.57 6.352 24.824 16.292l23.326 53.262c4.832 10.86 16.094 17.444 27.816 16.174l57.572-6.239c10.689-1.157 21.144 4.158 26.429 13.517l30.228 52.687c5.398 9.358 4.709 21.025-1.61 29.809l-34.017 46.91c-7.007 9.59-7.007 22.644 0 32.348l34.129 46.91c6.325 8.784 7.014 20.45 1.61 29.81l-30.223 52.686c-5.402 9.359-15.745 14.674-26.428 13.517l-57.578-6.24c-11.834-1.269-22.984 5.201-27.81 16.175l-23.332 53.267c-4.366 9.935-14.135 16.287-24.819 16.287h-60.45c-10.803 0-20.57-6.352-24.819-16.287l-23.333-53.267c-4.825-10.861-16.087-17.444-27.809-16.174l-57.572 6.239c-10.69 1.157-21.15-4.158-26.434-13.517l-30.224-52.687c-5.403-9.359-4.713-21.025 1.612-29.809l34.126-46.91c6.78-9.704 6.78-22.758-0.23-32.348z m100.613 16.174c0 48.178 38.842 87.229 86.763 87.229 47.92 0 86.762-39.05 86.762-87.23 0-48.179-38.842-87.23-86.762-87.23-47.921 0-86.763 39.051-86.763 87.23z" fill="#2075CC" p-id="5314"></path></svg>