<?xml version="1.0" standalone="no"?><!DOCTYPE svg PUBLIC "-//W3C//DTD SVG 1.1//EN" "http://www.w3.org/Graphics/SVG/1.1/DTD/svg11.dtd"><svg t="1680930297574" class="icon" viewBox="0 0 1024 1024" version="1.1" xmlns="http://www.w3.org/2000/svg" p-id="10297" xmlns:xlink="http://www.w3.org/1999/xlink" width="200" height="200"><path d="M512 962C263.47 962 62 760.53 62 512S263.47 62 512 62s450 201.47 450 450-201.47 450-450 450z" fill="#843DD4" p-id="10298"></path><path d="M512 798.36c-158.15 0-286.36-128.21-286.36-286.36S353.85 225.64 512 225.64 798.36 353.85 798.36 512 670.15 798.36 512 798.36z" fill="#FFFFFF" p-id="10299"></path><path d="M512 675.64c-90.37 0-163.64-73.26-163.64-163.64 0-90.37 73.26-163.64 163.64-163.64 90.37 0 163.64 73.26 163.64 163.64 0 90.37-73.27 163.64-163.64 163.64z" fill="#392592" p-id="10300"></path><path d="M818.72 358.44L603.06 408.9l55.6 59.27-96.69 93.54-86.93-66.28c-11.81-8.99-28.38-8.23-39.35 1.8L238.44 678.25c-12.48 11.47-13.3 30.88-1.86 43.35a30.625 30.625 0 0 0 22.61 9.95c7.41 0 14.86-2.68 20.75-8.07L458.26 559.8l87.49 66.72c12.03 9.15 29.02 8.19 39.93-2.36l114.97-111.22 53.94 57.51 64.13-212.01z" fill="#39E2A0" p-id="10301"></path></svg>