<?xml version="1.0" standalone="no"?><!DOCTYPE svg PUBLIC "-//W3C//DTD SVG 1.1//EN" "http://www.w3.org/Graphics/SVG/1.1/DTD/svg11.dtd"><svg t="1680927911495" class="icon" viewBox="0 0 1024 1024" version="1.1" xmlns="http://www.w3.org/2000/svg" p-id="41841" xmlns:xlink="http://www.w3.org/1999/xlink" width="200" height="200"><path d="M512 302.545455m-279.272727 0a279.272727 279.272727 0 1 0 558.545454 0 279.272727 279.272727 0 1 0-558.545454 0Z" fill="#3BB54A" p-id="41842"></path><path d="M512 605.090909c-167.563636 0-302.545455-134.981818-302.545455-302.545454S344.436364 0 512 0s302.545455 134.981818 302.545455 302.545455-134.981818 302.545455-302.545455 302.545454z m0-558.545454c-141.963636 0-256 114.036364-256 256s114.036364 256 256 256 256-114.036364 256-256S653.963636 46.545455 512 46.545455z" fill="#0B3A5B" p-id="41843"></path><path d="M363.054545 509.672727L719.127273 153.6c-25.6-34.909091-60.509091-62.836364-100.072728-81.454545L279.272727 411.927273c18.618182 39.563636 48.872727 72.145455 83.781818 97.745454zM512 558.545455c141.963636 0 256-114.036364 256-256 0-34.909091-6.981818-67.490909-18.618182-97.745455L414.254545 539.927273c30.254545 11.636364 62.836364 18.618182 97.745455 18.618182z" fill="#89C763" p-id="41844"></path><path d="M512 302.545455m-186.181818 0a186.181818 186.181818 0 1 0 372.363636 0 186.181818 186.181818 0 1 0-372.363636 0Z" fill="#89C763" p-id="41845"></path><path d="M512 116.363636c102.4 0 186.181818 83.781818 186.181818 186.181819s-83.781818 186.181818-186.181818 186.181818-186.181818-83.781818-186.181818-186.181818 83.781818-186.181818 186.181818-186.181819m0-23.272727c-116.363636 0-209.454545 93.090909-209.454545 209.454546s93.090909 209.454545 209.454545 209.454545 209.454545-93.090909 209.454545-209.454545-93.090909-209.454545-209.454545-209.454546z" fill="#0B3A5B" p-id="41846"></path><path d="M349.090909 325.818182c0-102.4 83.781818-186.181818 186.181818-186.181818 46.545455 0 86.109091 16.290909 118.690909 44.218181C621.381818 141.963636 570.181818 116.363636 512 116.363636c-102.4 0-186.181818 83.781818-186.181818 186.181819 0 58.181818 25.6 109.381818 67.490909 141.963636C365.381818 411.927273 349.090909 372.363636 349.090909 325.818182z" fill="#3BB54A" p-id="41847"></path><path d="M565.527273 125.672727l-232.727273 232.727273c13.963636 41.890909 41.890909 79.127273 79.127273 102.4l256-256c-23.272727-39.563636-58.181818-67.490909-102.4-79.127273z" fill="#AED477" p-id="41848"></path><path d="M551.563636 139.636364c39.563636 2.327273 74.472727 18.618182 104.727273 41.890909-23.272727-27.927273-53.527273-46.545455-88.436364-58.181818l-16.290909 16.290909zM393.309091 444.509091c-23.272727-27.927273-39.563636-65.163636-41.890909-104.727273l-16.290909 16.290909c9.309091 34.909091 30.254545 67.490909 58.181818 88.436364z" fill="#89C763" p-id="41849"></path><path d="M512 488.727273c102.4 0 186.181818-83.781818 186.181818-186.181818 0-13.963636-2.327273-30.254545-4.654545-44.218182l-223.418182 223.418182c11.636364 4.654545 27.927273 6.981818 41.890909 6.981818z" fill="#AED477" p-id="41850"></path><path d="M535.272727 279.272727h-46.545454c-13.963636 0-23.272727-9.309091-23.272728-23.272727s9.309091-23.272727 23.272728-23.272727h69.818182c13.963636 0 23.272727-9.309091 23.272727-23.272728s-9.309091-23.272727-23.272727-23.272727h-23.272728c0-13.963636-9.309091-23.272727-23.272727-23.272727s-23.272727 9.309091-23.272727 23.272727c-39.563636 0-69.818182 30.254545-69.818182 69.818182s30.254545 69.818182 69.818182 69.818182h46.545454c13.963636 0 23.272727 9.309091 23.272728 23.272727s-9.309091 23.272727-23.272728 23.272727h-69.818182c-13.963636 0-23.272727 9.309091-23.272727 23.272728s9.309091 23.272727 23.272727 23.272727h23.272728c0 13.963636 9.309091 23.272727 23.272727 23.272727s23.272727-9.309091 23.272727-23.272727c39.563636 0 69.818182-30.254545 69.818182-69.818182s-30.254545-69.818182-69.818182-69.818182z" fill="#0B3A5B" p-id="41851"></path><path d="M302.545455 721.454545m-279.272728 0a279.272727 279.272727 0 1 0 558.545455 0 279.272727 279.272727 0 1 0-558.545455 0Z" fill="#F5B445" p-id="41852"></path><path d="M302.545455 1024C134.981818 1024 0 889.018182 0 721.454545s134.981818-302.545455 302.545455-302.545454 302.545455 134.981818 302.545454 302.545454-134.981818 302.545455-302.545454 302.545455z m0-558.545455C160.581818 465.454545 46.545455 579.490909 46.545455 721.454545s114.036364 256 256 256 256-114.036364 256-256-114.036364-256-256-256z" fill="#0B3A5B" p-id="41853"></path><path d="M153.6 928.581818l356.072727-356.072727c-25.6-34.909091-60.509091-62.836364-100.072727-81.454546L69.818182 830.836364c18.618182 39.563636 48.872727 72.145455 83.781818 97.745454zM302.545455 977.454545c141.963636 0 256-114.036364 256-256 0-34.909091-6.981818-67.490909-18.618182-97.745454L204.8 958.836364c30.254545 11.636364 62.836364 18.618182 97.745455 18.618181z" fill="#FFCB5B" p-id="41854"></path><path d="M302.545455 721.454545m-186.181819 0a186.181818 186.181818 0 1 0 372.363637 0 186.181818 186.181818 0 1 0-372.363637 0Z" fill="#FFCB5B" p-id="41855"></path><path d="M302.545455 535.272727c102.4 0 186.181818 83.781818 186.181818 186.181818s-83.781818 186.181818-186.181818 186.181819-186.181818-83.781818-186.181819-186.181819 83.781818-186.181818 186.181819-186.181818m0-23.272727c-116.363636 0-209.454545 93.090909-209.454546 209.454545s93.090909 209.454545 209.454546 209.454546 209.454545-93.090909 209.454545-209.454546-93.090909-209.454545-209.454545-209.454545z" fill="#0B3A5B" p-id="41856"></path><path d="M139.636364 744.727273c0-102.4 83.781818-186.181818 186.181818-186.181818 46.545455 0 86.109091 16.290909 118.690909 44.218181-32.581818-41.890909-83.781818-67.490909-141.963636-67.490909-102.4 0-186.181818 83.781818-186.181819 186.181818 0 58.181818 25.6 109.381818 67.490909 141.963637C155.927273 830.836364 139.636364 791.272727 139.636364 744.727273z" fill="#F6B545" p-id="41857"></path><path d="M356.072727 544.581818l-232.727272 232.727273c13.963636 41.890909 41.890909 79.127273 79.127272 102.4l256-256c-23.272727-39.563636-58.181818-67.490909-102.4-79.127273z" fill="#FFE27A" p-id="41858"></path><path d="M342.109091 558.545455c39.563636 2.327273 74.472727 18.618182 104.727273 41.890909-23.272727-27.927273-53.527273-46.545455-88.436364-58.181819l-16.290909 16.29091zM183.854545 863.418182c-23.272727-27.927273-39.563636-65.163636-41.890909-104.727273l-16.290909 16.290909c9.309091 34.909091 30.254545 67.490909 58.181818 88.436364z" fill="#FFCB5B" p-id="41859"></path><path d="M302.545455 907.636364c102.4 0 186.181818-83.781818 186.181818-186.181819 0-13.963636-2.327273-30.254545-4.654546-44.218181l-223.418182 223.418181c11.636364 4.654545 27.927273 6.981818 41.89091 6.981819z" fill="#FFE27A" p-id="41860"></path><path d="M386.327273 709.818182c4.654545-11.636364 9.309091-23.272727 9.309091-34.909091 0-39.563636-30.254545-69.818182-69.818182-69.818182 0-13.963636-9.309091-23.272727-23.272727-23.272727s-23.272727 9.309091-23.272728 23.272727h-46.545454c-13.963636 0-23.272727 9.309091-23.272728 23.272727s9.309091 23.272727 23.272728 23.272728v139.636363c-13.963636 0-23.272727 9.309091-23.272728 23.272728s9.309091 23.272727 23.272728 23.272727h46.545454c0 13.963636 9.309091 23.272727 23.272728 23.272727s23.272727-9.309091 23.272727-23.272727h23.272727c39.563636 0 69.818182-30.254545 69.818182-69.818182 0-25.6-13.963636-46.545455-32.581818-58.181818zM325.818182 651.636364c13.963636 0 23.272727 9.309091 23.272727 23.272727s-9.309091 23.272727-23.272727 23.272727h-46.545455v-46.545454h46.545455z m23.272727 139.636363h-69.818182v-46.545454h69.818182c13.963636 0 23.272727 9.309091 23.272727 23.272727s-9.309091 23.272727-23.272727 23.272727z" fill="#0B3A5B" p-id="41861"></path><path d="M721.454545 651.636364m-279.272727 0a279.272727 279.272727 0 1 0 558.545455 0 279.272727 279.272727 0 1 0-558.545455 0Z" fill="#B0C4D9" p-id="41862"></path><path d="M721.454545 954.181818c-167.563636 0-302.545455-134.981818-302.545454-302.545454s134.981818-302.545455 302.545454-302.545455 302.545455 134.981818 302.545455 302.545455-134.981818 302.545455-302.545455 302.545454z m0-558.545454c-141.963636 0-256 114.036364-256 256s114.036364 256 256 256 256-114.036364 256-256-114.036364-256-256-256z" fill="#0B3A5B" p-id="41863"></path><path d="M572.509091 858.763636l356.072727-356.072727c-25.6-34.909091-60.509091-62.836364-100.072727-81.454545L488.727273 761.018182c18.618182 39.563636 48.872727 72.145455 83.781818 97.745454zM721.454545 907.636364c141.963636 0 256-114.036364 256-256 0-34.909091-6.981818-67.490909-18.618181-97.745455L623.709091 889.018182c30.254545 11.636364 62.836364 18.618182 97.745454 18.618182z" fill="#D5E3EF" p-id="41864"></path><path d="M721.454545 651.636364m-186.181818 0a186.181818 186.181818 0 1 0 372.363637 0 186.181818 186.181818 0 1 0-372.363637 0Z" fill="#D5E3EF" p-id="41865"></path><path d="M721.454545 465.454545c102.4 0 186.181818 83.781818 186.181819 186.181819s-83.781818 186.181818-186.181819 186.181818-186.181818-83.781818-186.181818-186.181818 83.781818-186.181818 186.181818-186.181819m0-23.272727c-116.363636 0-209.454545 93.090909-209.454545 209.454546s93.090909 209.454545 209.454545 209.454545 209.454545-93.090909 209.454546-209.454545-93.090909-209.454545-209.454546-209.454546z" fill="#0B3A5B" p-id="41866"></path><path d="M558.545455 674.909091c0-102.4 83.781818-186.181818 186.181818-186.181818 46.545455 0 86.109091 16.290909 118.690909 44.218182-32.581818-41.890909-83.781818-67.490909-141.963637-67.49091-102.4 0-186.181818 83.781818-186.181818 186.181819 0 58.181818 25.6 109.381818 67.490909 141.963636C574.836364 761.018182 558.545455 721.454545 558.545455 674.909091z" fill="#B0C4D9" p-id="41867"></path><path d="M774.981818 474.763636l-232.727273 232.727273c13.963636 41.890909 41.890909 79.127273 79.127273 102.4l256-256c-23.272727-39.563636-58.181818-67.490909-102.4-79.127273z" fill="#FFFFFF" p-id="41868"></path><path d="M761.018182 488.727273c39.563636 2.327273 74.472727 18.618182 104.727273 41.890909-23.272727-27.927273-53.527273-46.545455-88.436364-58.181818l-16.290909 16.290909zM602.763636 793.6c-23.272727-27.927273-39.563636-65.163636-41.890909-104.727273l-16.290909 16.290909c9.309091 34.909091 30.254545 67.490909 58.181818 88.436364z" fill="#C9D5E3" p-id="41869"></path><path d="M721.454545 837.818182c102.4 0 186.181818-83.781818 186.181819-186.181818 0-13.963636-2.327273-30.254545-4.654546-44.218182l-223.418182 223.418182c11.636364 4.654545 27.927273 6.981818 41.890909 6.981818z" fill="#FFFFFF" p-id="41870"></path><path d="M814.545455 628.363636l-93.09091 46.545455-93.090909-46.545455 93.090909-116.363636z" fill="#0B3A5B" p-id="41871"></path><path d="M628.363636 651.636364l93.090909 46.545454 93.09091-46.545454-93.09091 139.636363z" fill="#0B3A5B" p-id="41872"></path></svg>