<?xml version="1.0" standalone="no"?><!DOCTYPE svg PUBLIC "-//W3C//DTD SVG 1.1//EN" "http://www.w3.org/Graphics/SVG/1.1/DTD/svg11.dtd"><svg t="1680927924316" class="icon" viewBox="0 0 1024 1024" version="1.1" xmlns="http://www.w3.org/2000/svg" p-id="42170" xmlns:xlink="http://www.w3.org/1999/xlink" width="200" height="200"><path d="M768 302.545455m-139.636364 0a139.636364 139.636364 0 1 0 279.272728 0 139.636364 139.636364 0 1 0-279.272728 0Z" fill="#F5B445" p-id="42171"></path><path d="M768 488.727273c-102.4 0-186.181818-83.781818-186.181818-186.181818s83.781818-186.181818 186.181818-186.181819 186.181818 83.781818 186.181818 186.181819-83.781818 186.181818-186.181818 186.181818z m0-325.818182c-76.8 0-139.636364 62.836364-139.636364 139.636364s62.836364 139.636364 139.636364 139.636363 139.636364-62.836364 139.636364-139.636363-62.836364-139.636364-139.636364-139.636364z" fill="#0B3A5B" p-id="42172"></path><path d="M686.545455 384c-46.545455-46.545455-46.545455-118.690909 0-165.236364s118.690909-46.545455 165.236363 0l-165.236363 165.236364z" fill="#FFCA5D" p-id="42173"></path><path d="M535.272727 232.727273m-139.636363 0a139.636364 139.636364 0 1 0 279.272727 0 139.636364 139.636364 0 1 0-279.272727 0Z" fill="#F5B445" p-id="42174"></path><path d="M535.272727 418.909091c-102.4 0-186.181818-83.781818-186.181818-186.181818s83.781818-186.181818 186.181818-186.181818 186.181818 83.781818 186.181818 186.181818-83.781818 186.181818-186.181818 186.181818z m0-325.818182c-76.8 0-139.636364 62.836364-139.636363 139.636364s62.836364 139.636364 139.636363 139.636363 139.636364-62.836364 139.636364-139.636363-62.836364-139.636364-139.636364-139.636364z" fill="#0B3A5B" p-id="42175"></path><path d="M453.818182 314.181818c-46.545455-46.545455-46.545455-118.690909 0-165.236363s118.690909-46.545455 165.236363 0l-165.236363 165.236363z" fill="#FFCA5D" p-id="42176"></path><path d="M907.636364 837.818182l-209.454546 32.581818c-60.509091 9.309091-123.345455 13.963636-186.181818 13.963636s-123.345455-4.654545-186.181818-13.963636L116.363636 837.818182v-46.545455h791.272728v46.545455z" fill="#B0C4D8" p-id="42177"></path><path d="M458.472727 814.545455H139.636364v2.327272l51.2 6.981818 139.636363 20.945455c44.218182 6.981818 90.763636 11.636364 134.981818 13.963636 0-6.981818 0-13.963636-2.327272-23.272727h290.909091L884.363636 814.545455H458.472727z" fill="#7B9FBE" p-id="42178"></path><path d="M842.472727 791.272727H181.527273c-23.272727 0-44.218182-18.618182-46.545455-41.890909L93.090909 418.909091h837.818182l-41.890909 330.472727c-2.327273 23.272727-23.272727 41.890909-46.545455 41.890909z" fill="#F7964B" p-id="42179"></path><path d="M118.690909 442.181818c13.963636 13.963636 32.581818 23.272727 51.2 23.272727h588.8c27.927273 0 51.2 25.6 46.545455 53.527273l-30.254546 186.181818c-4.654545 23.272727-23.272727 39.563636-46.545454 39.563637H158.254545v2.327272c2.327273 11.636364 11.636364 20.945455 23.272728 20.945455h663.272727c11.636364 0 20.945455-9.309091 23.272727-20.945455L905.309091 442.181818H118.690909z" fill="#F47423" p-id="42180"></path><path d="M290.909091 605.090909c-6.981818 0-11.636364-4.654545-11.636364-11.636364v-23.272727c0-6.981818 4.654545-11.636364 11.636364-11.636363s11.636364 4.654545 11.636364 11.636363v23.272727c0 6.981818-4.654545 11.636364-11.636364 11.636364zM593.454545 674.909091c-6.981818 0-11.636364-4.654545-11.636363-11.636364v-23.272727c0-6.981818 4.654545-11.636364 11.636363-11.636364s11.636364 4.654545 11.636364 11.636364v23.272727c0 6.981818-4.654545 11.636364-11.636364 11.636364zM709.818182 558.545455c-6.981818 0-11.636364-4.654545-11.636364-11.636364v-23.272727c0-6.981818 4.654545-11.636364 11.636364-11.636364s11.636364 4.654545 11.636363 11.636364v23.272727c0 6.981818-4.654545 11.636364-11.636363 11.636364zM826.181818 581.818182c-6.981818 0-11.636364-4.654545-11.636363-11.636364v-23.272727c0-6.981818 4.654545-11.636364 11.636363-11.636364s11.636364 4.654545 11.636364 11.636364v23.272727c0 6.981818-4.654545 11.636364-11.636364 11.636364zM384 651.636364c-6.981818 0-11.636364-4.654545-11.636364-11.636364v-116.363636c0-6.981818 4.654545-11.636364 11.636364-11.636364s11.636364 4.654545 11.636364 11.636364v116.363636c0 6.981818-4.654545 11.636364-11.636364 11.636364zM523.636364 698.181818c-6.981818 0-11.636364-4.654545-11.636364-11.636363v-69.818182c0-6.981818 4.654545-11.636364 11.636364-11.636364s11.636364 4.654545 11.636363 11.636364v69.818182c0 6.981818-4.654545 11.636364-11.636363 11.636363zM197.818182 628.363636c-6.981818 0-11.636364-4.654545-11.636364-11.636363v-69.818182c0-6.981818 4.654545-11.636364 11.636364-11.636364s11.636364 4.654545 11.636363 11.636364v69.818182c0 6.981818-4.654545 11.636364-11.636363 11.636363zM686.545455 674.909091c-6.981818 0-11.636364-4.654545-11.636364-11.636364v-46.545454c0-6.981818 4.654545-11.636364 11.636364-11.636364s11.636364 4.654545 11.636363 11.636364v46.545454c0 6.981818-4.654545 11.636364-11.636363 11.636364z" fill="#0B3A5B" p-id="42181"></path><path d="M116.363636 256h325.818182v46.545455H116.363636z" fill="#F5B445" p-id="42182"></path><path d="M465.454545 349.090909H93.090909c-13.963636 0-23.272727-9.309091-23.272727-23.272727v-93.090909c0-13.963636 9.309091-23.272727 23.272727-23.272728h372.363636c13.963636 0 23.272727 9.309091 23.272728 23.272728v93.090909c0 13.963636-9.309091 23.272727-23.272728 23.272727zM116.363636 302.545455h325.818182v-46.545455H116.363636v46.545455z" fill="#0B3A5B" p-id="42183"></path><path d="M139.636364 256h69.818181v46.545455H139.636364z" fill="#FFE37C" p-id="42184"></path><path d="M325.818182 256h116.363636v46.545455h-116.363636z" fill="#F8A247" p-id="42185"></path><path d="M162.909091 162.909091h325.818182v46.545454H162.909091z" fill="#F5B445" p-id="42186"></path><path d="M512 256H139.636364c-13.963636 0-23.272727-9.309091-23.272728-23.272727V139.636364c0-13.963636 9.309091-23.272727 23.272728-23.272728h372.363636c13.963636 0 23.272727 9.309091 23.272727 23.272728v93.090909c0 13.963636-9.309091 23.272727-23.272727 23.272727zM162.909091 209.454545h325.818182V162.909091H162.909091v46.545454z" fill="#0B3A5B" p-id="42187"></path><path d="M186.181818 162.909091h69.818182v46.545454H186.181818z" fill="#FFE37C" p-id="42188"></path><path d="M372.363636 162.909091h116.363637v46.545454h-116.363637z" fill="#F8A247" p-id="42189"></path><path d="M69.818182 69.818182h325.818182v46.545454H69.818182z" fill="#F5B445" p-id="42190"></path><path d="M418.909091 162.909091H46.545455c-13.963636 0-23.272727-9.309091-23.272728-23.272727V46.545455c0-13.963636 9.309091-23.272727 23.272728-23.272728h372.363636c13.963636 0 23.272727 9.309091 23.272727 23.272728v93.090909c0 13.963636-9.309091 23.272727-23.272727 23.272727zM69.818182 116.363636h325.818182V69.818182H69.818182v46.545454z" fill="#0B3A5B" p-id="42191"></path><path d="M93.090909 69.818182h69.818182v46.545454H93.090909z" fill="#FFE37C" p-id="42192"></path><path d="M279.272727 69.818182h116.363637v46.545454h-116.363637z" fill="#F8A247" p-id="42193"></path><path d="M930.909091 418.909091H93.090909c-25.6 0-46.545455-20.945455-46.545454-46.545455v-46.545454h930.90909v46.545454c0 25.6-20.945455 46.545455-46.545454 46.545455z" fill="#F7964B" p-id="42194"></path><path d="M977.454545 302.545455H46.545455c-13.963636 0-23.272727 9.309091-23.272728 23.272727v46.545454c0 30.254545 20.945455 58.181818 48.872728 65.163637l39.563636 314.181818c4.654545 37.236364 34.909091 62.836364 69.818182 62.836364h663.272727c34.909091 0 65.163636-25.6 69.818182-60.509091L954.181818 439.854545c27.927273-9.309091 48.872727-34.909091 48.872727-65.163636v-46.545454c-2.327273-16.290909-11.636364-25.6-25.6-25.6z m-111.70909 444.50909c-2.327273 11.636364-11.636364 20.945455-23.272728 20.945455H768v-174.545455c0-6.981818-4.654545-11.636364-11.636364-11.636363s-11.636364 4.654545-11.636363 11.636363V768H465.454545v-151.272727c0-6.981818-4.654545-11.636364-11.636363-11.636364s-11.636364 4.654545-11.636364 11.636364V768H209.454545v-104.727273c0-6.981818-4.654545-11.636364-11.636363-11.636363s-11.636364 4.654545-11.636364 11.636363V768h-4.654545c-11.636364 0-20.945455-9.309091-23.272728-20.945455L118.690909 442.181818H279.272727v81.454546c0 6.981818 4.654545 11.636364 11.636364 11.636363s11.636364-4.654545 11.636364-11.636363V442.181818h209.454545v104.727273c0 6.981818 4.654545 11.636364 11.636364 11.636364s11.636364-4.654545 11.636363-11.636364V442.181818h93.090909v151.272727c0 6.981818 4.654545 11.636364 11.636364 11.636364s11.636364-4.654545 11.636364-11.636364V442.181818h162.909091v58.181818c0 6.981818 4.654545 11.636364 11.636363 11.636364s11.636364-4.654545 11.636364-11.636364V442.181818h67.490909l-39.563636 304.872727zM954.181818 372.363636c0 13.963636-9.309091 23.272727-23.272727 23.272728H93.090909c-13.963636 0-23.272727-9.309091-23.272727-23.272728v-23.272727h884.363636v23.272727z" fill="#0B3A5B" p-id="42195"></path><path d="M1000.727273 721.454545c-13.963636 0-23.272727 9.309091-23.272728 23.272728v23.272727H46.545455v-23.272727c0-13.963636-9.309091-23.272727-23.272728-23.272728s-23.272727 9.309091-23.272727 23.272728v93.090909c0 13.963636 9.309091 23.272727 23.272727 23.272727s23.272727-9.309091 23.272728-23.272727v-23.272727h46.545454v23.272727c0 11.636364 9.309091 20.945455 18.618182 23.272727l209.454545 32.581818c62.836364 9.309091 125.672727 13.963636 188.509091 13.963637s125.672727-4.654545 188.509091-13.963637l209.454546-32.581818c11.636364-2.327273 18.618182-11.636364 18.618181-23.272727v-23.272727h46.545455v23.272727c0 13.963636 9.309091 23.272727 23.272727 23.272727s23.272727-9.309091 23.272728-23.272727v-93.090909c4.654545-13.963636-4.654545-23.272727-18.618182-23.272728z m-116.363637 95.418182l-190.836363 30.254546a1186.909091 1186.909091 0 0 1-363.054546 0L139.636364 816.872727V814.545455h744.727272v2.327272z" fill="#0B3A5B" p-id="42196"></path><path d="M302.545455 861.090909m-93.09091 0a93.090909 93.090909 0 1 0 186.181819 0 93.090909 93.090909 0 1 0-186.181819 0Z" fill="#676A75" p-id="42197"></path><path d="M302.545455 1000.727273c-76.8 0-139.636364-62.836364-139.636364-139.636364s62.836364-139.636364 139.636364-139.636364 139.636364 62.836364 139.636363 139.636364-62.836364 139.636364-139.636363 139.636364z m0-232.727273c-51.2 0-93.090909 41.890909-93.09091 93.090909s41.890909 93.090909 93.09091 93.090909 93.090909-41.890909 93.090909-93.090909-41.890909-93.090909-93.090909-93.090909z" fill="#0B3A5B" p-id="42198"></path><path d="M302.545455 861.090909m-23.272728 0a23.272727 23.272727 0 1 0 46.545455 0 23.272727 23.272727 0 1 0-46.545455 0Z" fill="#0F395A" p-id="42199"></path><path d="M721.454545 861.090909m-93.090909 0a93.090909 93.090909 0 1 0 186.181819 0 93.090909 93.090909 0 1 0-186.181819 0Z" fill="#676A75" p-id="42200"></path><path d="M721.454545 1000.727273c-76.8 0-139.636364-62.836364-139.636363-139.636364s62.836364-139.636364 139.636363-139.636364 139.636364 62.836364 139.636364 139.636364-62.836364 139.636364-139.636364 139.636364z m0-232.727273c-51.2 0-93.090909 41.890909-93.090909 93.090909s41.890909 93.090909 93.090909 93.090909 93.090909-41.890909 93.09091-93.090909-41.890909-93.090909-93.09091-93.090909z" fill="#0B3A5B" p-id="42201"></path><path d="M721.454545 861.090909m-23.272727 0a23.272727 23.272727 0 1 0 46.545455 0 23.272727 23.272727 0 1 0-46.545455 0Z" fill="#0B3A5B" p-id="42202"></path><path d="M93.090909 395.636364h837.818182c13.963636 0 23.272727-9.309091 23.272727-23.272728H69.818182c0 13.963636 9.309091 23.272727 23.272727 23.272728z" fill="#F47423" p-id="42203"></path><path d="M651.636364 884.363636c0-51.2 41.890909-93.090909 93.090909-93.090909 18.618182 0 37.236364 6.981818 53.527272 16.290909-16.290909-23.272727-44.218182-39.563636-76.8-39.563636-51.2 0-93.090909 41.890909-93.090909 93.090909 0 32.581818 16.290909 60.509091 39.563637 76.8-9.309091-16.290909-16.290909-34.909091-16.290909-53.527273z" fill="#585B67" p-id="42204"></path><path d="M232.727273 884.363636c0-51.2 41.890909-93.090909 93.090909-93.090909 18.618182 0 37.236364 6.981818 53.527273 16.290909-16.290909-23.272727-44.218182-39.563636-76.8-39.563636-51.2 0-93.090909 41.890909-93.09091 93.090909 0 32.581818 16.290909 60.509091 39.563637 76.8-9.309091-16.290909-16.290909-34.909091-16.290909-53.527273z" fill="#585B67" p-id="42205"></path></svg>