<?xml version="1.0" standalone="no"?><!DOCTYPE svg PUBLIC "-//W3C//DTD SVG 1.1//EN" "http://www.w3.org/Graphics/SVG/1.1/DTD/svg11.dtd"><svg t="1681108381899" class="icon" viewBox="0 0 1024 1024" version="1.1" xmlns="http://www.w3.org/2000/svg" p-id="38219" xmlns:xlink="http://www.w3.org/1999/xlink" width="32" height="32"><path d="M748.36 585.6a9.98 9.98 0 0 0-0.74-13.3l-72.16-72.18c-1.88-1.88-4.42-2.94-7.08-2.94s-5.2 1.06-7.06 2.94l-49.04 49.02-7.5-55.7c59.94-32.9 100.68-96.62 100.7-169.68V243.88c0-23.72-4.22-46.8-12.56-68.7 1.1-1.86 2.18-3.76 3.18-5.74 18.06-36.02 11.9-82.94-18.32-139.44a9.86 9.86 0 0 0-6.8-5.08c-2.92-0.62-5.94 0.12-8.26 1.98-0.78 0.62-79.12 62.16-203.02 62.16-23.72 0-47.94-2.26-71.94-6.72-3.3-0.6-6.66-0.92-9.96-0.92-34.36 0-64.52 34.3-64.52 73.4 0 14.52 4.32 28.06 11.7 39.44a193.364 193.364 0 0 0-6.46 49.62v79.86c0.02 73.06 40.74 136.8 100.7 169.7l-7.52 55.68-49-49c-1.88-1.88-4.42-2.94-7.08-2.94s-5.2 1.06-7.08 2.94l-72.16 72.18a9.98 9.98 0 0 0-0.74 13.3c-91.62 10.18-163.1 88.06-163.1 182.36v221.34c0 5.52 4.48 10 10 10h778.92c5.52 0 10-4.48 10-10V767.94c0-94.28-71.48-172.16-163.1-182.34z m-79.98-64.28l56.9 56.92-187.48 139.22-11.66-11.66 14.04-14.04c1.88-1.88 2.94-4.42 2.94-7.08s-1.06-5.2-2.94-7.08l-14.04-14.04 142.24-142.24zM512 649.42l-82.52-82.52 8.7-64.36c22.76 9.42 47.68 14.64 73.82 14.64s51.06-5.22 73.82-14.64l8.68 64.38L512 649.42z m-134.2-548c2.08 0 4.2 0.2 6.3 0.58 25.22 4.68 50.66 7.06 75.6 7.06 106.46 0 180.08-42.24 205.68-59.46 22.44 45.7 26.78 82.92 12.9 110.74-18.22 36.52-63.34 46.02-69.34 47.12H385.92c-29.02 0-52.64-23.62-52.64-52.64 0-25.2 19.04-53.4 44.52-53.4z m-39.28 222.28V243.8c0-10.66 0.98-21.24 2.9-31.64 12.3 9.58 27.74 15.3 44.5 15.3H609.8c0.5 0 1-0.04 1.5-0.12 1.98-0.3 39.54-6.34 66.9-33.4 4.84 16.08 7.28 32.8 7.28 49.9V323.7c0 95.66-77.82 173.48-173.48 173.48s-173.48-77.82-173.48-173.48z m17.1 197.62l149.3 149.3v0.02h0.02l14.04 14.04-32.78 32.78-187.48-139.22 56.9-56.92z m535.84 457.98H132.54V767.96c0-90.16 73.34-163.5 163.5-163.5h4.42l180.74 134.2c1.78 1.32 3.88 1.98 5.96 1.98 2.58 0 5.14-1 7.08-2.94l17.76-17.76 17.76 17.76c1.94 1.94 4.5 2.94 7.08 2.94 2.08 0 4.18-0.66 5.96-1.98l180.74-134.2h4.42c90.16 0 163.5 73.34 163.5 163.5v211.34z" fill="#23130D" p-id="38220"></path><path d="M678.28 160.34c-18.22 36.52-63.34 46.02-69.34 47.12H385.92c-29.02 0-52.64-23.62-52.64-52.64 0-25.2 19.04-53.4 44.52-53.4 2.08 0 4.2 0.2 6.3 0.58 25.22 4.68 50.66 7.06 75.6 7.06 106.46 0 180.08-42.24 205.68-59.46 22.44 45.7 26.78 82.92 12.9 110.74z" fill="#F9C139" p-id="38221"></path><path d="M675.9 73.9c-28.36 18.4-100.22 57.16-202.2 57.16-24.94 0-50.38-2.38-75.6-7.06a35.5 35.5 0 0 0-6.3-0.58c-25.48 0-44.52 28.2-44.52 53.4 0 5.68 0.9 11.16 2.6 16.3-10.22-9.58-16.6-23.22-16.6-38.3 0-25.2 19.04-53.4 44.52-53.4 2.08 0 4.2 0.2 6.3 0.58 25.22 4.68 50.66 7.06 75.6 7.06 106.46 0 180.08-42.24 205.68-59.46 4.12 8.38 7.62 16.5 10.52 24.3z" fill="#23130D" opacity=".2" p-id="38222"></path><path d="M678.2 193.94c-27.36 27.06-64.92 33.1-66.9 33.4-0.5 0.08-1 0.12-1.5 0.12H385.92c-16.76 0-32.2-5.72-44.5-15.3a174.2 174.2 0 0 0-2.9 31.64V323.7c0 95.66 77.82 173.48 173.48 173.48s173.48-77.82 173.48-173.48V243.88v-0.04c0-17.1-2.44-33.82-7.28-49.9z m-217.86 65.36c16.02 0 29.02 13 29.02 29.02 0 16.04-13 29.04-29.02 29.04s-29.02-13-29.02-29.04c0-16.02 13-29.02 29.02-29.02zM512 448c-40.88 0-74.02-33.14-74.02-74.02h148.04c0 40.88-33.14 74.02-74.02 74.02z m51.66-130.64c-16.02 0-29.02-13-29.02-29.04 0-16.02 13-29.02 29.02-29.02s29.02 13 29.02 29.02c0 16.04-13 29.04-29.02 29.04z" fill="#F8D3C9" p-id="38223"></path><path d="M376.52 323.7V243.8c0-5.64 0.28-11.26 0.82-16.84-13.44-1.6-25.76-6.88-35.92-14.8a174.2 174.2 0 0 0-2.9 31.64V323.7c0 95.66 77.82 173.48 173.48 173.48 6.42 0 12.76-0.36 19-1.04-86.76-9.48-154.48-83.2-154.48-172.44z" fill="#23130D" opacity=".2" p-id="38224"></path><path d="M594.5 566.92L512 649.42l-82.52-82.52 8.7-64.36c22.76 9.42 47.68 14.64 73.82 14.64s51.06-5.22 73.82-14.64l8.68 64.38z" fill="#E59D89" p-id="38225"></path><path d="M594.5 566.92l-3.38 3.38-5.3-39.28c-22.76 9.42-47.68 14.64-73.82 14.64s-51.06-5.22-73.82-14.64l-5.3 39.28-3.4-3.4 8.7-64.36c22.76 9.42 47.68 14.64 73.82 14.64s51.06-5.22 73.82-14.64l8.68 64.38z" fill="#23130D" opacity=".2" p-id="38226"></path><path d="M725.28 578.24l-187.48 139.22-11.66-11.66 14.04-14.04c1.88-1.88 2.94-4.42 2.94-7.08s-1.06-5.2-2.94-7.08l-14.04-14.04 142.24-142.24 56.9 56.92zM518.98 684.68l-32.78 32.78-187.48-139.22 56.9-56.92 149.3 149.3v0.02h0.02l14.04 14.04z" fill="#EC7063" p-id="38227"></path><path d="M725.28 578.24l-15.78 11.72-41.12-41.14-128.48 128.5-13.76-13.76 142.24-142.24zM518.98 684.68l-13.74 13.76-0.3-0.3h-0.02v-0.02l-149.3-149.3-41.12 41.14-15.78-11.72 56.9-56.92 149.3 149.3v0.02h0.02l14.04 14.04z" fill="#FFFFFF" opacity=".4" p-id="38228"></path><path d="M727.96 604.46h-4.42l-180.74 134.2c-1.78 1.32-3.88 1.98-5.96 1.98-2.58 0-5.14-1-7.08-2.94l-17.76-17.76-17.76 17.76c-1.94 1.94-4.5 2.94-7.08 2.94-2.08 0-4.18-0.66-5.96-1.98l-180.74-134.2h-4.42c-90.16 0-163.5 73.34-163.5 163.5v211.34h758.92V767.96c0-90.16-73.34-163.5-163.5-163.5zM512 953.34c-12.6 0-22.82-10.22-22.82-22.82s10.22-22.82 22.82-22.82 22.82 10.22 22.82 22.82-10.22 22.82-22.82 22.82z m0-67.6c-12.6 0-22.82-10.22-22.82-22.82s10.22-22.82 22.82-22.82 22.82 10.22 22.82 22.82-10.22 22.82-22.82 22.82z m0-67.6c-12.6 0-22.82-10.22-22.82-22.82s10.22-22.82 22.82-22.82 22.82 10.22 22.82 22.82-10.22 22.82-22.82 22.82z m282.64 16.7h-120.76c-5.54 0-10-4.46-10-10 0-5.52 4.46-10 10-10h120.76c5.52 0 10 4.48 10 10 0 5.54-4.48 10-10 10z" fill="#EC7063" p-id="38229"></path><path d="M727.96 604.46h-4.42l-180.74 134.2c-1.78 1.32-3.88 1.98-5.96 1.98-2.58 0-5.14-1-7.08-2.94l-17.76-17.76-17.76 17.76c-1.94 1.94-4.5 2.94-7.08 2.94-2.08 0-4.18-0.66-5.96-1.98l-180.74-134.2h-4.42c-90.16 0-163.5 73.34-163.5 163.5v22.96c0-90.16 73.34-163.5 163.5-163.5h4.42l180.74 134.2c1.78 1.32 3.88 1.98 5.96 1.98 2.58 0 5.14-1 7.08-2.94l17.76-17.76 17.76 17.76c1.94 1.94 4.5 2.94 7.08 2.94 2.08 0 4.18-0.66 5.96-1.98l180.74-134.2h4.42c90.16 0 163.5 73.34 163.5 163.5v-22.96c0-90.16-73.34-163.5-163.5-163.5z" fill="#23130D" opacity=".2" p-id="38230"></path><path d="M804.64 824.84c0 5.54-4.48 10-10 10h-120.76c-5.54 0-10-4.46-10-10 0-5.52 4.46-10 10-10h120.76c5.52 0 10 4.48 10 10zM586.02 373.98c0 40.88-33.14 74.02-74.02 74.02s-74.02-33.14-74.02-74.02h148.04zM489.36 288.32c0 16.04-13 29.04-29.02 29.04s-29.02-13-29.02-29.04c0-16.02 13-29.02 29.02-29.02s29.02 13 29.02 29.02z" fill="#23130D" p-id="38231"></path><path d="M512 795.32m-22.82 0a22.82 22.82 0 1 0 45.64 0 22.82 22.82 0 1 0-45.64 0Z" fill="#FFFFFF" p-id="38232"></path><path d="M512 862.92m-22.82 0a22.82 22.82 0 1 0 45.64 0 22.82 22.82 0 1 0-45.64 0Z" fill="#FFFFFF" p-id="38233"></path><path d="M512 930.52m-22.82 0a22.82 22.82 0 1 0 45.64 0 22.82 22.82 0 1 0-45.64 0Z" fill="#FFFFFF" p-id="38234"></path><path d="M592.68 288.32c0 16.04-13 29.04-29.02 29.04s-29.02-13-29.02-29.04c0-16.02 13-29.02 29.02-29.02s29.02 13 29.02 29.02z" fill="#23130D" p-id="38235"></path></svg>