<?xml version="1.0" standalone="no"?><!DOCTYPE svg PUBLIC "-//W3C//DTD SVG 1.1//EN" "http://www.w3.org/Graphics/SVG/1.1/DTD/svg11.dtd"><svg t="1680927904779" class="icon" viewBox="0 0 1024 1024" version="1.1" xmlns="http://www.w3.org/2000/svg" p-id="41687" xmlns:xlink="http://www.w3.org/1999/xlink" width="200" height="200"><path d="M69.818182 488.727273h23.272727v69.818182H69.818182z" fill="#B0C4D9" p-id="41688"></path><path d="M954.181818 768H116.363636V297.890909c0-11.636364 4.654545-23.272727 13.963637-32.581818l88.436363-88.436364c9.309091-9.309091 20.945455-13.963636 32.581819-13.963636H954.181818c25.6 0 46.545455 20.945455 46.545455 46.545454v512c0 25.6-20.945455 46.545455-46.545455 46.545455z" fill="#ECF0F9" p-id="41689"></path><path d="M954.181818 186.181818v512c0 13.963636-9.309091 23.272727-23.272727 23.272727H139.636364v23.272728h814.545454c13.963636 0 23.272727-9.309091 23.272727-23.272728V209.454545c0-13.963636-9.309091-23.272727-23.272727-23.272727z" fill="#C9D5E3" p-id="41690"></path><path d="M768 465.454545m-139.636364 0a139.636364 139.636364 0 1 0 279.272728 0 139.636364 139.636364 0 1 0-279.272728 0Z" fill="#B0C4D9" p-id="41691"></path><path d="M349.090909 465.454545m-139.636364 0a139.636364 139.636364 0 1 0 279.272728 0 139.636364 139.636364 0 1 0-279.272728 0Z" fill="#B0C4D9" p-id="41692"></path><path d="M954.181818 139.636364H251.345455c-18.618182 0-34.909091 6.981818-48.872728 20.945454L139.636364 223.418182V209.454545c0-13.963636-9.309091-23.272727-23.272728-23.272727H23.272727c-13.963636 0-23.272727 9.309091-23.272727 23.272727s9.309091 23.272727 23.272727 23.272728h69.818182v139.636363H46.545455c-13.963636 0-23.272727 9.309091-23.272728 23.272728s9.309091 23.272727 23.272728 23.272727h46.545454v23.272727H46.545455c-13.963636 0-23.272727 9.309091-23.272728 23.272727v116.363637c0 13.963636 9.309091 23.272727 23.272728 23.272727h46.545454v23.272727H46.545455c-13.963636 0-23.272727 9.309091-23.272728 23.272728s9.309091 23.272727 23.272728 23.272727h46.545454v186.181818c0 13.963636 9.309091 23.272727 23.272727 23.272727s23.272727-9.309091 23.272728-23.272727v-69.818182h116.363636c0 13.963636 9.309091 23.272727 23.272727 23.272728h23.272728c13.963636 0 23.272727-9.309091 23.272727-23.272728h46.545454c0 13.963636 9.309091 23.272727 23.272728 23.272728h232.727272c13.963636 0 23.272727-9.309091 23.272728-23.272728h302.545454c39.563636 0 69.818182-30.254545 69.818182-69.818182V209.454545c0-39.563636-30.254545-69.818182-69.818182-69.818181zM69.818182 558.545455v-69.818182h23.272727v69.818182H69.818182z m907.636363 162.90909c0 13.963636-9.309091 23.272727-23.272727 23.272728h-23.272727v-34.909091c0-6.981818-4.654545-11.636364-11.636364-11.636364s-11.636364 4.654545-11.636363 11.636364V744.727273h-46.545455v-34.909091c0-6.981818-4.654545-11.636364-11.636364-11.636364s-11.636364 4.654545-11.636363 11.636364V744.727273h-46.545455v-34.909091c0-6.981818-4.654545-11.636364-11.636363-11.636364s-11.636364 4.654545-11.636364 11.636364V744.727273h-46.545455v-34.909091c0-6.981818-4.654545-11.636364-11.636363-11.636364s-11.636364 4.654545-11.636364 11.636364V744.727273h-46.545454v-34.909091c0-6.981818-4.654545-11.636364-11.636364-11.636364s-11.636364 4.654545-11.636364 11.636364V744.727273h-46.545454v-34.909091c0-6.981818-4.654545-11.636364-11.636364-11.636364s-11.636364 4.654545-11.636363 11.636364V744.727273h-46.545455v-34.909091c0-6.981818-4.654545-11.636364-11.636364-11.636364s-11.636364 4.654545-11.636363 11.636364V744.727273h-46.545455v-34.909091c0-6.981818-4.654545-11.636364-11.636363-11.636364s-11.636364 4.654545-11.636364 11.636364V744.727273h-46.545455v-34.909091c0-6.981818-4.654545-11.636364-11.636363-11.636364s-11.636364 4.654545-11.636364 11.636364V744.727273h-46.545454v-34.909091c0-6.981818-4.654545-11.636364-11.636364-11.636364s-11.636364 4.654545-11.636364 11.636364V744.727273h-46.545454v-34.909091c0-6.981818-4.654545-11.636364-11.636364-11.636364s-11.636364 4.654545-11.636364 11.636364V744.727273H139.636364V297.890909c0-6.981818 2.327273-11.636364 6.981818-16.290909l88.436363-88.436364c4.654545-4.654545 11.636364-6.981818 16.29091-6.981818H279.272727v34.909091c0 6.981818 4.654545 11.636364 11.636364 11.636364s11.636364-4.654545 11.636364-11.636364V186.181818h46.545454v34.909091c0 6.981818 4.654545 11.636364 11.636364 11.636364s11.636364-4.654545 11.636363-11.636364V186.181818h46.545455v34.909091c0 6.981818 4.654545 11.636364 11.636364 11.636364s11.636364-4.654545 11.636363-11.636364V186.181818h46.545455v34.909091c0 6.981818 4.654545 11.636364 11.636363 11.636364s11.636364-4.654545 11.636364-11.636364V186.181818h46.545455v34.909091c0 6.981818 4.654545 11.636364 11.636363 11.636364s11.636364-4.654545 11.636364-11.636364V186.181818h46.545454v34.909091c0 6.981818 4.654545 11.636364 11.636364 11.636364s11.636364-4.654545 11.636364-11.636364V186.181818h46.545454v34.909091c0 6.981818 4.654545 11.636364 11.636364 11.636364s11.636364-4.654545 11.636363-11.636364V186.181818h46.545455v34.909091c0 6.981818 4.654545 11.636364 11.636364 11.636364s11.636364-4.654545 11.636363-11.636364V186.181818h46.545455v34.909091c0 6.981818 4.654545 11.636364 11.636363 11.636364s11.636364-4.654545 11.636364-11.636364V186.181818h46.545455v34.909091c0 6.981818 4.654545 11.636364 11.636363 11.636364s11.636364-4.654545 11.636364-11.636364V186.181818h23.272727c13.963636 0 23.272727 9.309091 23.272727 23.272727v512z" fill="#0B3A5B" p-id="41693"></path><path d="M570.181818 267.636364m-11.636363 0a11.636364 11.636364 0 1 0 23.272727 0 11.636364 11.636364 0 1 0-23.272727 0Z" fill="#0B3A5B" p-id="41694"></path><path d="M640 267.636364m-11.636364 0a11.636364 11.636364 0 1 0 23.272728 0 11.636364 11.636364 0 1 0-23.272728 0Z" fill="#0B3A5B" p-id="41695"></path><path d="M500.363636 267.636364m-11.636363 0a11.636364 11.636364 0 1 0 23.272727 0 11.636364 11.636364 0 1 0-23.272727 0Z" fill="#0B3A5B" p-id="41696"></path><path d="M570.181818 314.181818m-11.636363 0a11.636364 11.636364 0 1 0 23.272727 0 11.636364 11.636364 0 1 0-23.272727 0Z" fill="#0B3A5B" p-id="41697"></path><path d="M570.181818 616.727273m-11.636363 0a11.636364 11.636364 0 1 0 23.272727 0 11.636364 11.636364 0 1 0-23.272727 0Z" fill="#0B3A5B" p-id="41698"></path><path d="M570.181818 663.272727m-11.636363 0a11.636364 11.636364 0 1 0 23.272727 0 11.636364 11.636364 0 1 0-23.272727 0Z" fill="#0B3A5B" p-id="41699"></path><path d="M500.363636 663.272727m-11.636363 0a11.636364 11.636364 0 1 0 23.272727 0 11.636364 11.636364 0 1 0-23.272727 0Z" fill="#0B3A5B" p-id="41700"></path><path d="M640 663.272727m-11.636364 0a11.636364 11.636364 0 1 0 23.272728 0 11.636364 11.636364 0 1 0-23.272728 0Z" fill="#0B3A5B" p-id="41701"></path><path d="M651.636364 488.727273c0-76.8 62.836364-139.636364 139.636363-139.636364 32.581818 0 62.836364 11.636364 86.109091 30.254546-25.6-32.581818-65.163636-53.527273-109.381818-53.527273-76.8 0-139.636364 62.836364-139.636364 139.636363 0 44.218182 20.945455 83.781818 53.527273 109.381819-18.618182-23.272727-30.254545-53.527273-30.254545-86.109091zM232.727273 488.727273c0-76.8 62.836364-139.636364 139.636363-139.636364 32.581818 0 62.836364 11.636364 86.109091 30.254546-25.6-32.581818-65.163636-53.527273-109.381818-53.527273-76.8 0-139.636364 62.836364-139.636364 139.636363 0 44.218182 20.945455 83.781818 53.527273 109.381819-18.618182-23.272727-30.254545-53.527273-30.254545-86.109091z" fill="#82A7C4" p-id="41702"></path><path d="M349.090909 279.272727c-102.4 0-186.181818 83.781818-186.181818 186.181818s83.781818 186.181818 186.181818 186.181819 186.181818-83.781818 186.181818-186.181819-83.781818-186.181818-186.181818-186.181818z m139.636364 190.836364c-34.909091 11.636364-74.472727 11.636364-109.381818-2.327273 34.909091-16.290909 67.490909-44.218182 86.10909-79.127273 13.963636 20.945455 23.272727 48.872727 23.272728 76.8v4.654546z m-39.563637-100.072727c-16.290909 32.581818-46.545455 60.509091-79.127272 76.8 13.963636-34.909091 16.290909-79.127273 4.654545-116.363637 30.254545 4.654545 55.854545 18.618182 74.472727 39.563637z m-97.745454 65.163636c-16.290909-34.909091-44.218182-67.490909-79.127273-86.109091 20.945455-13.963636 48.872727-23.272727 76.8-23.272727h4.654546c9.309091 34.909091 9.309091 76.8-2.327273 109.381818zM349.090909 605.090909h-4.654545c-11.636364-34.909091-11.636364-74.472727 2.327272-109.381818 16.290909 34.909091 44.218182 67.490909 79.127273 86.109091-23.272727 13.963636-48.872727 23.272727-76.8 23.272727z m-95.418182-239.709091c32.581818 16.290909 60.509091 46.545455 76.8 79.127273-34.909091-13.963636-79.127273-16.290909-116.363636-4.654546 4.654545-30.254545 18.618182-55.854545 39.563636-74.472727zM209.454545 460.8c34.909091-11.636364 74.472727-11.636364 109.381819 2.327273-34.909091 16.290909-67.490909 44.218182-86.109091 79.127272-13.963636-20.945455-23.272727-48.872727-23.272728-76.8v-4.654545z m39.563637 100.072727c16.290909-32.581818 46.545455-60.509091 79.127273-76.8-13.963636 34.909091-16.290909 79.127273-4.654546 116.363637-30.254545-4.654545-55.854545-18.618182-74.472727-39.563637z m195.490909 4.654546c-32.581818-16.290909-60.509091-46.545455-76.8-79.127273 20.945455 6.981818 44.218182 11.636364 67.490909 11.636364 16.290909 0 32.581818-2.327273 48.872727-6.981819-4.654545 30.254545-18.618182 55.854545-39.563636 74.472728zM768 279.272727c-102.4 0-186.181818 83.781818-186.181818 186.181818s83.781818 186.181818 186.181818 186.181819 186.181818-83.781818 186.181818-186.181819-83.781818-186.181818-186.181818-186.181818z m139.636364 190.836364c-34.909091 11.636364-74.472727 11.636364-109.381819-2.327273 34.909091-16.290909 67.490909-44.218182 86.109091-79.127273 13.963636 20.945455 23.272727 48.872727 23.272728 76.8v4.654546z m-39.563637-100.072727c-16.290909 32.581818-46.545455 60.509091-79.127272 76.8 13.963636-34.909091 16.290909-79.127273 4.654545-116.363637 30.254545 4.654545 55.854545 18.618182 74.472727 39.563637z m-97.745454 65.163636c-16.290909-34.909091-44.218182-67.490909-79.127273-86.109091 20.945455-13.963636 48.872727-23.272727 76.8-23.272727h4.654545c9.309091 34.909091 9.309091 76.8-2.327272 109.381818zM768 605.090909h-4.654545c-11.636364-34.909091-11.636364-74.472727 2.327272-109.381818 16.290909 34.909091 44.218182 67.490909 79.127273 86.109091-23.272727 13.963636-48.872727 23.272727-76.8 23.272727z m-95.418182-239.709091c32.581818 16.290909 60.509091 46.545455 76.8 79.127273-34.909091-13.963636-79.127273-16.290909-116.363636-4.654546 4.654545-30.254545 18.618182-55.854545 39.563636-74.472727zM628.363636 460.8c34.909091-11.636364 74.472727-11.636364 109.381819 2.327273-34.909091 16.290909-67.490909 44.218182-86.109091 79.127272-13.963636-20.945455-23.272727-48.872727-23.272728-76.8v-4.654545z m39.563637 100.072727c16.290909-32.581818 46.545455-60.509091 79.127272-76.8-13.963636 34.909091-16.290909 79.127273-4.654545 116.363637-30.254545-4.654545-55.854545-18.618182-74.472727-39.563637z m195.490909 4.654546c-32.581818-16.290909-60.509091-46.545455-76.8-79.127273 20.945455 6.981818 44.218182 11.636364 67.490909 11.636364 16.290909 0 32.581818-2.327273 48.872727-6.981819-4.654545 30.254545-18.618182 55.854545-39.563636 74.472728z" fill="#0B3A5B" p-id="41703"></path></svg>